<?xml version="1.0" standalone="no"?>
<!DOCTYPE svg PUBLIC "-//W3C//DTD SVG 1.1//EN" "http://www.w3.org/Graphics/SVG/1.1/DTD/svg11.dtd" >
<svg xmlns="http://www.w3.org/2000/svg">
<metadata>
<<<<<<< HEAD
Created by FontForge 20120731 at Thu Jul  3 16:19:37 2014
=======
Created by FontForge 20120731 at Tue Jul  8 15:47:04 2014
>>>>>>> master
 By Thomas Welton
Created by Thomas Welton with FontForge 2.0 (http://fontforge.sf.net)
</metadata>
<defs>
<font id="mooicon" horiz-adv-x="512" >
  <font-face 
    font-family="mooicon"
    font-weight="500"
    font-stretch="normal"
    units-per-em="512"
    panose-1="2 0 6 3 0 0 0 0 0 0"
    ascent="448"
    descent="-64"
    bbox="-1.5 -64 513 449"
    underline-thickness="25"
    underline-position="-52"
    unicode-range="U+E001-E03F"
  />
<missing-glyph horiz-adv-x="187" 
d="M17 0v341h136v-341h-136zM34 17h102v307h-102v-307z" />
    <glyph glyph-name=".notdef" horiz-adv-x="187" 
d="M17 0v341h136v-341h-136zM34 17h102v307h-102v-307z" />
    <glyph glyph-name=".null" horiz-adv-x="0" 
 />
    <glyph glyph-name="nonmarkingreturn" horiz-adv-x="170" 
 />
    <glyph glyph-name="uniE001" unicode="&#xe001;" horiz-adv-x="307" 
d="M273 311h-239v-341h239v341zM307 346v-376q0 -14 -10 -24t-24 -10h-239q-14 0 -24 10t-10 24v376h307zM290 414q7 0 12 -5t5 -12t-5 -12t-12 -5h-273q-7 0 -12 5t-5 12t5 12t12 5h120q-7 0 -12.5 5t-5.5 12t5.5 12t12.5 5h34q7 0 12 -5t5 -12t-5 -12t-12 -5h119zM85 4
q-7 0 -12 5t-5 12v239q0 7 5 12t12 5t12 -5t5 -12v-239q0 -7 -5 -12t-12 -5zM154 4q-7 0 -12 5t-5 12v239q0 7 5 12t12 5t12 -5t5 -12v-239q0 -7 -5 -12t-12 -5zM222 4q-7 0 -12 5t-5 12v239q0 7 5 12t12 5t12 -5t5 -12v-239q0 -7 -5 -12t-12 -5z" />
    <glyph glyph-name="uniE002" unicode="&#xe002;" 
d="M495 -64h-478q-7 0 -12 5t-5 12v478q0 7 5 12t12 5h478q7 0 12 -5t5 -12v-478q0 -7 -5 -12t-12 -5zM34 -30h444v444h-444v-444z" />
    <glyph glyph-name="uniE003" unicode="&#xe003;" horiz-adv-x="510" 
d="M449 89h-285q-13 0 -16 13l-64 261h-67q-7 0 -12 5t-5 12t5 12t12 5h81q13 0 16 -13l22 -90h357q9 0 14 -6t3 -15l-44 -171q-3 -13 -17 -13zM178 123h258l35 137h-326zM171 21q0 34 34 34t34 -34t-34 -34t-34 34zM375 21q0 34 35 34q34 0 34 -34t-34 -34q-35 0 -35 34z
" />
    <glyph glyph-name="uniE004" unicode="&#xe004;" 
d="M502 425q10 -9 10 -25v-273q0 -14 -10 -24t-24 -10h-68v-143l-144 143h-232q-14 0 -24 10t-10 24v273q0 16 10 25q10 10 24 10h444q14 0 24 -10zM478 127v273h-444v-273h237q7 1 14 -5l90 -90v78q0 7 5.5 12t12.5 5h85zM85 264q0 34 34 34q35 0 35 -34t-35 -34
q-34 0 -34 34zM222 264q0 34 34 34t34 -34t-34 -34t-34 34zM358 264q0 34 35 34q34 0 34 -34t-34 -34q-35 0 -35 34z" />
    <glyph glyph-name="uniE005" unicode="&#xe005;" horiz-adv-x="154" 
d="M17 55q-7 0 -12 5q-13 12 0 25l107 107l-107 107q-13 13 0 25q12 12 24 0l120 -120q12 -12 0 -24l-120 -120q-5 -5 -12 -5z" />
    <glyph glyph-name="uniE006" unicode="&#xe006;" horiz-adv-x="375" 
d="M188 90q-7 0 -12 5l-171 170q-12 12 0 24t24 0l159 -158l158 158q12 12 24 0t0 -24l-170 -170q-5 -5 -12 -5z" />
    <glyph glyph-name="uniE007" unicode="&#xe007;" horiz-adv-x="273" 
d="M137 115q-7 0 -12 5l-120 120q-12 12 0 24t24 0l108 -108l107 107q12 12 24 0t0 -24l-119 -119q-5 -5 -12 -5z" />
    <glyph glyph-name="uniE008" unicode="&#xe008;" 
d="M256 55q-7 0 -12 5l-239 240q-12 12 0 24t24 0l227 -227l227 227q12 12 24 0t0 -24l-239 -240q-5 -5 -12 -5z" />
    <glyph glyph-name="uniE009" unicode="&#xe009;" horiz-adv-x="154" 
d="M137 55q-8 0 -13 5l-119 120q-12 12 0 24l119 120q12 12 25 0t0 -25l-108 -107l108 -107q13 -13 0 -25q-5 -5 -12 -5z" />
    <glyph glyph-name="uniE00A" unicode="&#xe00a;" horiz-adv-x="205" 
d="M188 4q-7 0 -12 5l-171 171q-12 12 0 24l171 171q12 12 24 0t0 -24l-159 -159l159 -159q12 -12 0 -24q-5 -5 -12 -5z" />
    <glyph glyph-name="uniE00B" unicode="&#xe00b;" horiz-adv-x="288" 
d="M256 -64q-14 0 -23 9l-224 224q-9 9 -9 23t9 23l224 224q9 9 23 9t23 -9t9 -23t-9 -23l-202 -201l202 -201q9 -9 9 -23t-9 -23t-23 -9z" />
    <glyph glyph-name="uniE00C" unicode="&#xe00c;" horiz-adv-x="273" 
d="M256 -64q-7 0 -12 5l-239 239q-12 12 0 24l239 239q12 12 24 0t0 -24l-227 -227l227 -227q12 -12 0 -24q-5 -5 -12 -5z" />
    <glyph glyph-name="uniE00D" unicode="&#xe00d;" horiz-adv-x="205" 
d="M17 4q-7 0 -12 5q-12 12 0 24l159 159l-159 159q-12 12 0 24t24 0l171 -171q12 -12 0 -24l-171 -171q-5 -5 -12 -5z" />
    <glyph glyph-name="uniE00E" unicode="&#xe00e;" horiz-adv-x="273" 
d="M17 -64q-7 0 -12 5q-12 12 0 24l227 227l-227 227q-12 12 0 24t24 0l239 -239q12 -12 0 -24l-239 -239q-5 -5 -12 -5z" />
    <glyph glyph-name="uniE00F" unicode="&#xe00f;" horiz-adv-x="375" 
d="M358 90q-7 0 -12 5l-158 158l-159 -158q-12 -12 -24 0t0 24l171 170q12 12 24 0l170 -170q12 -12 0 -24q-5 -5 -12 -5z" />
    <glyph glyph-name="uniE010" unicode="&#xe010;" horiz-adv-x="273" 
d="M256 115q-7 0 -12 5l-107 108l-108 -108q-12 -12 -24 0t0 24l119 120q12 12 25 0l119 -120q12 -12 0 -24q-5 -5 -12 -5z" />
    <glyph glyph-name="uniE011" unicode="&#xe011;" 
d="M495 55q-7 0 -12 5l-227 227l-227 -227q-12 -12 -24 0t0 24l239 240q5 5 12 5t12 -5l239 -240q12 -12 0 -24q-5 -5 -12 -5z" />
    <glyph glyph-name="uniE012" unicode="&#xe012;" 
d="M256 414q-45 0 -86 -18q-42 -18 -71 -47t-47 -71q-18 -41 -18 -86t18 -86q18 -42 47 -71t71 -47q41 -18 86 -18q46 0 86 18q42 18 71 47t47 71q18 40 18 86q0 45 -18 86q-18 42 -47 71t-71 47q-40 18 -86 18zM256 448q106 0 181 -75t75 -181t-75 -181t-181 -75t-181 75
t-75 181t75 181t181 75z" />
    <glyph glyph-name="uniE013" unicode="&#xe013;" 
d="M256 -47q-47 0 -93 19q-44 19 -76 51t-51 76q-19 46 -19 93t19 93q19 44 51 76t76 51q46 19 93 19t93 -19q44 -19 76 -51t51 -76q19 -46 19 -93t-19 -93q-19 -44 -51 -76t-76 -51q-46 -19 -93 -19zM256 414q-45 0 -86 -18q-42 -18 -71 -47t-47 -71q-18 -41 -18 -86
t18 -86q18 -42 47 -71t71 -47q41 -18 86 -18q46 0 86 18q42 18 71 47t47 71q18 40 18 86q0 45 -18 86q-18 42 -47 71t-71 47q-40 18 -86 18zM256 448q106 0 181 -75t75 -181t-75 -181t-181 -75t-181 75t-75 181t75 181t181 75z" />
    <glyph glyph-name="uniE014" unicode="&#xe014;" 
d="M498 405q14 0 14 -14v-71v-57v-185q0 -14 -14 -14h-484q-14 0 -14 14v185v57v71q0 14 14 14h484zM484 92v171h-456v-171h456zM28 320h456v57h-456v-57zM441 206h-370q-14 0 -14 14q0 15 14 15h370q14 0 14 -15q0 -14 -14 -14zM242 149h-171q-14 0 -14 15q0 14 14 14h171
q14 0 14 -14q0 -15 -14 -15z" />
    <glyph glyph-name="uniE015" unicode="&#xe015;" horiz-adv-x="273" 
d="M161 192l107 -107q12 -13 0 -25q-5 -5 -12 -5t-12 5l-107 108l-108 -108q-5 -5 -12 -5t-12 5q-13 12 0 25l107 107l-107 107q-13 13 0 25q12 12 24 0l108 -108l107 108q12 12 24 0t0 -25z" />
    <glyph glyph-name="uniE016" unicode="&#xe016;" horiz-adv-x="444" 
d="M246 192l193 -193q12 -12 0 -24q-5 -5 -12 -5t-12 5l-193 193l-193 -193q-5 -5 -12 -5t-12 5q-12 12 0 24l193 193l-193 193q-12 12 0 24t24 0l193 -193l193 193q12 12 24 0t0 -24z" />
    <glyph glyph-name="uniE017" unicode="&#xe017;" horiz-adv-x="393" 
d="M184 9l-139 140q-12 12 0 24t24 0l110 -110v368q0 7 5 12t12 5t12 -5t5 -12v-368l111 110q12 12 24 0t0 -24l-140 -140q-5 -5 -12 -5t-12 5zM375 -30q7 0 12.5 -5t5.5 -12t-5.5 -12t-12.5 -5h-358q-7 0 -12 5t-5 12t5 12t12 5h358z" />
    <glyph glyph-name="uniE018" unicode="&#xe018;" horiz-adv-x="481" 
d="M458 408q23 -23 23 -55q0 -33 -23 -56l-322 -322q-5 -5 -10 -6l-126 -17l18 125q2 7 6 11l321 321q23 23 56 23t56 -23zM40 -8l69 10l-59 59zM434 321q13 13 13 31.5t-13 31.5l-1 1q-13 13 -32 13t-32 -13l-297 -297l64 -65z" />
    <glyph glyph-name="uniE019" unicode="&#xe019;" 
d="M495 380q7 0 12 -5t5 -12v-342q0 -7 -5 -12t-12 -5h-478q-7 0 -12 5t-5 12v342q0 7 5 12t12 5h478zM457 346h-402l201 -148zM34 38h444v280l-212 -155q-4 -3 -10 -3t-10 3l-212 155v-280z" />
    <glyph glyph-name="uniE01A" unicode="&#xe01a;" horiz-adv-x="48" 
d="M24 46q10 0 17 -7t7 -17t-7 -16.5t-17 -6.5t-17 6.5t-7 16.5t7 17t17 7zM33 101q-2 -10 -9 -10t-9 10l-8 111v156q0 7 5 12t12 5t12 -5t5 -12v-156z" />
    <glyph glyph-name="uniE01B" unicode="&#xe01b;" horiz-adv-x="239" 
d="M52 349q0 9 0.5 15.5t6 24t15.5 29t32.5 21t53.5 9.5h79v-90h-58q-8 0 -15.5 -6.5t-7.5 -13.5v-59h81l-10 -87h-71v-256h-106v256h-52v86h52v71z" />
    <glyph glyph-name="uniE01C" unicode="&#xe01c;" 
d="M504 227q8 -11 8 -22t-8 -22q-6 -9 -17 -16q-10 -7 -25 -13q-15 -7 -31 -11q-11 -3 -37 -9q-14 -3 -42 -7q-16 -2 -46 -4q-16 -1 -50 -1t-50 1q-30 2 -46 4q-28 4 -42 7q-26 6 -37 9q-16 4 -31 11q-15 6 -25 13q-11 7 -17 16q-8 11 -8 22t8 22q7 11 17 17q10 7 25 13
q15 7 31 11q6 2 19 4.5t18 3.5q14 3 42 7q14 2 42 4l-36 36q-10 10 0 20t20 0l61 -60q10 -10 0 -20l-61 -61q-4 -4 -10 -4t-10 4q-10 10 0 20l36 36q-37 -3 -38 -3q-14 -2 -40 -6q-5 -1 -35 -9q-20 -6 -28 -9q-12 -4 -20 -11q-7 -4 -10 -9l-3 -6q0 -1 1.5 -2.5t1.5 -2.5
q4 -7 10 -10q6 -5 20 -10q21 -8 28 -10q20 -6 35 -8q26 -4 40 -6t44 -4q48 -3 96 0q30 2 44 4t40 6q15 2 35 8q7 2 28 10q14 5 20 10q6 3 10 10q0 1 1.5 2.5t1.5 2.5l-3 6q-3 5 -10 9q-8 7 -20 11q-8 3 -28 9q-30 8 -35 9q-26 4 -40 6t-44 4q-13 0 -13 15q0 13 15 13
q30 -2 46 -4q28 -4 42 -7q5 -1 18 -3.5t19 -4.5q16 -4 31 -11q15 -6 25 -13q10 -6 17 -17z" />
    <glyph glyph-name="uniE01D" unicode="&#xe01d;" 
d="M504 191q8 -11 8 -24t-8 -24q-7 -10 -18 -17q-10 -7 -25 -13q-15 -7 -31 -11q-6 -2 -19 -4.5t-18 -3.5q-14 -3 -42 -7q-16 -2 -46 -4q-16 -1 -49 -1t-49 1q-30 2 -46 4q-28 4 -42 7q-5 1 -18 3.5t-19 4.5q-16 4 -31 11q-15 6 -25 13q-11 7 -18 17q-8 11 -8 24t8 24
q7 10 18 17q10 7 25 13q15 7 31 11q11 3 37 9q4 1 42 6q11 1 35 3l-31 32q-12 12 0 24t24 0l60 -60q12 -12 0 -24l-60 -60q-5 -5 -12 -5t-12 5q-12 12 0 24l30 30l-30 -3q-21 -3 -39 -6q-17 -3 -34 -8l-27 -9q-9 -3 -20 -10q-7 -6 -9 -9q-2 -2 -2 -4t2 -4q1 -1 9 -8
q11 -7 20 -10q25 -9 27 -10q17 -5 34 -8q18 -3 39 -6q14 -2 44 -4q47 -3 94 0q30 2 44 4q21 3 39 6q17 3 34 8q2 1 27 10q9 3 20 10q8 7 9 8q2 2 2 4t-2 4q-2 3 -9 9q-11 7 -20 10l-27 9q-17 5 -34 8q-18 3 -39 6q-14 2 -44 4q-7 1 -12 6t-4 12t6 12t12 4q30 -2 46 -4
q38 -5 42 -6q26 -6 37 -9q16 -4 31 -11q15 -6 25 -13q11 -7 18 -17z" />
    <glyph glyph-name="uniE01E" unicode="&#xe01e;" 
d="M501 369q11 0 11 -11v-17q0 -11 -11 -11h-57q-11 0 -11 -12v-56q0 -11 -11 -11h-17q-11 0 -11 11v56q0 12 -11 12h-57q-11 0 -11 11v17q0 11 11 11h57q11 0 11 11v57q0 11 11 11h17q11 0 11 -11v-57q0 -11 11 -11h57zM33 -33q-15 11 -24 27q-9 17 -9 38q0 20 11 41
q10 19 30 34q18 14 45 22q29 9 47 11q13 2 35 4q11 0 5 10q-13 19 -13 36v8q0 2 2 6q1 1 1.5 3t0.5 3v1q1 1 1 2q-4 2 -9 3q-2 0 -6 -0.5t-5 -0.5q-46 0 -79 30q-32 29 -32 76q0 42 29 77t72 44q29 6 57 6h123q12 0 2 -6l-22 -13q-8 -5 -21 -5h-19q-11 0 -2 -7
q16 -13 25 -32q12 -25 12 -52q0 -22 -8 -41t-17 -28q-2 -2 -6 -6.5t-7.5 -7.5t-6.5 -6q-4 -3 -17 -19q-7 -8 -7 -21q0 -7 5 -15q3 -5 13 -15q7 -8 18 -15q1 -1 20 -17q10 -8 18 -20q9 -13 13 -26q5 -17 5 -33q0 -50 -43 -87q-46 -40 -129 -40q-19 0 -37 3q-21 4 -38 10
q-16 6 -33 18zM146 242q14 -8 30 -8q22 0 35 10q8 7 14 18q8 18 8 40q0 16 -5 39q-3 14 -15 40q-9 20 -26 32q-18 13 -37 13q-28 0 -44 -22t-16 -50q0 -9 4 -31q2 -13 11 -32q8 -17 17 -29t24 -20zM65 79q-8 -13 -8 -33t11 -37q11 -18 28 -26q19 -10 38 -14q22 -5 39 -5
q19 0 34 4t31 12q13 7 23 23q9 15 9 34q0 4 -2 12t-3 11q-3 8 -5 11q-1 2 -3.5 4.5t-3.5 4.5q-4 6 -8 9q-2 1 -3.5 2.5t-2.5 3t-2 2.5q-5 5 -10 8q-3 2 -6 4.5t-4 2.5t-4 2.5t-6 4.5q-2 1 -4 3q-6 4 -13 4h-8q-10 0 -32 -2q-15 -1 -33 -8q-22 -8 -31 -14q-12 -8 -21 -23z
" />
    <glyph glyph-name="uniE01F" unicode="&#xe01f;" 
d="M239 238q0 -12 -8.5 -20.5t-20.5 -8.5h-181q-12 0 -20.5 8.5t-8.5 20.5v180q0 12 8.5 20.5t20.5 8.5h181q12 0 20.5 -8.5t8.5 -20.5v-180zM239 -34q0 -13 -8.5 -21.5t-21.5 -8.5h-179q-13 0 -21.5 8.5t-8.5 21.5v179q0 13 8.5 21.5t21.5 8.5h179q13 0 21.5 -8.5
t8.5 -21.5v-179zM512 238q0 -12 -8.5 -20.5t-20.5 -8.5h-181q-12 0 -20.5 8.5t-8.5 20.5v181q0 12 8.5 20.5t20.5 8.5h181q12 0 20.5 -8.5t8.5 -20.5v-181zM511 -34q0 -12 -8.5 -20.5t-20.5 -8.5h-179q-12 0 -20.5 8.5t-8.5 20.5v179q0 12 8.5 20.5t20.5 8.5h179
q12 0 20.5 -8.5t8.5 -20.5v-179z" />
    <glyph glyph-name="uniE020" unicode="&#xe020;" horiz-adv-x="473" 
d="M433 390q40 -40 40 -98q0 -50 -35 -91q0 -1 -0.5 -1t-0.5 -1l-187 -239q-5 -7 -13 -7q-9 0 -14 7l-187 239q0 1 -0.5 1t-0.5 1q-35 41 -35 91q0 57 41 98t98 41q31 0 63 -16q22 -12 35 -25q15 15 34 25q32 16 63 16q58 0 99 -41z" />
    <glyph glyph-name="uniE021" unicode="&#xe021;" horiz-adv-x="473" 
d="M237 -47q-9 0 -14 7l-187 239q0 1 -0.5 1t-0.5 1q-35 41 -35 91q0 57 41 98t98 41q31 0 63 -16q22 -12 35 -25q15 15 34 25q32 16 63 16q58 0 99 -41q40 -40 40 -98q0 -50 -35 -91q0 -1 -0.5 -1t-0.5 -1l-187 -239q-5 -7 -13 -7zM65 217l172 -219l171 219q1 1 3 4
q28 31 28 71q0 43 -31 74t-74 31q-24 0 -47 -12q-21 -11 -37 -31q-5 -7 -13 -7q-9 0 -14 7q-16 21 -36 31q-23 12 -48 12q-43 0 -74 -31t-31 -74q0 -40 28 -71q1 -1 3 -4z" />
    <glyph glyph-name="uniE022" unicode="&#xe022;" horiz-adv-x="228" 
d="M20 320q-2 -1 -5 -1q-15 0 -15 14q0 8 7 15q15 16 36 25q30 13 66 13q61 0 90 -24t29 -64q0 -16 -10 -33.5t-19.5 -28t-27.5 -26.5q-18 -17 -27.5 -27.5t-17.5 -27.5t-8 -36v-20q0 -16 -18 -16q-16 0 -16 16v23q0 54 52 98q57 48 57 78q0 57 -88 57q-48 0 -77 -29
q-5 -5 -8 -6zM101 45q10 0 17 -7t7 -17t-7 -17t-17 -7t-17 7t-7 17t7 17t17 7z" />
    <glyph glyph-name="uniE023" unicode="&#xe023;" horiz-adv-x="43" 
d="M22 344q9 0 15 -6.5t6 -15.5t-6 -15t-15 -6t-15.5 6t-6.5 15t6.5 15.5t15.5 6.5zM22 -4q-17 0 -17 17v222q0 17 17 17t17 -17v-222q0 -17 -17 -17z" />
    <glyph glyph-name="uniE024" unicode="&#xe024;" horiz-adv-x="511" 
d="M239 238q0 -12 -8.5 -20.5t-20.5 -8.5h-181q-12 0 -20.5 8.5t-8.5 20.5v180q0 12 8.5 20.5t20.5 8.5h181q12 0 20.5 -8.5t8.5 -20.5v-180zM239 -34q0 -13 -8.5 -21.5t-21.5 -8.5h-179q-13 0 -21.5 8.5t-8.5 21.5v179q0 13 8.5 21.5t21.5 8.5h179q13 0 21.5 -8.5
t8.5 -21.5v-179zM494 345h-204q-7 0 -12 5t-5 12t5 12t12 5h204q7 0 12 -5t5 -12t-5 -12t-12 -5zM494 277h-204q-7 0 -12 5t-5 12t5 12t12 5h204q7 0 12 -5t5 -12t-5 -12t-12 -5zM494 72h-204q-7 0 -12 5t-5 12t5 12t12 5h204q7 0 12 -5t5 -12t-5 -12t-12 -5zM494 4h-204
q-7 0 -12 5t-5 12t5 12t12 5h204q7 0 12 -5t5 -12t-5 -12t-12 -5z" />
    <glyph glyph-name="uniE025" unicode="&#xe025;" horiz-adv-x="307" 
d="M290 175h-273q-7 0 -12 5t-5 12t5 12t12 5h273q7 0 12 -5t5 -12t-5 -12t-12 -5z" />
    <glyph glyph-name="uniE026" unicode="&#xe026;" horiz-adv-x="511" 
d="M494 175h-477q-7 0 -12 5t-5 12t5 12t12 5h477q7 0 12 -5t5 -12t-5 -12t-12 -5z" />
    <glyph glyph-name="uniE027" unicode="&#xe027;" horiz-adv-x="375" 
d="M368 206q7 -4 7 -14t-7 -14l-341 -239q-5 -3 -10 -3q-4 0 -8 2q-9 4 -9 15v478q0 11 9 15q10 5 18 -1z" />
    <glyph glyph-name="uniE028" unicode="&#xe028;" horiz-adv-x="375" 
d="M17 -64q-4 0 -8 2q-9 4 -9 15v478q0 11 9 15q10 5 18 -1l341 -239q7 -4 7 -14t-7 -14l-341 -239q-5 -3 -10 -3zM34 398v-412l295 206z" />
    <glyph glyph-name="uniE029" unicode="&#xe029;" horiz-adv-x="307" 
d="M290 209q7 0 12 -5t5 -12t-5 -12t-12 -5h-119v-120q0 -7 -5 -12t-12 -5t-12 5t-5 12v120h-120q-7 0 -12 5t-5 12t5 12t12 5h120v120q0 7 5 12t12 5t12 -5t5 -12v-120h119z" />
    <glyph glyph-name="uniE02A" unicode="&#xe02a;" horiz-adv-x="511" 
d="M494 209q7 0 12 -5t5 -12t-5 -12t-12 -5h-221v-221q0 -7 -5.5 -12t-12.5 -5t-12 5t-5 12v221h-221q-7 0 -12 5t-5 12t5 12t12 5h221v221q0 7 5 12t12 5t12.5 -5t5.5 -12v-221h221z" />
    <glyph glyph-name="uniE02B" unicode="&#xe02b;" 
d="M507 289q5 -5 5 -12v-204q0 -7 -5 -12.5t-12 -5.5h-51v-85q0 -7 -5 -12t-12 -5h-342q-7 0 -12 5t-5 12v85h-51q-7 0 -12 5.5t-5 12.5v204q0 7 5 12t12 5h85v120q0 7 5 12t12 5h274q7 0 12 -5t5 -12v-120h85q7 0 12 -5zM137 397v-103h238v103h-238zM410 -13v86v85h-308
v-85v-86h308z" />
    <glyph glyph-name="uniE02C" unicode="&#xe02c;" horiz-adv-x="205" 
d="M0 192q0 102 102 102q103 0 103 -102t-103 -102q-102 0 -102 102z" />
    <glyph glyph-name="uniE02D" unicode="&#xe02d;" 
d="M0 192q0 256 256 256t256 -256t-256 -256t-256 256z" />
    <glyph glyph-name="uniE02E" unicode="&#xe02e;" horiz-adv-x="307" 
d="M150 10zM290 -47q-8 0 -13 7l-40 41l-30 -41q-5 -7 -14 -7t-14 7l-29 39l-29 -39q-5 -7 -13 -7q-9 0 -14 7l-30 40l-34 -41q-8 -8 -19 -5t-11 16v444q0 7 5 12t12 5h273q7 0 12 -5t5 -12v-444v0q0 -7 -5 -12t-12 -5zM150 44q9 0 14 -7l29 -38l29 38q5 7 13 7q9 0 13 -5
l25 -26v384h-239v-380l18 21q4 6 14 6q8 0 13 -6l29 -39l29 39q5 6 13 6zM222 226h-137q-7 0 -12 5t-5 12t5 12t12 5h137q7 0 12 -5t5 -12t-5 -12t-12 -5zM222 294h-137q-7 0 -12 5t-5 12t5 12t12 5h137q7 0 12 -5t5 -12t-5 -12t-12 -5zM154 157h-69q-7 0 -12 5t-5 12t5 12
t12 5h69q7 0 12 -5t5 -12t-5 -12t-12 -5z" />
    <glyph glyph-name="uniE02F" unicode="&#xe02f;" 
d="M507 205q12 -12 0 -24l-53 -53q-5 -5 -12 -5t-12 5l-53 53q-12 12 0 24t24 0l23 -24q0 2 0.5 5.5t0.5 5.5q0 22 -4 39q-4 18 -12 37q-7 18 -18 33q-14 20 -23 29q-12 12 -29 24q-14 9 -34 18q-14 6 -36 11q-39 8 -79 0q-24 -5 -37 -11q-18 -8 -33 -18q-17 -12 -29 -24
t-24 -29q-11 -15 -18 -33q-6 -13 -11 -37q-4 -17 -4 -39t4 -39q5 -24 11 -37q7 -18 18 -33q12 -17 24 -29t29 -24q15 -10 33 -18q13 -6 37 -11q40 -8 79 0q22 5 36 11q20 9 34 18t23 -5q9 -15 -4 -23q-18 -12 -39 -21q-24 -10 -43 -14q-20 -4 -47 -4q-26 0 -46 4
q-19 4 -43 14q-21 9 -39 21t-34 28t-28 34t-21 39q-8 19 -13 43q-5 25 -5 46t5 46q5 24 13 43q9 21 21 39t28 34t34 28t39 21q24 10 43 14q47 9 93 0q19 -4 43 -14q21 -9 39 -21t34 -28t28 -34t21 -39q8 -19 13 -43q5 -25 5 -46v-11l24 24q12 12 24 0z" />
    <glyph glyph-name="uniE030" unicode="&#xe030;" horiz-adv-x="256" 
d="M102 73q-7 0 -12 5t-5 12q0 28 -19.5 48t-48.5 20q-7 0 -12 5t-5 12t5 12t12 5q42 0 72 -30t30 -72q0 -7 -5 -12t-12 -5zM171 73q-7 0 -12 5t-5 12q0 56 -40 96t-97 40q-7 0 -12 5t-5 12t5 12t12 5q37 0 67 -13q31 -14 54 -37q21 -21 36 -54q14 -33 14 -66q0 -7 -5 -12
t-12 -5zM239 73q-7 0 -12 5t-5 12q0 43 -16 79q-15 36 -44 65t-65 44q-36 16 -80 16q-7 0 -12 5t-5 12t5 12.5t12 5.5q47 0 93 -19q44 -19 76 -51t51 -76q19 -46 19 -93q0 -7 -5 -12t-12 -5zM0 98q0 26 26 26q25 0 25 -26q0 -25 -25 -25q-26 0 -26 25z" />
    <glyph glyph-name="uniE031" unicode="&#xe031;" 
d="M512 448v-34h-102q-7 0 -12 5t-5 12t5 12t12 5h102zM341 448q7 0 12 -5t5 -12t-5 -12t-12 -5h-102q-7 0 -12 5t-5 12t5 12t12 5h102zM171 448q7 0 12 -5t5 -12t-5 -12t-12 -5h-103q-7 0 -12 5t-5 12t5 12t12 5h103zM34 448v-102q0 -7 -5 -12t-12 -5t-12 5t-5 12v102h34z
M17 294q7 0 12 -5t5 -12v-102q0 -7 -5 -12t-12 -5t-12 5t-5 12v102q0 7 5 12t12 5zM17 124q7 0 12 -5t5 -12v-103q0 -7 -5 -12t-12 -5t-12 5t-5 12v103q0 7 5 12t12 5zM102 -30q7 0 12 -5t5 -12t-5 -12t-12 -5h-102v34h102zM273 -30q7 0 12 -5t5 -12t-5 -12t-12 -5h-102
q-7 0 -12 5t-5 12t5 12t12 5h102zM444 -30q7 0 12 -5t5 -12t-5 -12t-12 -5h-103q-7 0 -12 5t-5 12t5 12t12 5h103zM495 55q7 0 12 -5t5 -12v-102h-34v102q0 7 5 12t12 5zM495 226q7 0 12 -5t5 -12v-102q0 -7 -5 -12t-12 -5t-12 5t-5 12v102q0 7 5 12t12 5zM495 397
q7 0 12 -5t5 -12v-103q0 -7 -5 -12t-12 -5t-12 5t-5 12v103q0 7 5 12t12 5z" />
    <glyph glyph-name="uniE032" unicode="&#xe032;" 
d="M507 383q5 -5 5 -12v-418q0 -7 -5 -12t-12 -5h-85h-35h-238h-35h-85q-7 0 -12 5t-5 12v478q0 7 5 12t12 5h85h35h238h35h25q7 0 12 -5zM375 414h-238v-103h238v103zM137 -30h238v171h-238v-171zM478 -30v394l-50 50h-18v-120q0 -7 -5 -12t-12 -5h-274q-7 0 -12 5t-5 12
v120h-68v-444h68v188q0 7 5 12t12 5h274q7 0 12 -5t5 -12v-188h68z" />
    <glyph glyph-name="uniE033" unicode="&#xe033;" horiz-adv-x="510" 
d="M505 -35q12 -12 0 -24q-5 -5 -12 -5t-12 5l-174 175q-23 -18 -47 -28q-34 -15 -73 -15t-73 15q-32 13 -59 40q-26 26 -40 60q-15 34 -15 73t15 73q13 32 40 59t59 40q35 15 73 15q39 0 73 -15q34 -14 60 -40q27 -27 40 -59q15 -34 15 -73t-15 -73q-11 -27 -29 -48z
M187 107q64 0 109 45t45 109q0 63 -45 108t-109 45q-63 0 -108 -45t-45 -108q0 -64 45 -109t108 -45z" />
    <glyph glyph-name="uniE034" unicode="&#xe034;" horiz-adv-x="300" 
d="M300 97l-150 -156l-150 156h300z" />
    <glyph glyph-name="uniE035" unicode="&#xe035;" horiz-adv-x="300" 
d="M0 290l150 156l150 -156h-300z" />
    <glyph glyph-name="uniE036" unicode="&#xe036;" horiz-adv-x="303" 
d="M303 94l-151 -158l-152 158h303zM0 288l152 158l151 -158h-303z" />
    <glyph glyph-name="uniE037" unicode="&#xe037;" horiz-adv-x="375" 
d="M153 43q-7 0 -11 4l-137 126q-12 10 0 24q11 12 24 1l122 -113l194 250q12 14 24 3q14 -12 3 -24l-205 -265q-5 -6 -12 -6h-2z" />
    <glyph glyph-name="uniE038" unicode="&#xe038;" 
d="M208 -10q-8 0 -12 4l-191 177q-12 10 0 24q11 12 24 1l177 -164l275 356q12 14 24 3q14 -12 3 -24l-287 -371q-5 -6 -12 -6h-1z" />
    <glyph glyph-name="uniE039" unicode="&#xe039;" horiz-adv-x="509" 
d="M492 38q7 0 12 -5t5 -12t-5 -12t-12 -5h-49v-50q0 -7 -5 -12t-12 -5t-12 5t-5 12v50h-308v-50q0 -7 -5 -12t-12 -5t-12 5t-5 12v50h-50q-7 0 -12 5t-5 12t5 12t12 5h50v308h-50q-7 0 -12 5t-5 12t5 12t12 5h50v49q0 7 5 12t12 5t12 -5t5 -12v-49h308v49q0 7 5 12t12 5
t12 -5t5 -12v-49h49q7 0 12 -5t5 -12t-5 -12t-12 -5h-49v-308h49zM101 38h308v308h-308v-308z" />
    <glyph glyph-name="uniE03A" unicode="&#xe03a;" horiz-adv-x="381" 
d="M317 64q27 0 46 -19q18 -18 18 -45q0 -28 -18 -45q-19 -19 -45 -19h-127q-79 0 -135 56t-56 135v257q0 27 19 46q18 18 45 18t45 -19q19 -21 19 -45v-93h180q25 0 42 -17t17 -42t-17 -42q-18 -18 -42 -18h-180v-45q0 -26 18 -44q19 -19 45 -19h126z" />
    <glyph glyph-name="uniE03B" unicode="&#xe03b;" 
d="M512 351q-22 -33 -53 -55l1 -13q0 -72 -33.5 -139t-103.5 -113.5t-162 -46.5q-89 0 -161 47q8 -1 25 -1q73 0 131 45q-34 1 -61.5 21t-37.5 52q12 -2 20 -2q15 0 28 3q-36 8 -60 36.5t-24 66.5v2q20 -11 47 -13q-47 32 -47 87q0 28 15 53q84 -104 216 -110q-3 12 -3 24
q0 43 30.5 74t74.5 31q46 0 77 -33q39 8 67 25q-13 -38 -46 -58q30 4 60 17z" />
    <glyph glyph-name="uniE03C" unicode="&#xe03c;" horiz-adv-x="393" 
d="M209 375l139 -140q12 -12 0 -24q-5 -5 -12 -5t-12 5l-110 110v-368q0 -7 -5 -12t-12 -5t-12.5 5t-5.5 12v368l-110 -110q-12 -12 -24 0t0 24l139 140q12 13 25 0zM375 448q7 0 12.5 -5t5.5 -12t-5.5 -12t-12.5 -5h-358q-7 0 -12 5t-5 12t5 12t12 5h358z" />
    <glyph glyph-name="uniE03D" unicode="&#xe03d;" 
d="M256 312q-62 0 -132 -44q-48 -31 -89 -76q39 -43 89 -75q70 -44 132 -44t132 44q50 32 89 75q-41 45 -89 76q-70 44 -132 44zM256 346q125 0 247 -131q9 -10 9 -22.5t-9 -22.5q-122 -131 -247 -131t-247 131q-9 10 -9 22.5t9 22.5q122 131 247 131zM256 107q-35 0 -60 25
t-25 60t25 60.5t60 25.5t60 -25.5t25 -60.5t-25 -60t-60 -25zM256 243q-21 0 -36 -15t-15 -36t15 -36t36 -15t36 15t15 36t-15 36t-36 15z" />
    <glyph glyph-name="uniE03E" unicode="&#xe03e;" horiz-adv-x="510" 
d="M256 277q7 0 12 -5t5 -12t-5 -12t-12 -5h-52v-50q0 -7 -5 -12.5t-12 -5.5t-12 5.5t-5 12.5v50h-51q-7 0 -12 5t-5 12t5 12t12 5h51v52q0 7 5 12t12 5t12 -5t5 -12v-52h52zM505 -35q12 -12 0 -24q-5 -5 -12 -5t-12 5l-174 175q-23 -18 -47 -28q-34 -15 -73 -15t-73 15
q-32 13 -59 40q-26 26 -40 60q-15 34 -15 73t15 73q13 32 40 59t59 40q35 15 73 15q39 0 73 -15q34 -14 60 -40q27 -27 40 -59q15 -34 15 -73t-15 -73q-11 -27 -29 -48zM187 107q64 0 109 45t45 109q0 63 -45 108t-109 45q-63 0 -108 -45t-45 -108q0 -64 45 -109t108 -45z
" />
    <glyph glyph-name="uniE03F" unicode="&#xe03f;" horiz-adv-x="510" 
d="M256 277q7 0 12 -5t5 -12t-5 -12t-12 -5h-137q-7 0 -12 5t-5 12t5 12t12 5h137zM505 -35q12 -12 0 -24q-5 -5 -12 -5t-12 5l-174 175q-23 -18 -47 -28q-34 -15 -73 -15t-73 15q-32 13 -59 40q-26 26 -40 60q-15 34 -15 73t15 73q13 32 40 59t59 40q35 15 73 15
q39 0 73 -15q34 -14 60 -40q27 -27 40 -59q15 -34 15 -73t-15 -73q-11 -27 -29 -48zM187 107q64 0 109 45t45 109q0 63 -45 108t-109 45q-63 0 -108 -45t-45 -108q0 -64 45 -109t108 -45z" />
  </font>
</defs>
</svg>
