<?xml version="1.0" encoding="UTF-8"?><!DOCTYPE svg PUBLIC "-//W3C//DTD SVG 1.1 Tiny//EN" "http://www.w3.org/Graphics/SVG/1.1/DTD/svg11-tiny.dtd"><svg baseProfile="tiny" xmlns="http://www.w3.org/2000/svg" width="645" height="18" preserveAspectRatio="xMaxYMax meet" viewBox="0 0 645 18"><g id="card-amex" transform="translate(0,0)"><path fill="#00BEE4" d="M28 .7v16.5c0 .4-.3.7-.8.7H.8c-.5.1-.8-.2-.8-.6V.7C0 .3.3 0 .8 0h26.5c.4 0 .7.3.7.7z"/><path d="M2.5 6.5L2 5.2l-.6 1.3m13-.5H13v-.7h1c.1 0 .3 0 .4.1.1 0 .2.1.2.3 0 .1-.1.2-.2.3zm6.8.5l-.5-1.3-.5 1.3h1zM8.5 7.9h-.8V5.4L6.5 7.9h-.6L4.7 5.4v2.5H3.1l-.3-.8H1.2l-.3.8H0l1.4-3.2h1.2l1.3 3v-3h1.3l1 2.2.9-2.2h1.3l.1 3.2zm3.2 0H9.1V4.7h2.6v.7H9.9V6h1.8v.7H9.9v.6h1.8v.6zm3.7-2.4c0 .5-.4.8-.6.8.2.1.3.2.4.3.1.2.1.3.1.6v.6h-.8v-.4c0-.2 0-.5-.1-.6-.1-.1-.3-.1-.6-.1H13v1.2h-.8V4.7H14c.4 0 .7 0 1 .2.3.1.4.3.4.6zm1.3 2.4h-.8V4.7h.8v3.2zm9.3 0h-1.1l-1.5-2.4v2.4h-1.6l-.3-.7h-1.6l-.3.7h-.9c-.4 0-.9-.1-1.1-.4-.3-.3-.4-.6-.4-1.2 0-.5.1-.9.4-1.2.3-.3.7-.4 1.2-.4h.8v.7h-.7c-.3 0-.4 0-.6.2-.1.1-.2.4-.2.7 0 .3.1.6.2.7.1.1.3.2.5.2h.2l1.1-2.5h1.2l1.3 3v-3h1.2l1.4 2.2V4.7h.8v3.2zM0 8.5h1.3l.3-.7h.7l.3.7h2.6v-.6l.2.5h1.4l.2-.5v.5h6.6V7.2h.1c.1 0 .1 0 .1.2v1h3.4v-.2c.3.1.7.3 1.3.3H20l.3-.7h.7l.3.7h2.8v-.7l.4.7h2.2V4.1h-2.2v.5l-.3-.5H22v.5l-.3-.5h-3c-.5 0-1 .1-1.3.3v-.3h-2.1v.3c-.2-.2-.5-.3-.9-.3H6.7l-.5 1.1-.5-1.1H3.3v.5L3 4.1H1L0 6.2v2.3zm28 2.3h-1.4c-.1 0-.2 0-.3.1-.1.1-.1.1-.1.2s.1.2.2.2h.7c.4 0 .7.1.9.3l.1.1m-.1 1.2c-.2.3-.6.4-1.1.4h-1.5v-.7h1.5c.2 0 .3 0 .3-.1.1 0 .1-.1.1-.2s0-.2-.1-.2-.1-.1-.3-.1c-.7 0-1.7 0-1.7-1 0-.5.3-.9 1.1-.9H28v-.6h-1.5c-.4 0-.8.1-1 .3v-.3h-2.2c-.3 0-.7.1-.9.3v-.3h-3.8v.3c-.3-.2-.8-.3-1.1-.3H15v.3c-.2-.2-.8-.3-1.1-.3h-2.8l-.6.7-.7-.7H5.6v4.4h4.2l.7-.7.6.7h2.6v-1h.3c.3 0 .7 0 1.1-.2v1.2h2.1v-1.2h.1c.1 0 .1 0 .1.1v1h6.4c.4 0 .8-.1 1.1-.3v.3h2c.4 0 .8-.1 1.2-.2v-.7H28zm-3.1-1.3c.2.2.2.3.2.7 0 .7-.4 1-1.2 1h-1.5v-.7h1.5c.1 0 .3 0 .3-.1.1 0 .1-.1.1-.2s0-.2-.1-.2-.1-.1-.3-.1c-.7 0-1.7 0-1.7-1 0-.5.3-.9 1.1-.9h1.6v.7h-1.4c-.1 0-.2 0-.3.1-.1.1-.1.1-.1.2s.1.2.2.2h.7c.4.1.7.2.9.3zm-7.1-.1c-.1.1-.2.1-.4.1h-1v-.7h1c.1 0 .3 0 .4.1.1.1.2.1.2.3-.1 0-.1.1-.2.2zm.4.3c.2.1.3.2.4.3.1.2.1.3.1.6v.6H18v-.4c0-.2 0-.5-.1-.6-.1-.1-.3-.1-.6-.1h-.8v1.2h-.8v-3.2h1.8c.4 0 .7 0 .9.1.2.1.4.3.4.7 0 .5-.4.8-.6.8zm1-1.7h2.6v.7H20v.6h1.8v.6H20v.6h1.8v.7h-2.6v-3.2zm-5.3 1.5h-1v-.8h1c.3 0 .5.1.5.4 0 .3-.2.4-.5.4zM12.1 13l-1.2-1.3 1.2-1.3V13zM9 12.7H7.1V12h1.7v-.6H7.1v-.6h2l.9.9-1 1zm6.3-1.5c0 .9-.7 1.1-1.4 1.1h-1v1.1h-1.5l-1-1.1-1 1.1H6.3v-3.2h3.2l1 1 1-1H14c.6-.1 1.3.1 1.3 1z" fill="#fff"/><path d="M17.8 10.9c-.1-.1-.2-.1-.4-.1h-1v.7h1c.2 0 .3 0 .4-.1.1-.1.2-.2.2-.3-.1-.1-.1-.2-.2-.2zm-3.4-5.5c-.1-.1-.2-.1-.4-.1h-1V6h1c.2 0 .3 0 .4-.1.1-.1.2-.2.2-.3-.1-.1-.1-.2-.2-.2zm-.5 5.4h-1v.8h1c.3 0 .5-.1.5-.4 0-.3-.2-.4-.5-.4zM12.1 13v-2.5l-1.2 1.2zm-5-2.2v.6h1.7v.6H7.1v.7H9l.9-1-.9-.9zm13.6-5.6l-.6 1.3h1.1z" fill="none"/><path fill="#00BEE4" d="M7.7 5.4v2.5h.8V4.7H7.2l-1 2.1-1-2.2H3.9v3l-1.3-3H1.4L0 7.9h.9l.3-.7h1.6l.3.7h1.6V5.4l1.1 2.5h.7l1.2-2.5zM1.4 6.5L2 5.2l.5 1.3H1.4zm10.3.7H9.9v-.6h1.8v-.7H9.9v-.6h1.8v-.6H9.1v3.2h2.6zm6.9.7h.9l.3-.7h1.6l.3.7h1.6V5.5l1.5 2.4H26V4.7h-.8v2.2l-1.4-2.2h-1.2v3l-1.3-3h-1.2L19 7.2h-.4c-.2 0-.4 0-.5-.2-.1-.2-.2-.4-.2-.7 0-.3.1-.6.2-.7.2-.1.3-.2.6-.2h.7v-.7h-.8c-.5 0-.9.1-1.2.4-.3.3-.4.8-.4 1.2 0 .6.1.9.4 1.2.4.3.8.4 1.2.4zm2.1-2.7l.5 1.3h-1.1l.6-1.3zm-4.8-.5h.8v3.2h-.8zm-.5.8c0-.4-.1-.6-.4-.7-.3-.1-.6-.2-1-.2h-1.8v3.2h.8V6.7h.8c.3 0 .5 0 .6.1.1.2.1.4.1.6v.4h.8v-.6c0-.3 0-.4-.1-.6-.1-.1-.2-.2-.4-.3.3 0 .6-.3.6-.8zm-1 .5H13v-.7h1c.1 0 .3 0 .4.1.1 0 .2.1.2.3l-.2.3zm-.5 4.1h-2.5l-1 1-1-1H6.3v3.2h3.1l1-1.1 1 1.1h1.5v-1.1h1c.7 0 1.4-.2 1.4-1.1-.1-.8-.8-1-1.4-1zM9 12.7H7.1V12h1.7v-.6H7.1v-.6h2l.9.9-1 1zm3.1.3l-1.2-1.3 1.2-1.3V13zm1.8-1.4h-1v-.8h1c.3 0 .5.1.5.4 0 .3-.2.4-.5.4zm10.1-.2h-.7c-.1 0-.2-.1-.2-.2s0-.2.1-.2c.1-.1.2-.1.3-.1h1.4v-.7h-1.6c-.8 0-1.1.5-1.1.9 0 1 .9 1 1.7 1 .1 0 .2 0 .3.1.1 0 .1.1.1.2s0 .2-.1.2c-.1.1-.2.1-.3.1h-1.5v.7h1.5c.8 0 1.2-.3 1.2-1 0-.3-.1-.5-.2-.7-.2-.2-.5-.3-.9-.3zm-4.8 1.9h2.7v-.6H20V12h1.8v-.6H20v-.6h1.9v-.7h-2.7zm-.4-2.3c0-.4-.2-.6-.4-.7-.3-.1-.5-.1-.9-.1h-1.8v3.2h.8v-1.2h.8c.3 0 .5 0 .6.1.1.1.1.4.1.6v.4h.8v-.6c0-.3 0-.4-.1-.6-.1-.1-.2-.2-.4-.3.1 0 .5-.3.5-.8zm-1 .4c-.1.1-.2.1-.4.1h-1v-.7h1c.1 0 .3 0 .4.1.1.1.2.1.2.3-.1.1-.1.2-.2.2zm8.8-.6H28v-.7h-1.6c-.8 0-1.1.5-1.1.9 0 1 .9 1 1.7 1 .1 0 .2 0 .3.1.1 0 .1.1.1.2s0 .2-.1.2c-.1.1-.2.1-.3.1h-1.5v.7H27c.5 0 .9-.1 1.1-.4v-1.2s0-.1-.1-.1c-.2-.2-.5-.2-.9-.3h-.7c-.1 0-.2-.1-.2-.2s0-.2.1-.2c0-.1.1-.1.3-.1z"/></g><g id="card-giropay" transform="translate(35,0)"><path fill="#233F80" d="M27.2 0H.8C.3 0 0 .3 0 .7v16.5c0 .5.3.8.8.8h26.5c.4 0 .8-.3.8-.7V.7c-.1-.4-.4-.7-.9-.7zM14.5 2.1v14.7H2.1c-.6 0-1.1-.5-1.1-1V2.1c0-.6.5-1 1.1-1h12.4v1zm4.2 7.6c-.2.4-.5.6-.9.7h-.3c-.3 0-.5-.1-.7-.2-.1-.1-.2-.2-.3-.2v1.5h-1v-4h1V8l.1-.1.3-.3c.1 0 .1 0 .2-.1l.3-.1h.5c.3.1.5.2.7.4l.3.6.1.3c0 .2 0 .5-.1.7-.2.2-.2.3-.2.3zm3.6.7h-.9V10c0 .1-.1.1-.1.1l-.3.3c-.1.1-.3.1-.4.1-.2 0-.5 0-.7-.1-.3-.1-.5-.4-.6-.7v-.3c0-.1 0-.2.1-.2.1-.2.3-.4.5-.5.2-.1.4-.1.7-.1h.7v-.1c0-.1 0-.2-.1-.3-.1-.1-.2-.1-.4-.1h-.3c-.3 0-.5.1-.8.2v-.7h.2c.2-.1.4-.1.6-.1h.6c.1 0 .2 0 .3.1l.3.1c.2.1.3.2.4.3l.2.4v2zm3.6-2.5l-1.1 2.7c-.1.2-.2.4-.4.6-.1.2-.3.3-.5.3l-.2.1h-.9v-.7h.6c.1 0 .2-.1.2-.1.1-.1.1-.1.1-.2v-.1c-.2-.4-.4-.9-.5-1.3-.2-.5-.4-1-.6-1.4v-.1h1.1l.3.9.2.5.2.5c.2-.6.4-1.2.6-1.9h1.1c-.1-.1-.2 0-.2.2zm-10.4.9v.7-.7zm.9-.8v-.5.5zm1.3 2.4c.4-.1.7-.3.9-.7 0-.1.1-.2.1-.2 0 .1 0 .2-.1.2-.1.4-.4.6-.9.7zm-1.2-.4c.1.1.2.2.3.2.2.2.5.2.7.2-.3 0-.5-.1-.7-.2-.1 0-.2-.1-.3-.2zm.5-2.5c-.1 0-.1 0-.2.1l-.3.3.3-.3.2-.1zm1.5.4l.3.6c-.1-.3-.1-.5-.3-.6-.2-.2-.4-.4-.7-.4h-.5.5c.3 0 .5.1.7.4zm-2 3.6h-.7.7zm-1-2.7v-.9.9zm0-1.3v.4-.4zm7.1 0zm3.1 0h.3-.3zm-.9 3.1l1.1-2.7c0-.2.1-.3.1-.4l-.2.4-1 2.7zm-2 .9v-.6.6l.5.1c-.1 0-.3 0-.5-.1zm1.1 0c.2-.1.4-.2.5-.3.2-.2.3-.4.4-.6-.1.2-.2.4-.4.6-.1.2-.3.3-.5.3zm-.7-.7zm1.2-1.5l-.2-.5c.1.2.1.4.2.5zm-3.1-.8zm-1.5-.9h-.1V8v-.4h.1zm-.1.7c.3-.1.6-.2.8-.2-.3 0-.5 0-.8.2zm1.4-.9h-.6.6zm1 .5c-.1-.1-.2-.2-.4-.3-.1-.1-.2-.1-.3-.1l.3.1c.2.1.3.2.4.3zm-1.6 2.5c.2 0 .3 0 .4-.1-.1.1-.2.1-.4.1zM22.3 9v-.6.6zm-.1 1.4h-.3.3zm-2.3-1.7c.2-.1.4-.1.7-.1-.3-.1-.5 0-.7.1-.2.1-.4.2-.5.5.1-.3.2-.4.5-.5zm-.5.4l-.1.2v.3-.3s0-.1.1-.2z"/><path fill="#fff" d="M1.7 4.2c.1-.1.3-.2.5-.2-.2 0-.4.1-.5.2zm.6 9.7c-.2 0-.4 0-.5-.1.1.1.3.1.5.1zm0-9.9zm4 0h8.2v9.9H7.8h6.7V4H6.3zM1 5.2c0-.5.2-.9.7-1.1-.5.3-.7.7-.7 1.1v7.7-7.7zm5.8 1.1h-.3V7v-.7h.3zm-4.5 7.6h5.4-5.4zM1 13c.1.3.2.5.4.7-.2-.2-.3-.4-.4-.7zm1.3-9h4-4zm11.1-2.9H2.1c-.6 0-1.1.5-1.1 1v13.7c0 .6.5 1 1.1 1h12.4V1.1h-1.1zm.4 8.4c-.2.4-.4.6-.8.8-.3.1-.5.1-.8.1-.3 0-.6 0-.9-.2-.5-.2-.8-.6-.9-1.1 0-.2 0-.5.1-.7.2-.4.5-.7.9-.9.3-.1.6-.2 1-.1l.6.1c.6.2.9.7.9 1.3 0 .3 0 .5-.1.7zM9.2 7.9c.1-.1.1-.2.2-.2.2-.2.5-.3.8-.3h.3v.8H10c-.2 0-.3.2-.4.3-.3.3-.4.4-.4.6v1.2h-1V7.5h.9c.1.2.1.3.1.4zm-6.5.2c.2-.4.5-.6.9-.6h.5c.3.1.5.2.7.5 0 0 0 .1.1.1v-.6h.9v2.6c0 .2 0 .3-.1.5-.1.5-.4.8-.9.9-.3.1-.7.1-1 .1l-.9-.1h-.1c0-.3 0-.5.1-.8.1 0 .2.1.4.1.3.1.6.1 1 .1.4-.1.6-.3.6-.7v-.3s0 .1-.1.1c-.2.2-.5.4-.8.4h-.5c-.4-.2-.7-.4-.9-.8-.1-.3-.1-.6-.1-.9 0-.2.1-.4.2-.6zm4.8 2.2h-1V7.4h1v2.9zM6.5 7v-.7h1V7h-1zm10 4.5V10v1.5zm-1-.2v.2h.3-.3v-.2zm1-3.4s0 .1-.1.1l.1-.1zm.5-.4l.3-.1-.3.1zm.7 2.9h-.3.3zm1.1-1.9l.1.3c0 .2 0 .5-.1.7.1-.2.1-.5.1-.7-.1-.1-.1-.2-.1-.3zm0 0c-.1-.2-.1-.4-.3-.6-.2-.2-.4-.4-.7-.4h-.5l-.3.1c-.1 0-.1 0-.2.1l-.3.3s0 .1-.1.1v-.5h-1v4h1v-1.5c.1.1.2.2.3.2.2.2.5.2.7.2h.3c.4-.1.7-.3.9-.7 0-.1.1-.2.1-.2.1-.2.1-.5.1-.7v-.4zm-1.1.7c-.1.2-.2.4-.5.4s-.5-.1-.6-.3c-.2-.3-.2-.7 0-1 .2-.3.7-.3.9 0 .1.1.1.3.1.5.2.2.2.3.1.4zm5.5 1.6h-.3.3zm.6-.5v.1c0 .1-.1.2-.1.2.1-.1.1-.1.1-.2v-.1zm-1.2-2.7c.2.5.4 1 .6 1.4.2.4.4.9.5 1.3-.2-.4-.4-.9-.5-1.3l-.6-1.4zm2.4-.1c-.2.6-.4 1.2-.6 1.9.2-.7.4-1.3.6-1.9zm-1.7 4.1h.4c.1 0 .1 0 .2-.1l-.2.1h-.4zm.9-2.7l-.2-.5-.3-.9.3.9c.1.1.1.3.2.5zm-.6 1.8c-.1.1-.1.1-.2.1h-.2.2c.1 0 .2-.1.2-.1zm2.1-3.2H25c-.2.6-.4 1.2-.6 1.9l-.2-.5-.2-.5-.3-.9h-1.1v.1c.2.5.4 1 .6 1.4.2.4.4.9.5 1.3v.1c0 .1-.1.2-.1.2-.1.1-.1.1-.2.1h-.6v.1c0 .2-.1.5 0 .6h.9c.1 0 .1 0 .2-.1.2-.1.4-.2.5-.3.2-.2.3-.4.4-.6l1.1-2.7s.1-.1.1-.2h-.3zm-3.4 2.2V9v1.4h-.1.1v-.7zm-1-1.1h-.7.5c.1-.1.1-.1.2 0zm.6 1.8h-.4.4zm-.5-.3v-.2.4h.1-.1v-.2zm-2.1-.4c0 .3.2.5.6.7-.4-.2-.6-.4-.6-.7zm1.2-1.6h.3-.3zm.6-.7c.1 0 .2 0 .3.1-.1-.1-.2-.1-.3-.1zm.2 1.1c0-.1 0-.2-.1-.3l.1.3zM19.7 8v.3V8zm.8 2.4c-.2 0-.5 0-.7-.1.3.1.5.1.7.1zm0-3l-.6.1h-.1.1l.6-.1zm1.8 2.9V8.4c0-.2-.1-.3-.2-.4-.1-.1-.2-.2-.4-.3-.1-.1-.2-.1-.3-.1-.1 0-.2 0-.3-.1h-.6l-.6.1h-.2v.7c.3-.1.6-.2.8-.2h.3c.1 0 .2 0 .4.1.1.1.1.2.1.3v.1h-.7l-.7.1c-.2.1-.4.2-.5.5l-.1.2v.3c0 .3.2.5.6.7.2.1.4.1.7.1.2 0 .3 0 .4-.1l.3-.3.1-.1v.4h.8l.1-.1zm-1.5-.6h-.4c-.1 0-.2-.1-.2-.2s0-.2.1-.3l.2-.1h.6c.2.3 0 .6-.3.6z"/><path fill="#E82626" d="M7.5 6.3h-1V7h1v-.7z"/><path fill="#233F80" d="M16.7 8.4c-.2.2-.2.7 0 1 .1.2.3.3.6.3.2 0 .4-.2.5-.4l.1-.3c0-.2 0-.4-.1-.5-.4-.4-.9-.4-1.1-.1zm3.9.7c-.1 0-.2 0-.2.1-.1.1-.2.2-.1.3 0 .1.1.2.2.2h.4c.3-.1.5-.4.5-.6h-.8z"/><path fill="#fff" d="M4.2 8.2c-.2 0-.4.1-.5.3-.2.2-.2.5-.1.8.1.1.2.2.4.3.2.1.5 0 .7-.2.2-.2.2-.5.1-.8-.2-.3-.4-.4-.6-.4z"/><path fill="#E82626" d="M4.9 7.5v.6L4.8 8c-.2-.3-.4-.5-.7-.6h-.5c-.4.1-.7.3-.9.7-.1.2-.2.4-.2.6 0 .3 0 .6.1.9.2.4.4.6.8.7h.5c.3 0 .6-.1.8-.4 0 0 0-.1.1-.1v.3c0 .3-.2.6-.6.7-.3.1-.7 0-1-.1-.1 0-.2-.1-.4-.1 0 .3 0 .5-.1.8h.1c.3.1.6.1.9.1.3 0 .7 0 1-.1.5-.1.8-.4.9-.9l.1-.5V7.4c-.2.1-.5.1-.8.1zm-.3 1.9c-.1.2-.4.2-.6.2-.2-.1-.3-.2-.4-.3-.1-.3-.1-.6 0-.8.1-.2.3-.3.5-.3.3 0 .5.1.6.4.1.2.1.5-.1.8zm9.2.1c.1-.2.1-.4.1-.7 0-.6-.3-1-.9-1.3-.2-.1-.4-.1-.6-.1-.3 0-.7 0-1 .1-.4.2-.7.5-.9.9-.1.2-.1.5-.1.7.1.5.4.9.9 1.1.3.1.6.2.9.2.3 0 .5 0 .8-.1.4-.2.6-.4.8-.8zm-1-.1c-.2.4-.7.4-1 .2-.1-.1-.2-.2-.2-.3-.1-.3-.1-.6 0-.8.2-.5.8-.4 1-.2.1.1.2.3.2.4V9c.1.1 0 .2 0 .4zm-2.7-2c-.3 0-.6.1-.8.3 0 .1 0 .2-.1.2l-.1.1v-.5h-.9v2.8h1V9.1c0-.2 0-.4.1-.5.1-.2.2-.3.4-.3h.5c0-.1.1-.7 0-.8.1-.1 0-.1-.1-.1zm-3.6 2.9h1V7.4h-1v2.9z"/><path fill="#fff" d="M12.6 8.2c-.2-.2-.8-.2-1 .2-.1.3-.1.6 0 .8 0 .1.1.2.2.3.3.2.8.2 1-.2.1-.1.1-.3.1-.5v-.3c-.1 0-.2-.1-.3-.3z"/></g><g id="card-ideal" transform="translate(70,0)"><path fill="#CA156F" d="M27.1 0H.7C.2 0 0 .2 0 .6v16.5c0 .5.2.9.7.9h26.5c.4 0 .9-.4.9-.8V.6c-.1-.4-.5-.6-1-.6z"/><path fill="#fff" d="M14 8h1.3v-.6H14V7h1.4v-.6h-2.1v2.8h2.2v-.5H14zm2.7-1.6l-1.1 2.8h.7l.2-.6h1l.2.6h.7l-1.1-2.8h-.6zm.1 1.6l.3-.7.2.7h-.5zM16 2.4H6.1v13.3H16c1.6 0 3-.6 4.1-1.7 1.1-1.1 1.7-2.6 1.7-4.2V8.2c0-1.6-.6-3-1.7-4.1-1-1.1-2.5-1.7-4.1-1.7zM11.2 7h.4c.2 0 .4.1.5.2.1.1.1.3.1.6 0 .2 0 .3-.1.5s-.3.4-.5.4h-.4V7zm-1.4 7.7H7.1V10h2.8v4.7zM8.5 9.3c-.9 0-1.6-.7-1.6-1.6s.7-1.6 1.6-1.6c.9 0 1.6.7 1.6 1.6s-.7 1.6-1.6 1.6zm10.2-2.9v2.8h2c-.1 3-2.6 5.5-5.7 5.5h-3.9V9.2h.5c.4 0 .7-.2.9-.5.1-.3.2-.6.2-.9 0-.1 0-.3-.1-.5 0-.2-.1-.3-.2-.5s-.3-.3-.5-.4l-.4-.1H11v-3h4c3 0 5.5 2.3 5.7 5.3h-1.3V6.4h-.7z"/><path d="M7.1 10h2.8v4.6H7.1z"/><circle cx="8.5" cy="7.7" r="1.6"/><path fill="#CD0067" d="M20.7 8.6c-.2-3-2.7-5.3-5.7-5.3h-3.9v3.1h.5c.2 0 .3 0 .4.1.2.1.4.2.5.4.1.1.2.3.2.5l.1.5c0 .4-.1.7-.2.9-.2.3-.5.5-.9.5h-.5v5.5H15c3.1 0 5.6-2.4 5.7-5.5h-2V6.4h.7v2.2h1.3zm-5.2.6h-2.2V6.4h2.1V7H14v.4h1.3V8H14v.6h1.5v.6zm2.3 0l-.2-.6h-1l-.2.6h-.7l1.1-2.8h.7l1.1 2.8h-.8zm-1-1.2h.5l-.2-.7zm-4.7.3c.1-.1.1-.3.1-.5s0-.4-.1-.6c-.1-.1-.3-.2-.5-.2h-.4v1.6h.4c.2 0 .4-.1.5-.3z"/><path d="M16 1.4H5.2v15.2H16c3.8 0 6.8-3.1 6.8-6.9V8.2c0-3.8-3-6.8-6.8-6.8zm5.9 8.3c0 1.6-.6 3-1.7 4.2-1.1 1.1-2.6 1.7-4.1 1.7h-10V2.4H16c1.6 0 3 .6 4.1 1.7 1.1 1.1 1.7 2.6 1.7 4.1v1.5z"/></g><g id="card-mastercard" transform="translate(105,0)"><path fill="#003473" d="M28 .7v16.5c0 .4-.3.7-.8.7H.8c-.5.1-.8-.2-.8-.6V.7C0 .3.3 0 .8 0h26.5c.4 0 .7.3.7.7z"/><g fill-rule="evenodd" clip-rule="evenodd"><path fill="#FCB131" d="M14 14.7c1.4 1.2 3.3 2 5.3 2 4.4 0 7.9-3.4 7.9-7.6 0-4.2-3.5-7.6-7.9-7.6-2 0-3.9.7-5.3 2-1.6 1.4-2.6 3.4-2.6 5.7 0 2 1 4.1 2.6 5.5z"/><path fill="#ED1C2E" d="M16.5 8.2l-.1-.8h-4.8l.2-.8h4.4c-.1-.3-.2-.6-.3-.8h-3.7c.1-.3.3-.5.5-.8h2.8c-.2-.3-.4-.6-.6-.8h-1.6c.2-.3.5-.6.8-.8-1.4-1.2-3.3-2-5.3-2-4.4 0-8 3.4-8 7.6 0 4.2 3.5 7.6 7.9 7.6 2 0 3.9-.7 5.3-2 .3-.3.6-.5.8-.8h-1.6l-.6-.8h2.8l.5-.8h-3.7l-.3-.8h4.4c.1-.3.2-.5.2-.8.1-.3.1-.5.1-.8V9c0-.3 0-.5-.1-.8z"/><path fill="#fff" d="M19.2 7.2l-.1.8c-.3-.1-.5-.2-.8-.2-.6 0-1.1.6-1.1 1.5 0 .6.3.9.8.9.2 0 .4-.1.7-.2l-.1 1c-.3.1-.5.1-.8.1-.9 0-1.5-.6-1.5-1.7 0-1.4.8-2.4 2-2.4h.4l.3.2h.2zm-2.7.6c-.4 0-.5.1-.8.5l.1-.5H15l-.5 3.2h.9c.3-1.9.4-2.3.8-2.3h.1c0-.3.1-.6.2-.9zm-5 3.2c-.2.1-.4.1-.6.1-.4 0-.7-.2-.7-.7v-.3l.1-.3v-.2l.4-2.2h.9l-.1.5h.4l-.1.8h-.4l-.2 1.3v.1c0 .2.1.2.3.2h.2l-.2.7zM8.3 8.8c0 .4.2.7.7.9.3.2.4.2.4.3 0 .2-.2.3-.5.3s-.5 0-.8-.1l-.2.8h.9c.9 0 1.3-.3 1.3-1.1 0-.4-.2-.7-.6-.9-.3 0-.4-.1-.4-.2 0-.2.1-.3.4-.3h.6l.1-.7-.8-.1c-.8.1-1.2.6-1.1 1.1zM25.7 11h-.8v-.3c-.2.2-.5.4-.8.4-.6 0-1-.5-1-1.3 0-1 .6-1.9 1.4-1.9.3 0 .6.1.8.4l.2-1.1h.8l-.6 3.8zm-1.2-.7c.4 0 .7-.4.7-1.1 0-.4-.2-.6-.5-.6-.4 0-.7.4-.7 1 0 .5.2.7.5.7zm-10.3.6c-.3.1-.6.1-.9.1-1 0-1.5-.5-1.5-1.4 0-1.1.6-1.9 1.5-1.9.7 0 1.2.4 1.2 1.1 0 .2 0 .5-.1.8h-1.7v.1c0 .4.3.6.8.6.3 0 .6-.1.9-.2l-.2.8zm-.5-1.8v-.2c0-.3-.1-.4-.4-.4-.3 0-.5.2-.5.6h.9zM5 11h-.9l.5-3-1.1 3H3l-.1-3-.5 3h-.8l.6-3.9h1.3v2.4l.8-2.4h1.4L5 11zm2.1-1.4h-.2c-.5 0-.7.2-.7.5 0 .2.1.3.3.3.3 0 .6-.3.6-.8zm.6 1.4H7v-.3c-.2.3-.5.4-.9.4-.5 0-.8-.4-.8-.9.1-.8.6-1.2 1.6-1.2h.3v-.2c0-.2-.1-.3-.5-.3-.2 0-.5 0-.7.1h-.2l.1-.7c.4-.1.7-.2 1-.2.7 0 1.1.3 1.1.9.1.3 0 .4 0 .7l-.2 1.1v.4l-.1.2zm12.9-1.4h-.2c-.5 0-.7.2-.7.5 0 .2.1.3.3.3.3 0 .6-.3.6-.8zm.6 1.4h-.7v-.3c-.2.3-.5.4-.9.4-.5 0-.8-.4-.8-.9 0-.8.6-1.2 1.5-1.2h.3v-.2c0-.2-.1-.3-.5-.3-.2 0-.5 0-.7.1h-.2l.1-.7c.4-.1.7-.2 1-.2.7 0 1.1.3 1.1.9 0 .2 0 .3-.1.6l-.2 1.1v.4l.1.3zm2.3-3.2c-.4 0-.5.1-.8.5l.1-.5H22l-.5 3.2h.9c.3-1.9.4-2.3.8-2.3h.1c0-.3.1-.6.2-.9z"/></g></g><g id="card-paypal" transform="translate(140,0)"><path fill="#E4F2F7" d="M28 .7v16.5c0 .4-.3.7-.8.7H.8c-.5.1-.8-.2-.8-.6V.7C0 .3.3 0 .8 0h26.5c.4 0 .7.3.7.7z"/><path fill="#009CDE" d="M20.7 7.4h-1.4c-.1 0-.2.1-.2.2l-.6 3.4c0 .1 0 .1.1.1h.7c.1 0 .1 0 .1-.1l.2-1c0-.1.1-.2.2-.2h.4c.9 0 1.4-.4 1.5-1.2.1-.4 0-.6-.2-.8 0-.3-.4-.4-.8-.4zm.1 1.2c-.1.5-.4.5-.8.5h-.2l.2-.9c0-.1.1-.1.1-.1h.1c.2 0 .5 0 .6.1 0 .1.1.3 0 .4z"/><path fill="#003087" d="M11 7.4H9.6c-.1 0-.2.1-.2.2L8.8 11h.8c.1 0 .2-.1.2-.2l.2-.8c0-.1.1-.2.2-.2h.4c.9 0 1.4-.4 1.5-1.2.1-.4 0-.6-.2-.8-.1-.3-.5-.4-.9-.4zm.1 1.2c-.1.5-.4.5-.8.5h-.2l.1-.9c0-.1.1-.1.1-.1h.1c.2 0 .5 0 .6.1.1.1.2.3.1.4zm3.9 0h-.7c-.1 0-.1 0-.1.1v.2-.1c-.1-.2-.5-.3-.8-.3-.7 0-1.3.5-1.5 1.3-.1.4 0 .7.2 1 .2.2.5.3.8.3.6 0 .9-.4.9-.4v.2c0 .1 0 .1.1.1h.6c.1 0 .2-.1.2-.2l.4-2.2H15zm-.9 1.2c-.1.4-.4.6-.7.6-.2 0-.3-.1-.4-.2-.1-.1-.1-.3-.1-.4.1-.4.4-.6.7-.6.2 0 .3.1.4.2.1.1.2.3.1.4z"/><path fill="#009CDE" d="M24.8 8.6h-.7c-.1 0-.1 0-.1.1v.2-.1c-.1-.2-.5-.3-.8-.3-.7 0-1.3.5-1.5 1.3-.1.4 0 .7.2 1 .2.2.5.3.8.3.6 0 .9-.4.9-.4v.2c0 .1 0 .1.1.1h.6c.1 0 .2-.1.2-.2l.4-2.2c0 .1-.1 0-.1 0zm-1 1.2c-.1.4-.4.6-.7.6-.2 0-.3-.1-.4-.2-.1-.1-.1-.3-.1-.4.1-.4.4-.6.7-.6.2 0 .3.1.4.2.1.1.2.3.1.4z"/><path fill="#003087" d="M18.5 8.6h-.7c-.1 0-.1 0-.2.1l-.8 1.3-.4-1.2c0-.1-.1-.1-.2-.1h-.6c-.1 0-.1.1-.1.1l.7 2-.7.9c-.1.1 0 .2.1.2h.7c.1 0 .1 0 .2-.1l2.2-3c0-.1-.1-.2-.2-.2z"/><path fill="#009CDE" d="M25.5 7.5l-.5 3.4c0 .1 0 .1.1.1h.6c.1 0 .2-.1.2-.2l.6-3.4c0-.1 0-.1-.1-.1h-.6c-.2.1-.3.1-.3.2z"/><path fill="#003087" d="M4.2 11.7l.2-1.1v-.1c0-.1 0-.1.1-.1 0 0 .1-.1.2-.1h.1c.2 0 .5 0 .7-.1.2 0 .3-.1.5-.2l.4-.4c.1-.2.2-.4.3-.7 0-.2.1-.4 0-.6 0-.2-.1-.3-.2-.5-.1-.1-.2-.2-.3-.2V7c0-.2-.1-.3-.2-.5-.3-.2-.8-.4-1.5-.4H2.7c-.1 0-.1 0-.2.1 0 0-.1.1-.1.2l-.8 4.8v.1l.1.1h1.2l-.1.5v.1h1.1c.1 0 .1 0 .1-.1.2-.1.2-.1.2-.2zm-.7-4.1l.1-.2H6l.2.1c.1-.5 0-.8-.3-1-.2-.3-.7-.4-1.4-.4H2.7c-.1 0-.2.1-.3.2l-.8 4.8c0 .1.1.2.2.2H3l.3-1.8.2-1.9z"/><path fill="#009CDE" d="M6.2 7.6v.1C5.9 8.9 5.1 9.3 4 9.3h-.5c-.1 0-.2.1-.3.2l-.3 1.7-.1.5c0 .1.1.2.1.2h1c.1 0 .2-.1.2-.2l.2-1.1v-.1c0-.1.1-.2.2-.2h.1c.9 0 1.7-.4 1.9-1.4.1-.4 0-.8-.2-1.1.1-.1 0-.2-.1-.2z"/><path fill="#012169" d="M6 7.5H3.7c-.1 0-.1.1-.1.2l-.4 1.8v.1c0-.1.1-.2.3-.2H4c1.1 0 1.9-.4 2.2-1.6v-.1c0-.2-.1-.2-.2-.2z"/></g><g id="card-sofort" transform="translate(175,0)"><path fill="#F18124" d="M28 .7v16.5c0 .4-.3.7-.8.7H.8c-.5.1-.8-.2-.8-.6V.7C0 .3.3 0 .8 0h26.5c.4 0 .7.3.7.7z"/><path d="M8.5 6.9c-.3.2-.5.3-.6.5-.2.1-.3.3-.5.5H5.9c-.1 0-.3 0-.4.1-.1 0-.1.1-.1.2l.1.2s.1 0 .2.1c.2 0 .3 0 .5.1.4.2.5.5.5.9-.1.7-.5 1.2-1.2 1.4-.2.1-.5.2-.7.2H1.7l.4-1H5c.1 0 .1 0 .2-.1.2-.1.1-.3 0-.4-.3-.2-.4-.2-.6-.2-.1 0-.3-.1-.4-.2-.3-.2-.4-.5-.3-.8.1-.3.2-.6.4-.9.2-.3.5-.5.9-.5h3c.1-.1.1-.1.3-.1zm12.3 2.4c.3.6.4 1.1.6 1.7-.2.1-.9.1-1.4 0-.1-.4-.2-.9-.4-1.4L19 11h-1.4c.5-1.4 1.1-2.8 1.6-4.1h1.5c.2 0 .5 0 .7.1.5.1.7.5.6 1-.1.5-.5.9-1 1.2.1 0 0 .1-.2.1zm-1-.5h.2c.4 0 .7-.2.8-.6.1-.2 0-.3-.3-.4h-.4c0 .3-.2.6-.3 1zM8.3 11.2c-.2 0-.3 0-.5-.1-.7-.2-.9-.6-.9-1.2C7 9 7.4 8.3 8 7.6c.5-.5 1.1-.8 1.9-.8.2 0 .3 0 .5.1.5.1.8.5.8 1 0 .3 0 .5-.1.8-.2.7-.5 1.3-1 1.8-.6.4-1.1.7-1.8.7zm1.5-3c0-.3-.2-.4-.5-.3-.1 0-.2 0-.2.1-.1 0-.2.1-.2.2-.4.4-.5.9-.7 1.3v.3c0 .2.1.3.3.3.2 0 .4-.1.6-.2.1-.1.1-.2.2-.2l.4-1.1c.1-.1.1-.3.1-.4zm5.7 3c-.2 0-.4 0-.6-.1-.5-.1-.8-.5-.8-1 0-.9.4-1.7 1-2.4.3-.4.8-.6 1.3-.8.4-.1.7-.1 1.1 0 .5.1.8.5.8 1s-.2 1-.4 1.5c-.2.4-.4.8-.7 1.1-.4.4-1 .7-1.7.7zm.3-1c.2 0 .4-.1.5-.2.1-.1.2-.2.2-.3.2-.4.4-.9.5-1.4.1-.4-.2-.5-.5-.4-.2.1-.4.2-.5.4-.3.5-.5 1-.6 1.6 0 .2.2.3.4.3zm-2.2-.7h-1.2l-.6 1.6h-1.3l.3-.7c.2-.8.5-1.6.8-2.4.1-.3.3-.6.7-.8.3-.2.5-.2.8-.2h2.6c-.4.3-.8.6-1.1 1h-1.3c-.1 0-.3.1-.3.2-.1.1-.1.3-.2.5H14c-.2.2-.3.5-.4.8zm9.6-1.6h-.8c0-.4-.1-.7-.4-1 .2-.1 4.1-.1 4.3 0-.1.3-.2.6-.4.9h-1.5L23.2 11H22c.4-1 .8-2 1.2-3.1z" fill="#fff"/></g><g id="card-visa" transform="translate(210,0)"><path fill="#fff" d="M22.9 8.4V6.8c-.1.3-.6 1.4-.8 1.9l-.7 1.5H23l-.1-1.8zM0 13.7h28V4.3H0v9.4zm24.4-8.1l.6 6.8h-2l-.1-1h-2.4l-.5 1h-2.1l3.8-6.8h2.7zm-9.2 4.1l-.4-.2c-1.1-.7-1.6-1.4-1.1-2.6.4-.9 1.3-1.5 2.8-1.5 1 0 1.9.4 2.5.8l-1.1 1.2c-.5-.4-1-.6-1.5-.6-.4 0-.7.2-.8.4-.2.4.1.6.6 1l.4.3c1.4.8 1.7 1.7 1.3 2.5-.6 1.4-1.7 1.7-2.9 1.7-1.4 0-2.3-.4-2.9-.8l.9-1.3c.6.3 1 .7 2.1.7.3 0 .7-.1.8-.4.4-.6.1-.8-.7-1.2zm-2.1-4.1L11 12.4H9l2.2-6.8h1.9zm-7.8 0l.2 2.7c0 .4.1 1.2.1 1.8.2-.5.4-.8.8-1.6l1.7-2.9h2l-4 6.8h-2L3.5 7c-.1-.8-.6-1.2-1.4-1.2v-.2h3.2z"/><path fill="#007BB2" d="M27.2 0H.8C.3 0 0 .3 0 .7v3.6h28V.7c0-.4-.3-.7-.8-.7z"/><path fill="#F1C04B" d="M0 13.7v3.6c0 .4.3.7.8.7h26.5c.4 0 .8-.3.8-.7v-3.6H0z"/><path fill="#007BB2" d="M11 12.4l2.1-6.8h-1.9L9 12.4zM3.5 7l.6 5.4h2l4-6.8h-2L6.4 8.5c-.4.8-.6 1.1-.8 1.6 0-.6-.1-1.4-.1-1.8l-.2-2.7H2.1v.2c.8 0 1.3.4 1.4 1.2zm16.7 5.4l.5-1h2.4l.1 1h2l-.6-6.8H22l-3.8 6.8h2zM22 8.7c.2-.5.7-1.5.8-1.9v1.6l.1 1.8h-1.7l.8-1.5zm-6.8 2.5c-1 0-1.5-.4-2.1-.7l-.9 1.3c.6.4 1.5.8 2.9.8 1.2 0 2.3-.3 2.9-1.7.3-.8 0-1.7-1.3-2.5l-.4-.3c-.6-.4-.8-.6-.6-1 0-.1.3-.3.7-.3.5 0 1 .2 1.5.6L19 6.3c-.5-.4-1.5-.8-2.5-.8-1.5 0-2.3.6-2.7 1.4-.5 1.2 0 1.9 1.1 2.6l.4.2c.8.4 1.1.6.8 1.1-.2.3-.6.4-.9.4z"/></g><g id="flag-au" transform="translate(245,0)"><path fill-rule="evenodd" clip-rule="evenodd" fill="#203C89" d="M1.4 0h14.3c.7 0 1.3.7 1.3 1.5v9c0 .8-.6 1.5-1.4 1.5H1.4C.6 12 0 11.3 0 10.5v-9C0 .7.6 0 1.4 0z"/><path fill="#fff" d="M3.1 1.9V2z"/><path d="M0 5.5V6h.1l2.8-2h-.8zM7.8 0L5 2h.8L8 .4V0zM3.1 2L.6.2C.5.3.4.4.3.6l2 1.4h.8zm2.1 2L8 6v-.6L6 4zm-.7-4h-1v2.4H0v1.2h3.5V6h1V3.6H8V2.4H4.5z" fill="#CC1417"/><path d="M3.1 6h.4V3.6H0V4h1.4L0 5v.5L2.1 4h.8L.1 6h.7l2.3-1.6zM5 2l2.8-2h-.7L4.9 1.5V0h-.4v2.4H8V2H6.5L8 .9V.4L5.8 2zM3.5 0h-.4v1.4L1.1 0C.9 0 .8.1.7.2l2.4 1.7h-.8L.3.5C.2.7.2.8.1.9L1.6 2H0v.4h3.5V0zm1 3.6V6h.4V4.3L7.3 6H8L5.2 4H6l2 1.4v-.5L6.7 4H8v-.4H4.6zM3.3 9.7l.4-.6-.7.3-.2-.8-.3.8-.7-.3.4.6-.7.4.8.1-.1.8.6-.6.5.6-.1-.8.8-.1-.7-.4zm7.4-5.2l.2-.3-.3.1-.2-.3-.1.3-.3-.1.2.3-.3.2h.4l-.1.4.3-.3.3.3-.1-.4h.4l-.4-.2zM13 2.1l-.3.1-.1-.3-.1.3-.3-.1.2.3-.4.2h.4l-.1.4.3-.3.2.3-.1-.4h.4l-.3-.2.2-.3zm2 3.5l-.3-.2.2-.3-.3.1-.1-.3-.1.3-.4-.1.2.3-.3.2h.4l-.1.4.3-.3.2.3-.1-.4h.4zm-2.2 4.8l.2-.3-.3.1-.1-.3-.1.3-.3-.1.2.3-.4.2h.4l-.1.4.3-.3.3.3-.1-.4h.4l-.4-.2zm-.4-3.8l-.1-.2-.1.2H12l.1.2V7l.2-.1.2.1v-.2l.1-.2z" fill="#fff"/></g><g id="flag-ca" transform="translate(270,0)"><path d="M13 0h14.6H13z" fill="none"/><path fill="#E52420" d="M1.2 0C.5.1.1.7 0 1.4v9.2c.1.8.6 1.4 1.4 1.4H4V0H1.2z"/><path fill="#fff" d="M4 0h9v12H4z"/><path fill="#E52420" d="M15.8 0H13v12h2.6c.8 0 1.4-.7 1.4-1.5v-9c0-.8-.5-1.4-1.2-1.5z"/><path fill-rule="evenodd" clip-rule="evenodd" fill="#E52620" d="M8.6 8.7c0-.5 0-.9-.1-1.2 0-.1.1-.1.2-.1.8.1 1.1.2 1.1.2-.3-.8.7-1.1 1.2-1.6-.4-.1-.3-.1-.1-1-.8.3-.8.2-.9-.2 0 0-.1.1-.6.7-.1.1-.2 0-.2-.1.3-1.4.3-1.5.3-1.5-.5.4-.5.4-.6.2-.3-.5-.4-.8-.4-.8s-.1.3-.4.8c-.1.2-.1.2-.6-.2 0 0 0 .1.3 1.4 0 .1-.1.2-.2.1L7 4.8c-.2.4-.1.5-.9.2.2 1 .3.9-.1 1 .5.4 1.5.8 1.1 1.5 0 0 .4-.1 1.1-.2.1 0 .2 0 .2.1 0 .3 0 .7-.1 1.2h.3z"/></g><g id="flag-de" transform="translate(295,0)"><path d="M15.6 0H1.4h14.2z" fill="none"/><path fill="#1D1D1B" d="M0 1.5V4h17V1.5c0-.8-.6-1.5-1.3-1.5H1.3C.6 0 0 .7 0 1.5z"/><path fill="#E52420" d="M0 4h17v4H0z"/><path fill="#FFCC04" d="M17 10.5V8H0v2.5c0 .8.6 1.5 1.4 1.5h14.3c.7 0 1.3-.7 1.3-1.5z"/></g><g id="flag-es" transform="translate(320,0)"><path fill-rule="evenodd" clip-rule="evenodd" fill="#AB191D" d="M1.3 0h14.3c.7 0 1.4.7 1.4 1.5v9c0 .8-.6 1.5-1.4 1.5H1.3C.6 12 0 11.3 0 10.5v-9C0 .7.6 0 1.3 0z"/><path fill-rule="evenodd" clip-rule="evenodd" fill="#F1BF00" d="M0 3h17v6H0z"/><path fill="#AB191D" d="M4.3 4.4c-.5 0-.8-.4-.8-.4s-.3.4-.7.4c-.5 0-.8-.3-.8-.3v2C2 7.4 3.5 8 3.5 8S5 7.4 5 6.1v-2s-.3.3-.7.3z"/></g><g id="flag-eu" transform="translate(345,0)"><path fill-rule="evenodd" clip-rule="evenodd" fill="#1E3D87" d="M1.4 12C.6 12 0 11.4 0 10.6V1.4C0 .6.6 0 1.4 0h14.3c.7 0 1.3.6 1.3 1.4v9.1c0 .8-.6 1.4-1.4 1.4H1.4z"/><path d="M8 3.9l.5-.3.6.3-.1-.7.5-.4-.7-.1-.3-.6-.2.6-.7.1.5.4zm.8 4.8l-.3-.6-.2.6-.7.1.5.4-.1.7.5-.3.6.3-.1-.7.5-.4zM10 4.2l-.1.7.6-.3.5.3-.1-.7.5-.4-.7-.1-.2-.6-.3.6-.7.1zm.7 3.5l-.2-.6-.3.6-.7.1.5.4-.1.7.6-.3.5.3-.1-.7.5-.4zM6.5 3.1l-.2.6-.7.1.5.4-.1.7.5-.3.6.3-.1-.7.5-.4-.7-.1zm.3 4.6l-.3-.6-.2.6-.7.1.5.4-.1.7.5-.3.6.3-.1-.7.5-.4zM6 6.2l.5-.4-.7-.1-.3-.6-.2.6-.7.1.5.4-.1.7.5-.3.6.3zm6.4-.4l-.7-.1-.2-.6-.3.6-.7.1.5.4-.1.7.6-.3.5.3-.1-.7z" fill-rule="evenodd" clip-rule="evenodd" fill="#FFCC0C"/></g><g id="flag-fr" transform="translate(370,0)"><path d="M11 0h14.6H11z" fill="none"/><path fill="#0656A3" d="M1.2 0C.5.1.1.7 0 1.4v9.2c.1.8.6 1.4 1.4 1.4H6V0H1.2z"/><path fill="#fff" d="M6 0h5v12H6z"/><path fill="#E84237" d="M15.8 0H11v12h4.6c.8 0 1.4-.7 1.4-1.5v-9c0-.8-.5-1.4-1.2-1.5z"/></g><g id="flag-it" transform="translate(395,0)"><path d="M11 0h14.6H11z" fill="none"/><path fill="#009246" d="M1.2 0C.5.1.1.7 0 1.4v9.2c.1.8.6 1.4 1.4 1.4H6V0H1.2z"/><path fill="#fff" d="M6 0h5v12H6z"/><path fill="#CF2C37" d="M15.8 0H11v12h4.6c.8 0 1.4-.7 1.4-1.5v-9c0-.8-.5-1.4-1.2-1.5z"/></g><g id="flag-nl" transform="translate(420,0)"><path d="M15.6 0H1.4h14.2z" fill="none"/><path fill="#AF1D29" d="M0 1.5V4h17V1.5c0-.8-.6-1.5-1.3-1.5H1.3C.6 0 0 .7 0 1.5z"/><path fill="#fff" d="M0 4h17v4H0z"/><path fill="#21478B" d="M17 10.5V8H0v2.5c0 .8.6 1.5 1.4 1.5h14.3c.7 0 1.3-.7 1.3-1.5z"/></g><g id="flag-uk" transform="translate(445,0)"><path fill-rule="evenodd" clip-rule="evenodd" fill="#203C89" d="M1.4 0h14.3c.7 0 1.3.7 1.3 1.5v9c0 .8-.6 1.5-1.4 1.5H1.4C.6 12 0 11.3 0 10.5v-9C0 .7.6 0 1.4 0z"/><path d="M0 1.5v9L6.4 6 0 1.5zM2 12h13L8.5 7.4zM15 0H2l6.5 4.6zm2 10.5v-9L10.6 6l6.4 4.5z" fill="none"/><path fill="#fff" d="M7.8 7l-7 4.9c.2.1.4.1.6.1H2l6.5-4.6-.7-.4zm1.4-2l7-4.9c-.2-.1-.4-.1-.6-.1H15L8.5 4.6l.7.4zm.7.5l.7.5L17 1.5c0-.3-.1-.6-.2-.8L9.9 5.5zm-2.8 1L6.4 6 0 10.5c0 .3.1.6.2.8l6.9-4.8z"/><path fill="#CC1417" d="M.2 11.3c.2.3.4.5.7.6l7-4.9-.8-.5-6.9 4.8zM16.8.7c-.2-.3-.4-.5-.7-.6L9.2 5l.7.5L16.8.7z"/><path fill="#fff" d="M.9.1l7 4.9.7-.5L2 0h-.6C1.2 0 1 0 .9.1zm15.2 11.8L9.2 7l-.7.4L15 12h.7c.1 0 .3 0 .4-.1zM9.9 6.5l6.9 4.9c.1-.2.2-.5.2-.8L10.6 6l-.7.5zm-2.8-1L.2.7c-.1.2-.2.5-.2.8L6.4 6l.7-.5zM7.8 7l.7.4.7-.4-.7-.5zm2.1-.5l.7-.5-.7-.5-.7.5zm-2.8-1l-.7.5.7.5.7-.5zM9.2 5l-.7-.4-.7.4.7.5zM7.8 6l-.7.5.7.5.7-.5zm1.4 0l.7-.5-.7-.5-.7.5z"/><path fill="#CC1417" d="M9.2 7l7 4.9c.3-.1.5-.3.7-.6l-7-4.8-.7.5zM.9.1C.6.2.4.4.2.7l6.9 4.9.7-.6L.9.1zM9.2 6l-.7.5.7.5.7-.5zm-.7-.5L7.8 5l-.7.5.7.5zm-.7.5l.7.5.7-.5-.7-.5z"/><path fill-rule="evenodd" clip-rule="evenodd" fill="#fff" d="M0 7.6V4.4h17v3.3H0zM7 0h3v12H7V0z"/><path fill-rule="evenodd" clip-rule="evenodd" fill="#CC1417" d="M7.6 0h1.7v12H7.6V0zM0 6.9V5.1h17V7H0z"/></g><g id="flag-us" transform="translate(470,0)"><path d="M0 10.5c0 .2 0 .3.1.5h16.8c.1-.2.1-.3.1-.5V10H0v.5zM0 8h17v1H0zm0-2h17v1H0zm0-2h17v1H0zm0-2h17v1H0zm.1-1h16.8c-.2-.6-.7-1-1.3-1H1.4C.8 0 .3.4.1 1z" fill="#B32335"/><path d="M0 9h17v1H0zm16.9 2H.1c.2.6.7 1 1.3 1h14.3c.5 0 1-.4 1.2-1zM0 7h17v1H0zm0-2h17v1H0zm0-2h17v1H0zm0-1.5V2h17v-.5c0-.2 0-.3-.1-.5H.1c-.1.2-.1.3-.1.5z" fill="#fff"/><path fill-rule="evenodd" clip-rule="evenodd" fill="#3C3B6E" d="M0 6V1.5C0 .7.6 0 1.4 0H8v6H0z"/><path d="M1.5 1.2l.2.4H2l-.2.3v.3l-.3-.1-.3.1.1-.3-.3-.3h.3zm1.7 0l.1.4h.4l-.3.3.1.3-.3-.1-.3.1v-.3l-.2-.3H3zm1.6 0l.2.4h.3l-.2.3v.3l-.3-.1-.3.1.1-.3-.3-.3h.4zm1.7 0l.2.4H7l-.2.3v.3l-.3-.1-.3.1.1-.3-.3-.3h.3zm-5 1.3l.2.3.3.1-.2.2v.4l-.3-.2-.3.2.1-.4-.3-.2.3-.1zm1.7 0l.1.3.4.1-.3.2.1.4-.3-.2-.3.2v-.4l-.2-.2.3-.1zm1.6 0l.2.3.3.1-.2.2v.4l-.3-.2-.3.2.1-.4-.3-.2.4-.1zm1.7 0l.2.3.3.1-.2.2v.4l-.3-.2-.3.2.1-.4-.3-.2.3-.1zm-5 1.3l.2.3H2l-.2.3v.4l-.3-.2-.3.2.1-.4-.3-.3h.3zm1.7 0l.1.3h.4l-.3.3.1.4-.3-.2-.3.2v-.4l-.2-.3H3zm1.6 0l.2.3h.3l-.2.3v.4l-.3-.2-.3.2.1-.4-.3-.3h.4zm1.7 0l.2.3H7l-.2.3v.4l-.3-.2-.3.2.1-.4-.3-.3h.3z" fill-rule="evenodd" clip-rule="evenodd" fill="#fff"/></g><g id="social-facebook" transform="translate(495,0)"><path fill="#bbbcbc" d="M12.376.112C12.104.078 11.21 0 10.196 0c-2.294 0-3.72 1.465-3.72 3.818v1.95H4.17c-.062 0-.115.053-.115.116V8.69c0 .062.053.115.116.115h2.31v7.08c0 .062.06.115.12.115h2.89c.07 0 .12-.053.12-.116V8.806h2.3c.06 0 .11-.044.12-.102L12.4 5.9l-.03-.092-.086-.038H9.61V4.095c0-.79.208-1.247 1.27-1.247h1.486c.063 0 .116-.053.116-.116V.228c-.004-.058-.048-.107-.106-.116z"/></g><g id="social-facebook-alt" transform="translate(520,0)"><path fill="#00965e" d="M12.376.112C12.104.078 11.21 0 10.196 0c-2.294 0-3.72 1.465-3.72 3.818v1.95H4.17c-.062 0-.115.053-.115.116V8.69c0 .062.053.115.116.115h2.31v7.08c0 .062.06.115.12.115h2.89c.07 0 .12-.053.12-.116V8.806h2.3c.06 0 .11-.044.12-.102L12.4 5.9l-.03-.092-.086-.038H9.61V4.095c0-.79.208-1.247 1.27-1.247h1.486c.063 0 .116-.053.116-.116V.228c-.004-.058-.048-.107-.106-.116z"/></g><g id="social-google" transform="translate(545,0)"><path fill="#bbbcbc" d="M8.403 8.953l-.103-.08c-.318-.234-1.157-.862-1.157-1.156 0-.402.07-.598.833-1.196.942-.73 1.442-1.64 1.442-2.62 0-.96-.32-1.8-.873-2.37h.55c.063 0 .122-.02.16-.07L10.272.39c.05-.038.08-.102.08-.166 0-.12-.098-.224-.226-.224H5.53C3.137 0 1.034 1.79 1.034 3.83c0 2.17 1.515 3.69 3.692 3.69h.093c-.08.22-.12.442-.12.653 0 .417.16.72.36.976h-.31C1.91 9.14 0 11.12 0 12.96c0 1.765 2.162 3.045 5.138 3.045 3.21 0 5.133-1.873 5.133-3.68.01-1.55-.39-2.277-1.86-3.38zM6.457 10.32l.397.27c.78.53 1.343.907 1.496 1.5.034.142.054.294.054.436 0 1.505-1.098 2.27-3.266 2.27-1.652 0-2.947-1.03-2.947-2.34 0-1.23 1.47-2.308 3.13-2.308.42.006.79.065 1.14.172zM3.71 1.7c.285-.323.658-.494 1.08-.494h.045C5.932 1.24 6.918 2.442 7.125 4c.107.83-.035 1.515-.403 1.932-.255.29-.617.44-1.044.44h-.054c-1.182-.033-2.217-1.15-2.408-2.597-.108-.833.074-1.593.495-2.074zm12.072.634H13.89V.44c0-.122-.103-.224-.225-.224h-1.06c-.122 0-.224.103-.224.225v1.89H10.5c-.123 0-.225.11-.225.23v1.06c0 .12.103.23.225.23h1.888v1.88c0 .13.104.23.226.23h1.06c.12 0 .224-.1.224-.22V3.85h1.888c.124 0 .226-.103.226-.225V2.56c.005-.128-.098-.226-.22-.226z"/></g><g id="social-google-alt" transform="translate(570,0)"><path fill="#00965e" d="M8.403 8.953l-.103-.08c-.318-.234-1.157-.862-1.157-1.156 0-.402.07-.598.833-1.196.942-.73 1.442-1.64 1.442-2.62 0-.96-.32-1.8-.873-2.37h.55c.063 0 .122-.02.16-.07L10.272.39c.05-.038.08-.102.08-.166 0-.12-.098-.224-.226-.224H5.53C3.137 0 1.034 1.79 1.034 3.83c0 2.17 1.515 3.69 3.692 3.69h.093c-.08.22-.12.442-.12.653 0 .417.16.72.36.976h-.31C1.91 9.14 0 11.12 0 12.96c0 1.765 2.162 3.045 5.138 3.045 3.21 0 5.133-1.873 5.133-3.68.01-1.55-.39-2.277-1.86-3.38zM6.457 10.32l.397.27c.78.53 1.343.907 1.496 1.5.034.142.054.294.054.436 0 1.505-1.098 2.27-3.266 2.27-1.652 0-2.947-1.03-2.947-2.34 0-1.23 1.47-2.308 3.13-2.308.42.006.79.065 1.14.172zM3.71 1.7c.285-.323.658-.494 1.08-.494h.045C5.932 1.24 6.918 2.442 7.125 4c.107.83-.035 1.515-.403 1.932-.255.29-.617.44-1.044.44h-.054c-1.182-.033-2.217-1.15-2.408-2.597-.108-.833.074-1.593.495-2.074zm12.072.634H13.89V.44c0-.122-.103-.224-.225-.224h-1.06c-.122 0-.224.103-.224.225v1.89H10.5c-.123 0-.225.11-.225.23v1.06c0 .12.103.23.225.23h1.888v1.88c0 .13.104.23.226.23h1.06c.12 0 .224-.1.224-.22V3.85h1.888c.124 0 .226-.103.226-.225V2.56c.005-.128-.098-.226-.22-.226z"/></g><g id="social-twitter" transform="translate(595,0)"><path fill="#bbbcbc" d="M15.92 3.177l-.008-.12-.12-.028c-.447.19-.912.34-1.393.43.51-.41.89-.96 1.09-1.59l-.04-.11-.12-.01c-.61.36-1.27.62-1.97.76-.63-.64-1.49-1.01-2.39-1.01-1.82 0-3.31 1.5-3.31 3.33 0 .21.02.42.06.62-2.51-.17-4.85-1.37-6.45-3.33l-.09-.04-.08.05C.8 2.64.65 3.22.65 3.81c0 .997.434 1.928 1.185 2.557-.37-.06-.735-.18-1.063-.36l-.1.02-.05.11c0 1.43.925 2.694 2.246 3.147-.325.043-.66.036-.994-.03l-.093.03-.02.1c.41 1.27 1.52 2.16 2.83 2.296-1.08.78-2.37 1.19-3.72 1.19-.25 0-.5-.017-.75-.04-.05-.01-.09.02-.11.063-.01.044 0 .095.05.12 1.5.96 3.22 1.47 5 1.47 5.81 0 9.28-4.72 9.28-9.28l-.01-.37c.63-.46 1.17-1.02 1.6-1.665z"/></g><g id="social-twitter-alt" transform="translate(620,0)"><path fill="#00965e" d="M15.92 3.177l-.008-.12-.12-.028c-.447.19-.912.34-1.393.43.51-.41.89-.96 1.09-1.59l-.04-.11-.12-.01c-.61.36-1.27.62-1.97.76-.63-.64-1.49-1.01-2.39-1.01-1.82 0-3.31 1.5-3.31 3.33 0 .21.02.42.06.62-2.51-.17-4.85-1.37-6.45-3.33l-.09-.04-.08.05C.8 2.64.65 3.22.65 3.81c0 .997.434 1.928 1.185 2.557-.37-.06-.735-.18-1.063-.36l-.1.02-.05.11c0 1.43.925 2.694 2.246 3.147-.325.043-.66.036-.994-.03l-.093.03-.02.1c.41 1.27 1.52 2.16 2.83 2.296-1.08.78-2.37 1.19-3.72 1.19-.25 0-.5-.017-.75-.04-.05-.01-.09.02-.11.063-.01.044 0 .095.05.12 1.5.96 3.22 1.47 5 1.47 5.81 0 9.28-4.72 9.28-9.28l-.01-.37c.63-.46 1.17-1.02 1.6-1.665z"/></g></svg>