<?xml version="1.0" standalone="no"?>
<!DOCTYPE svg PUBLIC "-//W3C//DTD SVG 1.1//EN" "http://www.w3.org/Graphics/SVG/1.1/DTD/svg11.dtd" >
<svg xmlns="http://www.w3.org/2000/svg" xmlns:xlink="http://www.w3.org/1999/xlink" version="1.1">
<metadata>
Created by FontForge 20150224 at Wed Feb 25 18:12:45 2015
 By Andrew Nartey
Copyright (c) 2015, Andrew Nartey
</metadata>
<defs>
<font id="mooicon" horiz-adv-x="512" >
  <font-face 
    font-family="mooicon"
    font-weight="400"
    font-stretch="normal"
    units-per-em="512"
    panose-1="2 0 5 3 0 0 0 0 0 0"
    ascent="448"
    descent="-64"
    bbox="-1.5 -64.2857 513 449"
    underline-thickness="49"
    underline-position="-99"
    unicode-range="U+F101-F159"
  />
<missing-glyph horiz-adv-x="187" 
d="M17 0v341h136v-341h-136zM34 17h102v307h-102v-307z" />
    <glyph glyph-name=".notdef" horiz-adv-x="187" 
d="M17 0v341h136v-341h-136zM34 17h102v307h-102v-307z" />
    <glyph glyph-name=".null" horiz-adv-x="0" 
 />
    <glyph glyph-name="nonmarkingreturn" horiz-adv-x="170" 
 />
    <glyph glyph-name="uniF101" unicode="&#xf101;" 
d="M495 -32h-478q-10 0 -15 9t0 17l239 413q5 9 15 9t15 -9l238 -413q3 -4 3 -9q0 -7 -5 -12t-12 -5zM47 2h418l-209 363zM256 20q-12 0 -20 8t-8 20t8 20t20 8t20 -8t8 -20t-8 -20t-20 -8zM268 115q-2 -11 -12 -11t-12 11l-13 64v96q0 10 7.5 17t17.5 7t17.5 -7t7.5 -17
v-96z" />
    <glyph glyph-name="uniF102" unicode="&#xf102;" horiz-adv-x="307" 
d="M273 311h-239v-341h239v341zM307 346v-376q0 -14 -10 -24t-24 -10h-239q-14 0 -24 10t-10 24v376h307zM290 414q7 0 12 -5t5 -12t-5 -12t-12 -5h-273q-7 0 -12 5t-5 12t5 12t12 5h120q-7 0 -12.5 5t-5.5 12t5.5 12t12.5 5h34q7 0 12 -5t5 -12t-5 -12t-12 -5h119zM85 4
q-7 0 -12 5t-5 12v239q0 7 5 12t12 5t12 -5t5 -12v-239q0 -7 -5 -12t-12 -5zM154 4q-7 0 -12 5t-5 12v239q0 7 5 12t12 5t12 -5t5 -12v-239q0 -7 -5 -12t-12 -5zM222 4q-7 0 -12 5t-5 12v239q0 7 5 12t12 5t12 -5t5 -12v-239q0 -7 -5 -12t-12 -5z" />
    <glyph glyph-name="uniF103" unicode="&#xf103;" 
d="M495 -64h-478q-7 0 -12 5t-5 12v478q0 7 5 12t12 5h478q7 0 12 -5t5 -12v-478q0 -7 -5 -12t-12 -5zM34 -30h444v444h-444v-444z" />
    <glyph glyph-name="uniF104" unicode="&#xf104;" horiz-adv-x="510" 
d="M449 38h-285q-13 0 -16 13l-64 261h-67q-7 0 -12 5t-5 12t5 12t12 5h81q13 0 16 -13l22 -90h357q9 0 14 -6t3 -15l-44 -171q-3 -13 -17 -13zM178 73h258l35 136h-326zM171 -30q0 14 10 24t24 10t24 -10t10 -24t-10 -24t-24 -10t-24 10t-10 24zM375 -30q0 14 10.5 24
t24.5 10t24 -10t10 -24t-10 -24t-24 -10t-24.5 10t-10.5 24z" />
    <glyph glyph-name="uniF105" unicode="&#xf105;" 
d="M393 -64q-8 0 -13 5l-67 69l-64 63h-232q-7 0 -12 5t-5 12v307q0 7 5 12t12 5h478q7 0 12 -5t5 -12v-307q0 -7 -5 -12t-12 -5h-85v-120q0 -11 -11 -16q-2 -1 -6 -1zM34 107h222q7 0 12 -5l69 -68l38 -39v95q0 7 5.5 12t12.5 5h85v273h-444v-273zM85 243q0 14 10 24t24 10
t24.5 -10t10.5 -24t-10.5 -24t-24.5 -10t-24 10t-10 24zM222 243q0 14 10 24t24 10t24 -10t10 -24t-10 -24t-24 -10t-24 10t-10 24zM358 243q0 14 10.5 24t24.5 10t24 -10t10 -24t-10 -24t-24 -10t-24.5 10t-10.5 24z" />
    <glyph glyph-name="uniF106" unicode="&#xf106;" horiz-adv-x="154" 
d="M17 55q-7 0 -12 5q-13 12 0 25l107 107l-107 107q-13 13 0 25q12 12 24 0l120 -120q12 -12 0 -24l-120 -120q-5 -5 -12 -5z" />
    <glyph glyph-name="uniF107" unicode="&#xf107;" horiz-adv-x="375" 
d="M188 90q-7 0 -12 5l-171 170q-12 12 0 24t24 0l159 -158l158 158q12 12 24 0t0 -24l-170 -170q-5 -5 -12 -5z" />
    <glyph glyph-name="uniF108" unicode="&#xf108;" horiz-adv-x="273" 
d="M137 115q-7 0 -12 5l-120 120q-12 12 0 24t24 0l108 -108l107 108q12 12 24 0t0 -25l-119 -119q-5 -5 -12 -5z" />
    <glyph glyph-name="uniF109" unicode="&#xf109;" 
d="M256 56q-7 0 -12 5l-239 239q-12 12 0 24t24 0l227 -227l227 227q12 12 24 0t0 -24l-239 -239q-5 -5 -12 -5z" />
    <glyph glyph-name="uniF10A" unicode="&#xf10a;" horiz-adv-x="205" 
d="M188 4q-7 0 -12 5l-171 171q-12 12 0 24l171 171q12 12 24 0t0 -24l-159 -159l159 -159q12 -12 0 -24q-5 -5 -12 -5z" />
    <glyph glyph-name="uniF10B" unicode="&#xf10b;" horiz-adv-x="154" 
d="M137 55q-8 0 -13 5l-119 120q-12 12 0 24l119 120q12 12 25 0t0 -25l-108 -107l108 -107q13 -13 0 -25q-5 -5 -12 -5z" />
    <glyph glyph-name="uniF10C" unicode="&#xf10c;" horiz-adv-x="273" 
d="M256 -64q-7 0 -12 5l-239 239q-12 12 0 24l239 239q12 12 24 0t0 -24l-227 -227l227 -227q12 -12 0 -24q-5 -5 -12 -5z" />
    <glyph glyph-name="uniF10D" unicode="&#xf10d;" horiz-adv-x="205" 
d="M17 4q-7 0 -12 5q-12 12 0 24l159 159l-159 159q-12 12 0 24t24 0l171 -171q12 -12 0 -24l-171 -171q-5 -5 -12 -5z" />
    <glyph glyph-name="uniF10E" unicode="&#xf10e;" horiz-adv-x="273" 
d="M17 -64q-7 0 -12 5q-12 12 0 24l227 227l-227 227q-12 12 0 24t24 0l239 -239q12 -12 0 -24l-239 -239q-5 -5 -12 -5z" />
    <glyph glyph-name="uniF10F" unicode="&#xf10f;" horiz-adv-x="375" 
d="M358 90q-7 0 -12 5l-158 158l-159 -158q-12 -12 -24 0t0 24l171 170q12 12 24 0l170 -170q12 -12 0 -24q-5 -5 -12 -5z" />
    <glyph glyph-name="uniF110" unicode="&#xf110;" horiz-adv-x="273" 
d="M256 115q-7 0 -12 5l-107 108l-108 -108q-12 -12 -24 0t0 24l119 120q12 12 25 0l119 -120q12 -12 0 -24q-5 -5 -12 -5z" />
    <glyph glyph-name="uniF111" unicode="&#xf111;" 
d="M495 56q-7 0 -12 5l-227 227l-227 -227q-12 -12 -24 0t0 24l239 239q5 5 12 5t12 -5l239 -239q12 -12 0 -24q-5 -5 -12 -5z" />
    <glyph glyph-name="uniF112" unicode="&#xf112;" 
d="M256 414q-45 0 -86 -18q-42 -18 -71 -47t-47 -71q-18 -41 -18 -86t18 -86q18 -42 47 -71q31 -31 71 -48q38 -17 86 -17t86 17q40 17 71 48q29 29 47 71q18 40 18 86q0 45 -18 86q-18 42 -47 71t-71 47q-40 18 -86 18zM256 448q106 0 181 -75t75 -181t-75 -181t-181 -75
t-181 75t-75 181t75 181t181 75z" />
    <glyph glyph-name="uniF113" unicode="&#xf113;" 
d="M0 192q0 106 75 181t181 75t181 -75t75 -181t-75 -181t-181 -75t-181 75t-75 181z" />
    <glyph glyph-name="uniF114" unicode="&#xf114;" horiz-adv-x="273" 
d="M161 192l107 -107q12 -13 0 -25q-5 -5 -12 -5t-12 5l-107 108l-108 -108q-5 -5 -12 -5t-12 5q-13 12 0 25l107 107l-107 107q-13 13 0 25q12 12 24 0l108 -108l107 108q12 12 24 0t0 -25z" />
    <glyph glyph-name="uniF115" unicode="&#xf115;" horiz-adv-x="444" 
d="M246 192l193 -193q12 -12 0 -24q-5 -5 -12 -5t-12 5l-193 193l-193 -193q-5 -5 -12 -5t-12 5q-12 12 0 24l193 193l-193 193q-12 12 0 24t24 0l193 -193l193 193q12 12 24 0t0 -24z" />
    <glyph glyph-name="uniF116" unicode="&#xf116;" horiz-adv-x="393" 
d="M348 173q12 -12 0 -24l-140 -140q-5 -5 -12 -5t-12 5l-139 140q-12 12 0 24t24 0l110 -110v368q0 7 5 12t12 5t12 -5t5 -12v-368l111 110q12 12 24 0zM375 -64h-358q-7 0 -12 5t-5 12t5 12t12 5h358q7 0 12.5 -5t5.5 -12t-5.5 -12t-12.5 -5z" />
    <glyph glyph-name="uniF117" unicode="&#xf117;" horiz-adv-x="482" 
d="M480 341q7 -11 -3 -20l-313 -312q-4 -5 -6 -5h-1q-1 -1 -2 -1l-132 -50q-2 -1 -6 -1q-7 0 -12 5q-7 7 -4 18l51 132q0 1 1 2t1 2q2 4 3 5l309 309h1l1 2q5 5 14 5q12 0 29 -12q13 -9 31 -27q17 -17 29 -34q2 -3 8 -15l1 -1v-2zM374 385l-286 -287q10 -15 27 -32t32 -27
l286 287l-1 1q-17 12 -31 26q-15 15 -27 32zM71 63l-24 -65l65 25q-14 12 -21 19q-14 14 -20 21z" />
    <glyph glyph-name="uniF118" unicode="&#xf118;" 
d="M495 311q7 0 12 -5t5 -12v-341q0 -7 -5 -12t-12 -5h-478q-7 0 -12 5t-5 12v341q0 7 5 12t12 5h478zM457 277h-402l201 -147zM34 -30h444v280l-212 -155q-4 -3 -10 -3t-10 3l-212 155v-280z" />
    <glyph glyph-name="uniF119" unicode="&#xf119;" horiz-adv-x="446" 
d="M150 396v-187q68 0 103 3q20 2 26.5 8t11.5 26l10 40h29l-4 -92l2 -91h-30l-8 36q-4 19 -13 26t-24 8l-103 2v-158q0 -44 52 -44h103q21 0 34 2.5t28.5 14.5t25.5 35l27 62h26q-12 -80 -18 -151q-96 3 -137 3h-182l-109 -3v29l37 7q19 4 26.5 11t7.5 23q2 68 2 183
l-2 185q-1 18 -7.5 24t-26.5 10l-37 7v29l109 -4h204l109 8q-5 -44 -10 -145h-27l-9 36q-17 68 -54 68h-159q-13 0 -13 -11z" />
    <glyph glyph-name="uniF11A" unicode="&#xf11a;" horiz-adv-x="63" 
d="M32 -1q13 0 22 -9t9 -22t-9 -22.5t-22 -9.5t-22.5 9.5t-9.5 22.5t9.5 22t22.5 9zM44 72q-2 -14 -12 -14t-12 14l-11 146v207q0 9 6.5 16t16.5 7t16 -7t6 -16v-207z" />
    <glyph glyph-name="uniF11B" unicode="&#xf11b;" horiz-adv-x="48" 
d="M24 52q10 0 17 -7t7 -17t-7 -17t-17 -7t-17 7t-7 17t7 17t17 7zM33 106q-2 -10 -9 -10t-9 10l-8 111v157q0 7 5 12t12 5t12 -5t5 -12v-157z" />
    <glyph glyph-name="uniF11C" unicode="&#xf11c;" horiz-adv-x="239" 
d="M52 349q0 9 0.5 15.5t6 24t15.5 29t32.5 21t53.5 9.5h79v-90h-58q-8 0 -15.5 -6.5t-7.5 -13.5v-59h81l-10 -87h-71v-256h-106v256h-52v86h52v71z" />
    <glyph glyph-name="uniF11D" unicode="&#xf11d;" horiz-adv-x="509" 
d="M0 192q0 46 32.5 78.5t78.5 32.5t78.5 -32.5t32.5 -78.5t-32.5 -78.5t-78.5 -32.5t-78.5 32.5t-32.5 78.5zM286 192q0 46 32.5 78.5t78.5 32.5t79 -32.5t33 -78.5t-33 -78.5t-79 -32.5t-78.5 32.5t-32.5 78.5z" />
    <glyph glyph-name="uniF11E" unicode="&#xf11e;" 
d="M505 193q7 -16 7 -28t-7 -28q-5 -11 -17 -24q-13 -13 -25 -20q-12 -8 -31 -16q-9 -4 -38 -13q-15 -5 -42 -10q-23 -5 -46 -6q-48 -3 -50 -3t-50 3q-23 1 -46 6q-27 5 -42 10q-29 9 -38 13q-19 8 -31 16q-13 7 -25 20q-10 10 -17 24q-7 16 -7 28q0 15 6 28q4 8 18 24
q10 10 25 19q16 11 31 17q9 4 38 13q15 5 42 10q9 2 27 4l-42 25q-15 9 -6 23q9 15 23 6l73 -42q6 -3 8 -11q1 -6 -2 -13l-43 -73q-5 -8 -14 -8q-6 0 -9 2q-15 9 -6 24l19 33q-4 -1 -11.5 -2.5t-10.5 -1.5q-21 -3 -39 -9q-8 -2 -33 -12q-17 -7 -27 -13q-11 -7 -19 -15
t-11 -15q-3 -6 -3 -13q0 -8 3 -14q2 -5 11 -14q8 -8 19 -15q14 -9 27 -14q25 -10 33 -12q18 -6 39 -9q41 -6 43 -6q47 -5 94 0q22 1 43 6q21 3 39 9q8 2 33 12q13 5 27 14q11 7 19 15q9 9 11 14q3 6 3 14q0 7 -3 13q-3 7 -11 15t-19 15q-10 6 -27 13q-25 10 -33 12
q-18 6 -39 9q-41 6 -43 6q-7 1 -12 6.5t-4 12.5t6.5 11.5t12.5 3.5q23 -1 46 -6q27 -5 42 -10q29 -9 38 -13q15 -6 31 -17q15 -9 25 -19t17 -24z" />
    <glyph glyph-name="uniF11F" unicode="&#xf11f;" 
d="M504 191q8 -11 8 -24t-8 -24q-7 -10 -18 -17q-10 -7 -25 -13q-15 -7 -31 -11q-6 -2 -19 -4.5t-18 -3.5q-14 -3 -42 -7q-16 -2 -46 -4q-16 -1 -49 -1t-49 1q-30 2 -46 4q-28 4 -42 7q-5 1 -18 3.5t-19 4.5q-16 4 -31 11q-15 6 -25 13q-11 7 -18 17q-8 11 -8 24q0 11 8 24
q7 10 18 17q10 7 25 13q15 7 31 11q11 3 37 9q4 1 42 6q6 0 19 1.5t20 2.5l-30 24q-13 11 -2 24t24 2l58 -47q6 -6 6 -12q0 -7 -4 -12l-47 -58q-5 -7 -14 -7q-6 0 -10 4q-14 12 -3 24l19 23q-22 -2 -32 -3q-21 -3 -39 -6q-17 -3 -34 -8q-20 -6 -28 -9q-6 -2 -19 -10
q-7 -4 -9 -9q-2 -2 -2 -4t2 -4q1 -1 9 -8q13 -8 19 -10q21 -8 28 -10q17 -5 34 -8q18 -3 39 -6q14 -2 44 -4q47 -3 94 0q30 2 44 4q21 3 39 6q17 3 34 8q2 1 27 10q9 3 20 10q7 5 9 8q2 2 2 4t-2 4q-2 3 -9 9q-11 7 -20 10l-27 9q-17 5 -34 8q-18 3 -39 6q-14 2 -44 4
q-7 1 -12 6t-4 12t6 12t12 4q30 -2 46 -4q38 -5 42 -6q26 -6 37 -9q16 -4 31 -11q15 -6 25 -13q11 -7 18 -17z" />
    <glyph glyph-name="uniF120" unicode="&#xf120;" 
d="M501 369q11 0 11 -11v-17q0 -11 -11 -11h-56q-5 0 -8.5 -4t-3.5 -8v-56q0 -11 -11 -11h-17q-11 0 -11 11v56q0 12 -11 12h-57q-11 0 -11 11v17q0 11 11 11h57q11 0 11 11v57q0 11 11 11h17q11 0 11 -11v-57q0 -11 12 -11h56zM33 -33q-15 11 -24 27q-9 17 -9 38
q0 20 11 41q10 19 30 34q18 14 45 22q29 9 47 11q13 2 35 4q11 0 5 10q-13 19 -13 36v8q0 2 2 6q1 1 1.5 3t0.5 3l1 1q1 1 1 2q1 1 -2 2t-8 1q-2 0 -6 -0.5t-5 -0.5q-46 0 -79 30q-32 29 -32 76q0 42 29 77t72 44q29 6 57 6h124q11 0 1 -6l-22 -13q-8 -5 -21 -5h-19
q-11 0 -2 -7q16 -13 25 -32q12 -25 12 -52q0 -24 -7 -41t-18 -28q-2 -2 -6 -6.5t-7.5 -7.5t-6.5 -6q-4 -3 -17 -19q-7 -8 -7 -20q0 -8 5 -16q3 -5 13 -15q7 -8 18 -15q1 -1 20 -17q10 -8 18 -20q9 -13 13 -26q5 -17 5 -33q0 -50 -43 -87q-46 -40 -129 -40q-19 0 -37 3
q-21 4 -38 10q-16 6 -33 18zM146 242q14 -8 30 -8q23 0 36 10q7 5 13 18q8 18 8 40q0 16 -5 39q-3 14 -15 40q-9 20 -26 32q-18 13 -37 13q-29 0 -44 -21t-15 -51q0 -14 3 -31q2 -13 11 -32q7 -15 17 -28t24 -21zM65 79q-8 -13 -8 -33t11 -37q11 -18 28 -26q20 -10 37 -14
q22 -5 40 -5q19 0 34 4t31 12q13 7 23 23q8 13 8 33q0 9 -1 13q-2 8 -3 11q-3 8 -5 11q-1 2 -3.5 4.5t-3.5 4.5q-2 3 -8 9l-8 8l-10 8q-7 5 -10 7t-10 7q-2 1 -4 3q-6 4 -13 4h-8q-10 0 -32 -2q-15 -1 -33 -8q-22 -8 -31 -14q-12 -8 -21 -23z" />
    <glyph glyph-name="uniF121" unicode="&#xf121;" 
d="M239 238q0 -12 -8.5 -20.5t-20.5 -8.5h-181q-12 0 -20.5 8.5t-8.5 20.5v180q0 12 8.5 20.5t20.5 8.5h181q12 0 20.5 -8.5t8.5 -20.5v-180zM239 -34q0 -13 -8.5 -21.5t-21.5 -8.5h-179q-13 0 -21.5 8.5t-8.5 21.5v179q0 13 8.5 21.5t21.5 8.5h179q13 0 21.5 -8.5
t8.5 -21.5v-179zM512 238q0 -12 -8.5 -20.5t-20.5 -8.5h-181q-12 0 -20.5 8.5t-8.5 20.5v181q0 12 8.5 20.5t20.5 8.5h181q12 0 20.5 -8.5t8.5 -20.5v-181zM511 -34q0 -12 -8.5 -20.5t-20.5 -8.5h-179q-12 0 -20.5 8.5t-8.5 20.5v179q0 12 8.5 20.5t20.5 8.5h179
q12 0 20.5 -8.5t8.5 -20.5v-179z" />
    <glyph glyph-name="uniF122" unicode="&#xf122;" 
d="M222 278h-205q-7 0 -12 5t-5 12v102q0 7 5 12t12 5h205q7 0 12 -5t5 -12v-102q0 -7 -5 -12t-12 -5zM495 278h-205q-7 0 -12 5t-5 12v102q0 7 5 12t12 5h205q7 0 12 -5t5 -12v-102q0 -7 -5 -12t-12 -5zM495 -64h-205q-7 0 -12 5t-5 12v102q0 7 5 12.5t12 5.5h205
q7 0 12 -5.5t5 -12.5v-102q0 -7 -5 -12t-12 -5zM495 107h-205q-7 0 -12 5t-5 12v102q0 7 5 12t12 5h205q7 0 12 -5t5 -12v-102q0 -7 -5 -12t-12 -5zM222 -64h-205q-7 0 -12 5t-5 12v102q0 7 5 12.5t12 5.5h205q7 0 12 -5.5t5 -12.5v-102q0 -7 -5 -12t-12 -5zM222 107h-205
q-7 0 -12 5t-5 12v102q0 7 5 12t12 5h205q7 0 12 -5t5 -12v-102q0 -7 -5 -12t-12 -5z" />
    <glyph glyph-name="uniF123" unicode="&#xf123;" horiz-adv-x="444" 
d="M441 297q3 -14 3 -43q0 -19 -7 -47q-9 -33 -27 -66q-48 -85 -157 -157q-13 -9 -31 -9q-19 0 -31 9q-59 38 -103 84q-37 39 -58 79q-16 30 -25 68q-5 25 -5 46q0 18 2 29q6 49 44 84t89 35q37 0 69 -20q12 -8 18 -13q6 5 18 13q32 20 69 20q25 0 47 -9q23 -10 40 -24
q36 -31 45 -79z" />
    <glyph glyph-name="uniF124" unicode="&#xf124;" horiz-adv-x="444" 
d="M309 375q-59 0 -87 -53q-28 53 -87 53q-38 0 -66 -26t-33 -64l-2 -25q-1 -17 4.5 -39t21 -56t54.5 -74.5t96 -77.5q5 -4 12 -4t12 4q54 36 92 74.5t54.5 71.5t23 55t6.5 41q0 23 -3 35q-6 36 -34 60.5t-64 24.5zM309 409q25 0 47 -9q23 -10 40 -24q36 -31 45 -79
q3 -14 3 -43q0 -19 -7 -47q-9 -33 -27 -66q-48 -85 -157 -157q-13 -9 -31 -9q-19 0 -31 9q-59 38 -103 84q-37 39 -58 79q-16 30 -25 68q-5 25 -5 46q0 18 2 29q6 49 44 84t89 35q37 0 69 -20q12 -8 18 -13q6 5 18 13q32 20 69 20z" />
    <glyph glyph-name="uniF125" unicode="&#xf125;" 
d="M256 414q-45 0 -86 -18q-42 -18 -71 -47t-47 -71q-18 -41 -18 -86t18 -86q18 -42 47 -71t71 -47q41 -18 86 -18q46 0 86 18q42 18 71 47t47 71q18 40 18 86q0 45 -18 86q-18 42 -47 71t-71 47q-40 18 -86 18zM256 448q106 0 181 -75t75 -181t-75 -181t-181 -75t-181 75
t-75 181t75 181t181 75zM274 155q0 -23 -24 -23q-10 0 -16.5 7t-6.5 16v7q0 24 16.5 42.5t32.5 32t16 24.5q0 27 -39 27q-24 0 -51 -20q-4 -3 -11 -3q-9 0 -15 6t-6 14q0 24 37 39q26 8 49 8q86 0 86 -68q0 -27 -34 -56.5t-34 -46.5v-6zM251 52q-11 0 -19.5 8t-8.5 20
t8.5 20t19.5 8q12 0 20 -8t8 -20t-8 -20t-20 -8z" />
    <glyph glyph-name="uniF126" unicode="&#xf126;" 
d="M256 412q-44 0 -86 -17q-36 -15 -69 -48t-48 -69q-17 -42 -17 -86t17 -86q15 -36 48 -69t69 -48q42 -17 86 -17t86 17q36 15 69 48t48 69q17 42 17 86t-17 86q-15 36 -48 69t-69 48q-42 17 -86 17zM256 448q106 0 181 -75t75 -181t-75 -181t-181 -75t-181 75t-75 181
t75 181t181 75zM188 284h-3q-11 0 -11 10q0 4 5 11q11 12 26 18q23 9 48 9q44 0 64.5 -17.5t20.5 -46.5q0 -26 -41 -63q-14 -13 -20 -20t-12 -19t-6 -26v-15q0 -11 -13 -11q-12 0 -12 11v17q0 37 38 70q41 34 41 57q0 41 -63 41q-35 0 -56 -21q-4 -4 -6 -5zM247 86
q7 0 12 -5t5 -12t-5 -12t-12 -5t-12.5 5t-5.5 12t5.5 12t12.5 5z" />
    <glyph glyph-name="uniF127" unicode="&#xf127;" horiz-adv-x="299" 
d="M26 360h-7q-19 0 -19 18q0 10 9 20q16 20 48 33q43 17 87 17q81 0 118 -32t37 -84q0 -48 -74 -115q-25 -24 -37 -37t-22.5 -35.5t-10.5 -47.5v-27q0 -9 -6.5 -15t-16.5 -6t-16 6.5t-6 14.5v30q0 70 69 129q23 19 35.5 31.5t26 33t13.5 38.5q0 76 -116 76q-62 0 -101 -39
q-7 -7 -11 -9zM132 -1q13 0 22.5 -9.5t9.5 -22.5t-9.5 -22t-22.5 -9t-22 9t-9 22t9 22.5t22 9.5z" />
    <glyph glyph-name="uniF128" unicode="&#xf128;" horiz-adv-x="228" 
d="M20 320q-2 -1 -5 -1q-15 0 -15 14q0 8 7 15q15 16 36 25q30 13 66 13q61 0 90 -24t29 -64q0 -16 -10 -33.5t-19.5 -28t-27.5 -26.5q-18 -17 -27.5 -27.5t-17.5 -27.5t-8 -36v-20q0 -16 -18 -16q-16 0 -16 16v23q0 54 52 98q57 48 57 78q0 57 -88 57q-48 0 -77 -29
q-5 -5 -8 -6zM101 45q10 0 17 -7t7 -17t-7 -17t-17 -7t-17 7t-7 17t7 17t17 7z" />
    <glyph glyph-name="uniF129" unicode="&#xf129;" horiz-adv-x="64" 
d="M32 448q14 0 23 -9t9 -23t-9 -23t-23 -9t-23 9t-9 23t9 23t23 9zM32 -64q-10 0 -17.5 7t-7.5 18v326q0 11 7.5 18t17.5 7t17.5 -7t7.5 -18v-326q0 -11 -7.5 -18t-17.5 -7z" />
    <glyph glyph-name="uniF12A" unicode="&#xf12a;" horiz-adv-x="43" 
d="M22 344q9 0 15 -6.5t6 -15.5t-6 -15t-15 -6t-15.5 6t-6.5 15t6.5 15.5t15.5 6.5zM22 -4q-17 0 -17 17v222q0 17 17 17t17 -17v-222q0 -17 -17 -17z" />
    <glyph glyph-name="uniF12B" unicode="&#xf12b;" horiz-adv-x="511" 
d="M452 448q25 0 42 -17t17 -42v-394q0 -25 -17 -42t-42 -17h-393q-25 0 -42 17t-17 42v394q0 25 17 42t42 17h393zM354 369v-59q0 -8 6 -14t14 -6h58q8 0 14 6t6 14v59q0 8 -6 14t-14 6h-58q-8 0 -14 -6t-6 -14zM256 290q-41 0 -70 -29t-29 -69t29 -69t70 -29q40 0 69 29
t29 69t-29 69t-69 29zM452 15v216h-44q5 -22 5 -39q0 -65 -46 -111t-111 -46t-111.5 46t-46.5 111q0 17 5 39h-44v-216q0 -8 6 -14t14 -6h354q8 0 13.5 6t5.5 14z" />
    <glyph glyph-name="uniF12C" unicode="&#xf12c;" horiz-adv-x="511" 
d="M239 238q0 -12 -8.5 -20.5t-20.5 -8.5h-181q-12 0 -20.5 8.5t-8.5 20.5v180q0 12 8.5 20.5t20.5 8.5h181q12 0 20.5 -8.5t8.5 -20.5v-180zM239 -34q0 -13 -8.5 -21.5t-21.5 -8.5h-179q-13 0 -21.5 8.5t-8.5 21.5v179q0 13 8.5 21.5t21.5 8.5h179q13 0 21.5 -8.5
t8.5 -21.5v-179zM494 345h-204q-7 0 -12 5t-5 12t5 12t12 5h204q7 0 12 -5t5 -12t-5 -12t-12 -5zM494 277h-204q-7 0 -12 5t-5 12t5 12t12 5h204q7 0 12 -5t5 -12t-5 -12t-12 -5zM494 72h-204q-7 0 -12 5t-5 12t5 12t12 5h204q7 0 12 -5t5 -12t-5 -12t-12 -5zM494 4h-204
q-7 0 -12 5t-5 12t5 12t12 5h204q7 0 12 -5t5 -12t-5 -12t-12 -5z" />
    <glyph glyph-name="uniF12D" unicode="&#xf12d;" horiz-adv-x="511" 
d="M494 379h-204q-7 0 -12 5t-5 12t5 12t12 5h204q7 0 12 -5t5 -12t-5 -12t-12 -5zM494 311h-204q-7 0 -12 5t-5 12t5 12t12 5h204q7 0 12 -5t5 -12t-5 -12t-12 -5zM494 209h-204q-7 0 -12 5t-5 12t5 12t12 5h204q7 0 12 -5t5 -12t-5 -12t-12 -5zM494 140h-204q-7 0 -12 5
t-5 12t5 12t12 5h204q7 0 12 -5t5 -12t-5 -12t-12 -5zM222 278h-205q-7 0 -12 5t-5 12v102q0 7 5 12t12 5h205q7 0 12 -5t5 -12v-102q0 -7 -5 -12t-12 -5zM222 -64h-205q-7 0 -12 5t-5 12v102q0 7 5 12.5t12 5.5h205q7 0 12 -5.5t5 -12.5v-102q0 -7 -5 -12t-12 -5zM222 107
h-205q-7 0 -12 5t-5 12v102q0 7 5 12t12 5h205q7 0 12 -5t5 -12v-102q0 -7 -5 -12t-12 -5zM494 38h-204q-7 0 -12 5t-5 12t5 12t12 5h204q7 0 12 -5t5 -12t-5 -12t-12 -5zM494 -30h-204q-7 0 -12 5t-5 12t5 12t12 5h204q7 0 12 -5t5 -12t-5 -12t-12 -5z" />
    <glyph glyph-name="uniF12E" unicode="&#xf12e;" horiz-adv-x="307" 
d="M290 175h-273q-7 0 -12 5t-5 12t5 12t12 5h273q7 0 12 -5t5 -12t-5 -12t-12 -5z" />
    <glyph glyph-name="uniF12F" unicode="&#xf12f;" horiz-adv-x="511" 
d="M494 175h-477q-7 0 -12 5t-5 12t5 12t12 5h477q7 0 12 -5t5 -12t-5 -12t-12 -5z" />
    <glyph glyph-name="uniF130" unicode="&#xf130;" horiz-adv-x="341" 
d="M0 192q0 14 10 24t24 10t24 -10t10 -24t-10 -24t-24 -10t-24 10t-10 24zM137 192q0 14 10 24t24 10t24 -10t10 -24t-10 -24t-24 -10t-24 10t-10 24zM273 192q0 14 10 24t24 10t24 -10t10 -24t-10 -24t-24 -10t-24 10t-10 24z" />
    <glyph glyph-name="uniF131" unicode="&#xf131;" 
d="M352 251l-182 182q40 15 86 15q48 0 96 -19v-178zM384 96v318q59 -33 93.5 -92.5t34.5 -129.5q0 -48 -19 -96h-109zM160 64h318q-33 -59 -92.5 -93.5t-129.5 -34.5q-48 0 -96 19v109zM213 336l-206 -206q-7 28 -7 62q0 71 36 130.5t97 93.5zM128 197v-227
q-73 42 -107 120z" />
    <glyph glyph-name="uniF132" unicode="&#xf132;" 
d="M256 448q106 0 181 -75t75 -181t-75 -181t-181 -75q-40 0 -73 10q20 29 26 55l18 71q7 -13 25 -22.5t38 -9.5q61 0 99.5 49.5t38.5 125.5q0 59 -45.5 103t-116.5 44q-85 0 -134 -49.5t-49 -110.5q0 -76 52 -98q10 -3 13 7l5 20q2 7 -3 14q-17 20 -17 51q0 51 34.5 86.5
t91.5 35.5q50 0 78 -27.5t28 -70.5q0 -57 -22.5 -96.5t-58.5 -39.5q-20 0 -32 14.5t-8 34.5q3 10 9 30.5t9.5 35.5t3.5 25q0 17 -9 28t-25 11q-20 0 -35 -19.5t-15 -47.5q0 -11 2 -21t4 -15l3 -4q-28 -119 -33 -140q-7 -26 -5 -58q-69 31 -111 94t-42 140q0 106 75 181
t181 75z" />
    <glyph glyph-name="uniF133" unicode="&#xf133;" horiz-adv-x="396" 
d="M210 448q81 0 133.5 -50.5t52.5 -118.5q0 -87 -44 -144t-114 -57q-23 0 -43.5 11t-28.5 26q-17 -68 -21 -81q-11 -41 -53 -96q-3 -4 -6 -1q-1 0 -1 2q-10 62 1 112l38 160q-10 19 -10 47q0 33 16.5 54.5t40.5 21.5q19 0 29.5 -12.5t10.5 -31.5q0 -12 -4.5 -29t-11.5 -40
t-10 -36q-5 -23 8.5 -39.5t37.5 -16.5q41 0 67 45.5t26 110.5q0 50 -32 81.5t-90 31.5q-65 0 -105 -41.5t-40 -99.5q0 -35 20 -58q6 -8 4 -16q-1 -2 -3 -11.5t-3 -12.5q-3 -12 -15 -7q-60 25 -60 112q0 70 56 127t154 57z" />
    <glyph glyph-name="uniF134" unicode="&#xf134;" horiz-adv-x="375" 
d="M368 206q7 -4 7 -14t-7 -14l-341 -239q-5 -3 -10 -3q-4 0 -8 2q-9 4 -9 15v478q0 11 9 15q10 5 18 -1z" />
    <glyph glyph-name="uniF135" unicode="&#xf135;" horiz-adv-x="375" 
d="M17 -64q-4 0 -8 2q-9 4 -9 15v478q0 11 9 15q10 5 18 -1l341 -239q7 -4 7 -14t-7 -14l-341 -239q-5 -3 -10 -3zM34 398v-412l295 206z" />
    <glyph glyph-name="uniF136" unicode="&#xf136;" horiz-adv-x="307" 
d="M290 209q7 0 12 -5t5 -12t-5 -12t-12 -5h-119v-120q0 -7 -5 -12t-12 -5t-12 5t-5 12v120h-120q-7 0 -12 5t-5 12t5 12t12 5h120v120q0 7 5 12t12 5t12 -5t5 -12v-120h119z" />
    <glyph glyph-name="uniF137" unicode="&#xf137;" horiz-adv-x="511" 
d="M494 209q7 0 12 -5t5 -12t-5 -12t-12 -5h-221v-221q0 -7 -5.5 -12t-12.5 -5t-12 5t-5 12v221h-221q-7 0 -12 5t-5 12t5 12t12 5h221v221q0 7 5 12t12 5t12.5 -5t5.5 -12v-221h221z" />
    <glyph glyph-name="uniF138" unicode="&#xf138;" 
d="M507 272q5 -5 5 -12v-205q0 -7 -5 -12t-12 -5h-51v-85q0 -7 -5 -12t-12 -5h-342q-7 0 -12 5t-5 12v85h-51q-7 0 -12 5t-5 12v205q0 7 5 12t12 5h85v120q0 7 5 12t12 5h274q7 0 12 -5t5 -12v-120h85q7 0 12 -5zM137 380v-103h238v103h-238zM410 -30v85v86h-308v-86v-85
h308z" />
    <glyph glyph-name="uniF139" unicode="&#xf139;" 
d="M160 416h-128v-128h128v128zM192 448v-192h-192v192h192zM64 384h64v-64h-64v64zM480 416h-128v-128h128v128zM512 448v-192h-192v192h192zM384 384h64v-64h-64v64zM160 96h-128v-128h128v128zM192 128v-192h-192v192h192zM64 64h64v-64h-64v64zM224 448h32v-32h-32v32z
M256 416h32v-32h-32v32zM224 384h32v-32h-32v32zM256 352h32v-32h-32v32zM224 320h32v-32h-32v32zM256 288h32v-32h-32v32zM224 256h32v-32h-32v32zM224 192h32v-32h-32v32zM256 160h32v-32h-32v32zM224 128h32v-32h-32v32zM256 96h32v-32h-32v32zM224 64h32v-32h-32v32z
M256 32h32v-32h-32v32zM224 0h32v-32h-32v32zM256 -32h32v-32h-32v32zM480 192h32v-32h-32v32zM32 192h32v-32h-32v32zM64 224h32v-32h-32v32zM0 224h32v-32h-32v32zM128 224h32v-32h-32v32zM160 192h32v-32h-32v32zM192 224h32v-32h-32v32zM288 192h32v-32h-32v32zM320 224
h32v-32h-32v32zM352 192h32v-32h-32v32zM384 224h32v-32h-32v32zM416 192h32v-32h-32v32zM448 224h32v-32h-32v32zM480 128h32v-32h-32v32zM288 128h32v-32h-32v32zM320 160h32v-32h-32v32zM352 128h32v-32h-32v32zM416 128h32v-32h-32v32zM448 160h32v-32h-32v32zM480 64
h32v-32h-32v32zM288 64h32v-32h-32v32zM320 96h32v-32h-32v32zM384 96h32v-32h-32v32zM416 64h32v-32h-32v32zM448 96h32v-32h-32v32zM480 0h32v-32h-32v32zM320 32h32v-32h-32v32zM352 0h32v-32h-32v32zM384 32h32v-32h-32v32zM416 0h32v-32h-32v32zM320 -32h32v-32h-32v32
zM384 -32h32v-32h-32v32zM448 -32h32v-32h-32v32z" />
    <glyph glyph-name="uniF13A" unicode="&#xf13a;" horiz-adv-x="307" 
d="M290 -64q-8 0 -13 6l-40 42l-30 -41q-5 -7 -14 -7t-14 7l-29 39l-29 -39q-5 -7 -13 -7q-9 0 -14 7l-30 40l-34 -41q-8 -8 -19 -5t-11 16v444q0 7 5 12t12 5h273q7 0 12 -5t5 -12v-444v0q0 -7 -5 -12t-12 -5zM150 27q9 0 14 -7l29 -38l29 38q5 7 13 7q9 0 13 -5l25 -26
v384h-239v-380l18 21q4 6 14 6q8 0 13 -7l29 -38l29 38q5 7 13 7zM150 10zM222 209h-137q-7 0 -12 5t-5 12t5 12t12 5h137q7 0 12 -5t5 -12t-5 -12t-12 -5zM222 277h-137q-7 0 -12 5t-5 12t5 12t12 5h137q7 0 12 -5t5 -12t-5 -12t-12 -5zM154 140h-69q-7 0 -12 5t-5 12t5 12
t12 5h69q7 0 12 -5t5 -12t-5 -12t-12 -5z" />
    <glyph glyph-name="uniF13B" unicode="&#xf13b;" 
d="M507 205q12 -12 0 -24l-53 -53q-6 -6 -12 -6t-12 6l-53 53q-12 12 0 24t24 0l23 -24q0 2 0.5 5.5t0.5 5.5q0 22 -4 39q-4 18 -12 37q-7 18 -18 33q-14 20 -23 29q-12 12 -29 24q-14 9 -34 18q-14 6 -36 11q-39 8 -79 0q-24 -5 -37 -11q-18 -8 -33 -18q-17 -12 -29 -24
q-9 -9 -23 -29q-10 -15 -18 -33q-8 -19 -12 -37q-4 -17 -4 -39t4 -39q4 -18 12 -37q8 -18 18 -33q12 -17 24 -29q15 -15 28 -24q14 -9 34 -18q14 -6 36 -11q40 -8 79 0q24 5 37 11q18 8 33 18q14 9 23 -5q9 -15 -4 -23q-18 -12 -39 -21q-24 -10 -43 -14q-20 -4 -46 -4
q-27 0 -47 4q-19 4 -43 14q-21 9 -39 21t-34 28t-28 34t-21 39q-8 19 -13 43q-5 25 -5 46t5 46q5 24 13 43q9 21 21 39t28 34t34 28t39 21q24 10 43 14q47 9 93 0q19 -4 43 -14q21 -9 39 -21t34 -28t28 -34t21 -39q8 -19 13 -43q5 -25 5 -46v-11l24 24q12 12 24 0z" />
    <glyph glyph-name="uniF13C" unicode="&#xf13c;" horiz-adv-x="256" 
d="M102 73q-7 0 -12 5t-5 12q0 28 -19.5 48t-48.5 20q-7 0 -12 5t-5 12t5 12t12 5q42 0 72 -30t30 -72q0 -7 -5 -12t-12 -5zM171 73q-7 0 -12 5t-5 12q0 56 -40 96t-97 40q-7 0 -12 5t-5 12t5 12t12 5q37 0 67 -13q31 -14 54 -37q21 -21 36 -54q14 -33 14 -66q0 -7 -5 -12
t-12 -5zM239 73q-7 0 -12 5t-5 12q0 43 -16 79q-15 36 -44 65t-65 44q-36 16 -80 16q-7 0 -12 5t-5 12t5 12.5t12 5.5q47 0 93 -19q44 -19 76 -51t51 -76q19 -46 19 -93q0 -7 -5 -12t-12 -5zM0 98q0 10 8 18t18 8t17.5 -7.5t7.5 -18.5q0 -10 -7.5 -17.5t-17.5 -7.5
q-11 0 -18.5 7.5t-7.5 17.5z" />
    <glyph glyph-name="uniF13D" unicode="&#xf13d;" 
d="M512 448v-34h-102q-7 0 -12 5t-5 12t5 12t12 5h102zM341 448q7 0 12 -5t5 -12t-5 -12t-12 -5h-102q-7 0 -12 5t-5 12t5 12t12 5h102zM171 448q7 0 12 -5t5 -12t-5 -12t-12 -5h-103q-7 0 -12 5t-5 12t5 12t12 5h103zM34 448v-102q0 -7 -5 -12t-12 -5t-12 5t-5 12v102h34z
M17 294q7 0 12 -5t5 -12v-102q0 -7 -5 -12t-12 -5t-12 5t-5 12v102q0 7 5 12t12 5zM17 124q7 0 12 -5t5 -12v-103q0 -7 -5 -12t-12 -5t-12 5t-5 12v103q0 7 5 12t12 5zM102 -30q7 0 12 -5t5 -12t-5 -12t-12 -5h-102v34h102zM273 -30q7 0 12 -5t5 -12t-5 -12t-12 -5h-102
q-7 0 -12 5t-5 12t5 12t12 5h102zM444 -30q7 0 12 -5t5 -12t-5 -12t-12 -5h-103q-7 0 -12 5t-5 12t5 12t12 5h103zM495 55q7 0 12 -5t5 -12v-102h-34v102q0 7 5 12t12 5zM495 226q7 0 12 -5t5 -12v-102q0 -7 -5 -12t-12 -5t-12 5t-5 12v102q0 7 5 12t12 5zM495 397
q7 0 12 -5t5 -12v-103q0 -7 -5 -12t-12 -5t-12 5t-5 12v103q0 7 5 12t12 5z" />
    <glyph glyph-name="uniF13E" unicode="&#xf13e;" 
d="M507 383q5 -5 5 -12v-418q0 -7 -5 -12t-12 -5h-85h-35h-238h-35h-85q-7 0 -12 5t-5 12v478q0 7 5 12t12 5h85h35h238h35h25q7 0 12 -5zM375 414h-238v-103h238v103zM137 -30h238v171h-238v-171zM478 -30v394l-50 50h-18v-120q0 -7 -5 -12t-12 -5h-274q-7 0 -12 5t-5 12
v120h-68v-444h68v188q0 7 5 12t12 5h274q7 0 12 -5t5 -12v-188h68z" />
    <glyph glyph-name="uniF13F" unicode="&#xf13f;" horiz-adv-x="510" 
d="M505 -35q12 -12 0 -24q-5 -5 -12 -5t-12 5l-174 175q-23 -18 -47 -28q-34 -15 -73 -15q-37 0 -72 15q-34 14 -60 40t-40 60q-15 34 -15 73q0 37 15 72q14 34 40 60q27 27 59 40q35 15 73 15q39 0 73 -15q34 -14 60 -40q27 -27 40 -59q15 -34 15 -73t-15 -73
q-11 -27 -29 -48zM187 107q64 0 109 45t45 109q0 63 -45 108t-109 45q-63 0 -108 -45t-45 -108q0 -64 45 -109t108 -45z" />
    <glyph glyph-name="uniF140" unicode="&#xf140;" horiz-adv-x="446" 
d="M111 347q-27 -1 -40 13t-11 34q2 19 17.5 33t38.5 14q28 0 44 -12t18 -29q2 -20 -16 -36t-51 -17zM347 353q-28 -1 -42 13t-12 34q2 18 16.5 32t37.5 16q29 2 47 -13t18 -35q0 -18 -16.5 -31.5t-48.5 -15.5zM375 252q72 7 71 -50q-1 -60 -69 -142q-78 -94 -165 -118
q-23 -6 -44 -6q-95 0 -142 94q-36 73 -23 146q11 58 47 59q200 5 325 17zM173 -11q76 0 151 83q54 59 59 102q1 24 -19 25q-34 0 -123 -5.5t-181 -9.5q-17 -1 -21 -49.5t28.5 -97t105.5 -48.5z" />
    <glyph glyph-name="uniF141" unicode="&#xf141;" horiz-adv-x="300" 
d="M300 97l-150 -156l-150 156h300z" />
    <glyph glyph-name="uniF142" unicode="&#xf142;" horiz-adv-x="300" 
d="M0 290l150 156l150 -156h-300z" />
    <glyph glyph-name="uniF143" unicode="&#xf143;" horiz-adv-x="300" 
d="M300 97l-150 -156l-150 156h300zM0 290l150 156l150 -156h-300z" />
    <glyph glyph-name="uniF144" unicode="&#xf144;" horiz-adv-x="375" 
d="M153 43q-7 0 -11 4l-137 127q-12 10 0 24q11 12 24 1l122 -114l194 250q12 14 24 3q14 -12 3 -24l-205 -265q-5 -6 -12 -6h-2z" />
    <glyph glyph-name="uniF145" unicode="&#xf145;" 
d="M208 -10q-8 0 -12 4l-191 177q-12 10 0 24q11 12 24 1l177 -164l275 356q12 14 24 3q14 -12 3 -24l-287 -371q-5 -6 -12 -6h-1z" />
    <glyph glyph-name="uniF146" unicode="&#xf146;" horiz-adv-x="509" 
d="M492 39q7 0 12 -5t5 -12t-5 -12t-12 -5h-49v-51q0 -7 -5 -12t-12 -5t-12 5t-5 12v51h-308v-51q0 -7 -5 -12t-12 -5t-12 5t-5 12v51h-50q-7 0 -12 5t-5 12t5 12t12 5h50v307h-50q-7 0 -12 5t-5 12t5 12.5t12 5.5h50v49q0 7 5 12t12 5t12 -5t5 -12v-49h308v49q0 7 5 12
t12 5t12 -5t5 -12v-49h49q7 0 12 -5.5t5 -12.5t-5 -12t-12 -5h-49v-307h49zM101 39h308v307h-308v-307z" />
    <glyph glyph-name="uniF147" unicode="&#xf147;" horiz-adv-x="381" 
d="M317 64q27 0 46 -19q18 -18 18 -45t-18 -45q-19 -19 -45 -19h-127q-79 0 -135 56t-56 135v257q0 26 19 45t45 19q27 0 45 -19q19 -21 19 -45v-93h180q25 0 42 -17t17 -42t-17 -42q-18 -18 -42 -18h-180v-45q0 -26 18 -44q19 -19 45 -19h126z" />
    <glyph glyph-name="uniF148" unicode="&#xf148;" 
d="M512 351q-22 -33 -53 -55l1 -13q0 -72 -33.5 -139t-103.5 -113.5t-162 -46.5q-89 0 -161 47q8 -1 25 -1q72 0 130 45q-34 1 -61 21t-37 52q12 -2 20 -2q15 0 28 3q-36 8 -60 36.5t-24 66.5v2q20 -11 47 -13q-47 32 -47 87q0 28 15 53q84 -104 216 -110q-3 12 -3 24
q0 43 30.5 74t74.5 31q46 0 77 -33q39 8 67 25q-13 -38 -46 -58q30 4 60 17z" />
    <glyph glyph-name="uniF149" unicode="&#xf149;" horiz-adv-x="393" 
d="M348 235q12 -12 0 -24q-5 -5 -12 -5t-12 5l-110 110v-368q0 -7 -5 -12t-12 -5t-12.5 5t-5.5 12v368l-110 -110q-12 -12 -24 0t0 24l139 140q12 13 25 0zM375 414h-358q-7 0 -12 5t-5 12t5 12t12 5h358q7 0 12.5 -5t5.5 -12t-5.5 -12t-12.5 -5z" />
    <glyph glyph-name="uniF14A" unicode="&#xf14a;" horiz-adv-x="444" 
d="M223 311q-56 0 -102 -33q-30 -22 -71 -69q-10 -12 -15 -17q5 -5 15 -17q41 -47 71 -69q46 -33 102 -33q55 0 100 32q27 19 69 68q3 3 8.5 9.5t8.5 9.5q-3 3 -8.5 9.5t-8.5 9.5q-42 49 -69 68q-45 32 -100 32zM223 346q32 0 59.5 -8t53.5 -27.5t38 -30t36 -38t25 -28.5
q9 -10 9 -22.5t-9 -22.5q-4 -4 -21.5 -24t-27 -30t-30 -27t-38 -26t-43 -16.5t-52.5 -7.5t-52.5 7.5t-43 16.5t-39 26.5t-31 27.5t-27 30t-21.5 24q-9 10 -9 22.5t9 22.5q3 3 21.5 24t27.5 30t30.5 27t39 26.5t43 16t52.5 7.5zM154 192q0 28 20 48t48 20t48 -20t20 -48
t-20 -48t-48 -20t-48 20t-20 48z" />
    <glyph glyph-name="uniF14B" unicode="&#xf14b;" horiz-adv-x="444" 
d="M222 107q-35 0 -60 25t-25 60t25 60.5t60 25.5t60 -25.5t25 -60.5t-25 -60t-60 -25zM222 243q-21 0 -36 -15t-15 -36t15 -36t36 -15t36 15t15 36t-15 36t-36 15zM223 311q-56 0 -102 -33q-30 -22 -71 -69q-10 -12 -15 -17q5 -5 15 -17q41 -47 71 -69q46 -33 102 -33
q55 0 100 32q27 19 69 68q3 3 8.5 9.5t8.5 9.5q-3 3 -8.5 9.5t-8.5 9.5q-42 49 -69 68q-45 32 -100 32zM223 346q32 0 59.5 -8t53.5 -27.5t38 -30t36 -38t25 -28.5q9 -10 9 -22.5t-9 -22.5q-4 -4 -21.5 -24t-27 -30t-30 -27t-38 -26t-43 -16.5t-52.5 -7.5t-52.5 7.5
t-43 16.5t-39 26.5t-31 27.5t-27 30t-21.5 24q-9 10 -9 22.5t9 22.5q3 3 21.5 24t27.5 30t30.5 27t39 26.5t43 16t52.5 7.5z" />
    <glyph glyph-name="uniF14C" unicode="&#xf14c;" horiz-adv-x="510" 
d="M256 277q7 0 12 -5t5 -12t-5 -12t-12 -5h-52v-50q0 -7 -5 -12.5t-12 -5.5t-12 5.5t-5 12.5v50h-51q-7 0 -12 5t-5 12t5 12t12 5h51v52q0 7 5 12t12 5t12 -5t5 -12v-52h52zM505 -35q12 -12 0 -24q-5 -5 -12 -5t-12 5l-174 175q-23 -18 -47 -28q-34 -15 -73 -15
q-37 0 -72 15q-34 14 -60 40t-40 60q-15 34 -15 73q0 37 15 72q14 34 40 60q27 27 59 40q35 15 73 15q39 0 73 -15q34 -14 60 -40q27 -27 40 -59q15 -34 15 -73t-15 -73q-11 -27 -29 -48zM187 107q64 0 109 45t45 109q0 63 -45 108t-109 45q-63 0 -108 -45t-45 -108
q0 -64 45 -109t108 -45z" />
    <glyph glyph-name="uniF14D" unicode="&#xf14d;" horiz-adv-x="510" 
d="M256 243h-137q-7 0 -12 5t-5 12t5 12t12 5h137q7 0 12 -5t5 -12t-5 -12t-12 -5zM505 -35q12 -12 0 -24q-5 -5 -12 -5t-12 5l-174 175q-23 -18 -47 -28q-34 -15 -73 -15q-37 0 -72 15q-34 14 -60 40t-40 60q-15 34 -15 73q0 37 15 72q14 34 40 60q27 27 59 40q35 15 73 15
q39 0 73 -15q34 -14 60 -40q27 -27 40 -59q15 -34 15 -73t-15 -73q-11 -27 -29 -48zM187 107q64 0 109 45t45 109q0 63 -45 108t-109 45q-63 0 -108 -45t-45 -108q0 -64 45 -109t108 -45z" />
    <glyph glyph-name="uniF14E" unicode="&#xf14e;" 
d="M256 109q12 0 20 -8t8 -20t-8 -20t-20 -8t-20 8t-8 20t8 20t20 8zM256 136q-10 0 -12 12l-13 63v96q0 10 7.5 17t17.5 7t17.5 -7t7.5 -17v-96l-13 -63q-2 -12 -12 -12zM256 448q106 0 181 -75t75 -181t-75 -181t-181 -75t-181 75t-75 181t75 181t181 75zM413 35
q29 29 47 71q18 40 18 86q0 45 -18 86q-18 42 -47 71t-71 47q-40 18 -86 18q-45 0 -86 -18q-42 -18 -71 -47t-47 -71q-18 -41 -18 -86t18 -86q18 -42 47 -71t71 -47q41 -18 86 -18q46 0 86 18q42 18 71 47z" />
    <glyph glyph-name="uniF14F" unicode="&#xf14f;" horiz-adv-x="383" 
d="M228 57v-8q0 -16 -10 -26q-11 -11 -26 -11q-16 0 -27 11t-11 26v1q1 2 1 3v4l2 6q1 6 11 25q6 12 24 39q12 -18 23 -40q10 -20 11 -23q2 -6 2 -7zM35 350l105 -166h103l105 166h-313zM250 160h-117q-7 0 -10 5l-121 190q-5 7 0 13q3 6 11 6h357q8 0 11 -6q4 -8 0 -13
l-120 -190q-3 -5 -11 -5zM255 302q0 -8 -6 -14q-5 -5 -13 -5t-13 5t-5 14q0 8 5 13t13 5t13 -5q6 -6 6 -13zM165 302q0 -9 -5 -14t-14 -5t-13 5q-5 7 -5 14q0 6 5 13q4 5 13 5t14 -5t5 -13zM210 232q0 -5 -6 -13q-4 -5 -12 -5q-9 0 -14 5t-5 13t5 13t14 5q8 0 12 -5
q6 -8 6 -13z" />
    <glyph glyph-name="uniF150" unicode="&#xf150;" horiz-adv-x="315" 
d="M0 311q0 5 3 8t9 3h241q5 0 8 -3t3 -8v-66h40q5 0 8 -3t3 -9v-159q0 -6 -3 -9t-8 -3h-241q-6 0 -9 3t-3 9v65h-39q-4 0 -8 4t-4 8v160zM292 221h-217v-135h217v135zM241 299h-217v-136h27v70q0 6 3 9t9 3h178v54z" />
    <glyph glyph-name="uniF151" unicode="&#xf151;" 
d="M256 375q106 0 181 -75t75 -181v-29q0 -12 -12 -12t-12 12v29q0 96 -68 164t-164 68t-164 -68t-68 -164v-29q0 -12 -12 -12t-12 12v29q0 106 75 181t181 75zM290 175q9 8 17 -2t-1 -17l-62 -51q-3 -3 -8 -3q-7 0 -10 5q-8 9 2 17zM61 139q0 10 7 17t17 7t17.5 -7t7.5 -17
t-7.5 -17t-17.5 -7t-17 7t-7 17zM110 237q0 10 7 17t17 7t17.5 -7t7.5 -17t-7.5 -17.5t-17.5 -7.5t-17 7.5t-7 17.5zM232 285q0 10 7 17.5t17 7.5t17 -7.5t7 -17.5t-7 -17t-17 -7t-17 7t-7 17zM353 237q0 10 7.5 17t17.5 7t17 -7t7 -17t-7 -17.5t-17 -7.5t-17.5 7.5
t-7.5 17.5zM402 139q0 10 7.5 17t17.5 7t17 -7t7 -17t-7 -17t-17 -7t-17.5 7t-7.5 17z" />
    <glyph glyph-name="uniF152" unicode="&#xf152;" horiz-adv-x="372" 
d="M293 293q-6 6 -6 12q0 7 6 13q5 5 12 5t12 -5q5 -7 5 -13q0 -5 -5 -12q-5 -5 -12 -5t-12 5zM55 318q5 5 12 5t12 -5q6 -6 6 -13q0 -6 -6 -12q-5 -5 -12 -5t-12 5q-5 7 -5 12q0 6 5 13zM337 186q0 8 5 13t12 5q8 0 13 -5t5 -13q0 -7 -5 -12t-13 -5q-7 0 -12 5t-5 12z
M0 186q0 9 5 13q7 5 13 5q7 0 12 -5t5 -13q0 -7 -5 -12t-12 -5q-6 0 -13 5q-5 4 -5 12zM186 372q6 0 13 -5q5 -4 5 -12q0 -9 -5 -13q-7 -5 -13 -5q-8 0 -13 5t-5 13q0 7 5 12t13 5zM224 240q8 -45 9 -59q1 -17 1 -33q0 -2 -0.5 -5t-0.5 -4q0 -3 -3 -9q-8 -18 -26 -26t-37 0
q-18 7 -25 25q-8 20 -1 37l2 4l2 4l1 1l6 7q5 6 25 23q18 15 47 35z" />
    <glyph glyph-name="uniF153" unicode="&#xf153;" horiz-adv-x="510" 
d="M241 83q13 13 27 0q12 -12 0 -24l-120 -120q-2 0 -3 -1.5t-3 -1.5h-7h-4l-6 3l-120 120q-12 12 0 24t24 0l89 -89v437q0 17 17 17t17 -17v-437zM493 431q6 0 11.5 -5t5.5 -12t-5.5 -12t-11.5 -5h-273q-17 0 -17 17t17 17h273zM425 311q17 0 17 -17t-17 -17h-205
q-17 0 -17 17t17 17h205zM357 192q17 0 17 -17t-17 -17h-137q-17 0 -17 17t17 17h137z" />
    <glyph glyph-name="uniF154" unicode="&#xf154;" 
d="M256 412q-44 0 -86 -17q-36 -15 -69 -48t-48 -69q-17 -42 -17 -86t17 -86q15 -36 48 -69t69 -48q42 -17 86 -17t86 17q36 15 69 48t48 69q17 42 17 86t-17 86q-15 36 -48 69t-69 48q-42 17 -86 17zM256 448q106 0 181 -75t75 -181t-75 -181t-181 -75t-181 75t-75 181
t75 181t181 75zM249 327q7 0 12 -5t5 -12t-5 -12t-12 -5t-11.5 5t-4.5 12t4.5 12t11.5 5zM249 55q-13 0 -13 14v173q0 13 13 13q14 0 14 -13v-173q0 -14 -14 -14z" />
    <glyph glyph-name="uniF155" unicode="&#xf155;" horiz-adv-x="364" 
d="M0 313q0 14 10.5 24.5t24.5 10.5t25 -10.5t11 -24.5t-11 -24.5t-25 -10.5t-24.5 10.5t-10.5 24.5zM0 191q0 14 10.5 24.5t24.5 10.5t25 -10.5t11 -24.5t-11 -24.5t-25 -10.5t-24.5 10.5t-10.5 24.5zM0 69q0 14 10.5 25t24.5 11t25 -11t11 -25t-11 -24.5t-25 -10.5
t-24.5 10.5t-10.5 24.5zM352 301h-219q-12 0 -12 12t12 12h219q12 0 12 -12t-12 -12zM352 179h-219q-12 0 -12 12t12 12h219q12 0 12 -12t-12 -12zM352 57h-219q-12 0 -12 12q0 13 12 13h219q12 0 12 -13q0 -12 -12 -12z" />
    <glyph glyph-name="uniF156" unicode="&#xf156;" horiz-adv-x="272" 
d="M258 73h-169q-6 0 -10 4t-4 10t4 10t10 4h169q6 0 10 -4t4 -10t-4 -10t-10 -4zM20 108q9 0 15 -6t6 -15q0 -8 -6 -14q-7 -7 -15 -7q-7 0 -14 7q-6 6 -6 14q0 9 6 15t14 6zM258 178h-169q-6 0 -10 4t-4 10t4 10t10 4h169q6 0 10 -4t4 -10t-4 -10t-10 -4zM20 213q9 0 15 -6
t6 -15t-6 -15t-15 -6q-8 0 -14 6t-6 15t6 15t14 6zM258 283h-169q-6 0 -10 4t-4 10t4 10t10 4h169q6 0 10 -4t4 -10t-4 -10t-10 -4zM20 318q8 0 15 -7q6 -6 6 -14q0 -9 -6 -15t-15 -6q-8 0 -14 6t-6 15q0 8 6 14q7 7 14 7z" />
    <glyph glyph-name="uniF157" unicode="&#xf157;" horiz-adv-x="392" 
d="M367 377q11 0 18 -7t7 -17v-392q0 -11 -7 -18t-18 -7h-245q-10 0 -17.5 7t-7.5 18v47h-73q-10 0 -17 7t-7 17v392q0 10 7 17t17 7h245q10 0 17 -7t7 -17v-47h74zM110 32h12h147v321v12v12v47h-245v-392h73h13zM367 -39v392h-74v-321q0 -10 -7 -17t-17 -7h-147v-47h245z
M148 276q-12 0 -19 10q-5 7 -5 14v5q2 8 12 26l9 15q1 1 3 1q1 0 2 -1q4 -6 9 -15q10 -18 12 -26v-5q0 -7 -5 -14q-8 -10 -18 -10zM86 155q-13 0 -13 12t13 12h122q12 0 12 -12t-12 -12h-122zM220 94q0 -13 -12 -13h-122q-13 0 -13 13q0 12 13 12h122q12 0 12 -12z" />
    <glyph glyph-name="uniF158" unicode="&#xf158;" horiz-adv-x="341" 
d="M171 180q-55 0 -94.5 39t-39.5 95t39.5 95t94.5 39t94.5 -39t39.5 -95t-39.5 -95t-94.5 -39zM171 424q-45 0 -77.5 -32.5t-32.5 -77.5t32.5 -77.5t77.5 -32.5t77 32.5t32 77.5t-32 77.5t-77 32.5zM324 89q17 -26 17 -89v-52q0 -12 -12 -12h-317q-12 0 -12 12v46
q0 67 19 96q31 45 73 65q10 4 15 -4l62 -85l65 85q6 8 15 4q44 -19 75 -66zM317 -40v40q0 55 -14 76q-24 35 -56 52l-68 -89q-3 -5 -10 -5q-6 -1 -10 5l-66 89q-29 -16 -53 -52q-16 -23 -16 -80v-36h293z" />
    <glyph glyph-name="uniF159" unicode="&#xf159;" horiz-adv-x="282" 
d="M26 54h230q0 2 -1.5 7.5t-1.5 6.5q-1 5 -7 17q-5 10 -16 16q-10 6 -27 6q-14 0 -23 3q-7 2 -13 10q-4 5 -6 14q-2 8 -2 15q0 19 16 33l2 2q19 10 28 29q11 22 11 43q0 30 -22 52t-53 22t-53 -22t-22 -52q0 -21 11 -43q9 -19 28 -29q3 -2 3 -3q15 -12 15 -32q0 -7 -2 -15
q-2 -9 -6 -14q-6 -8 -13 -10q-9 -3 -23 -3q-17 0 -27 -6q-11 -6 -16 -16q-6 -12 -7 -17q0 -1 -1.5 -6.5t-1.5 -7.5zM260 28h-238q-9 0 -15 7q-7 9 -7 16t4 25q3 12 12 26t24 22q16 9 39 9q12 0 15 3q2 2 2 13q0 7 -5 12q-22 13 -37 40q-14 25 -14 55q0 40 30 70t71 30
t71 -30t30 -70q0 -31 -14 -56t-37 -39q-5 -5 -5 -12q0 -11 2 -13q3 -3 15 -3q23 0 39 -9q15 -8 24 -22t12 -26q4 -18 4 -25q0 -9 -6 -16t-16 -7zM91 242z" />
  </font>
</defs>
</svg>
