<svg xmlns="http://www.w3.org/2000/svg" width="50" height="50" viewBox="0 0 50 50"><path fill="#fff" d="M1.868 42.165c-.276 0-.5-.224-.5-.5v-1.69c0-.277.224-.5.5-.5h46.776c.276 0 .5.223.5.5v1.69c0 .276-.224.5-.5.5h-46.776z"/><path fill="#B1B1B1" d="M48.645 39.974v1.69h-46.777v-1.69h46.777m0-1h-46.777c-.552 0-1 .448-1 1v1.69c0 .553.448 1 1 1h46.777c.552 0 1-.447 1-1v-1.69c0-.552-.448-1-1-1z"/><path fill="#fff" d="M8.59 34.274c-.875 0-1.586-.71-1.586-1.584v-20.937c0-.874.71-1.585 1.585-1.585h33.33c.87 0 1.58.71 1.58 1.585v20.937c0 .873-.71 1.584-1.59 1.584h-33.319z"/><path fill="#B1B1B1" d="M41.925 10.668c.598 0 1.084.485 1.084 1.085v20.937c0 .6-.49 1.084-1.09 1.084h-33.329c-.6 0-1.086-.485-1.086-1.084v-20.937c0-.6.486-1.085 1.085-1.085h33.33m0-1h-33.329c-1.15 0-2.086.935-2.086 2.085v20.937c0 1.15.935 2.084 2.085 2.084h33.33c1.15 0 2.08-.935 2.08-2.084v-20.937c0-1.15-.94-2.085-2.09-2.085z"/><path fill="#fff" d="M9.484 32.584c-.436 0-.79-.354-.79-.788v-19.148c0-.436.354-.79.79-.79h31.546c.435 0 .788.354.788.79v19.147c0 .435-.354.788-.79.788h-31.543z"/><path fill="#B1B1B1" d="M41.03 12.36c.16 0 .288.128.288.29v19.146c0 .16-.13.288-.29.288h-31.542c-.16 0-.29-.13-.29-.288v-19.148c0-.16.13-.29.29-.29h31.544m0-1h-31.546c-.71 0-1.29.58-1.29 1.29v19.148c0 .71.58 1.288 1.29 1.288h31.546c.71 0 1.288-.578 1.288-1.288v-19.148c0-.71-.578-1.29-1.29-1.29z"/><path fill="#fff" d="M1.774 39.91c-.202 0-.384-.12-.462-.308-.077-.187-.035-.4.107-.545l5.04-5.072c.09-.095.22-.147.35-.147h36.66c.13 0 .26.053.35.146l5.07 5.072c.14.143.18.358.1.545s-.26.31-.46.31h-46.759z"/><path fill="#B1B1B1" d="M43.48 34.338l5.07 5.072h-46.775l5.046-5.072h36.66m0-1h-36.661c-.266 0-.52.106-.71.295l-5.045 5.072c-.285.286-.37.716-.214 1.09.16.372.52.615.93.615h46.77c.41 0 .77-.244.93-.617.16-.374.07-.804-.21-1.09l-5.08-5.073c-.18-.18-.44-.29-.7-.29z"/><path fill="#fff" d="M7.41 37c-.202 0-.385-.076-.462-.262-.078-.187-.035-.38.108-.522l2.254-2.162c.095-.094.222-.054.355-.054h30.997c.133 0 .26-.028.354.065l2.254 2.214c.143.14.186.29.108.47s-.26.24-.463.24h-35.505z"/><path fill="#B1B1B1" d="M40.66 34l2.255 3h-35.505l2.254-3h31.336m-.34-1h-30.995c-.265 0-.52.274-.707.462l-2.254 2.34c-.286.285-.372.96-.217 1.335.155.373.52.863.924.863h35.51c.41 0 .77-.447.93-.82.16-.375.07-.907-.21-1.193l-2.25-2.474c-.18-.188-.44-.513-.7-.513z"/><path fill="#BBBCBC" d="M25.163 25.892c-.616 0-1.186-.28-1.564-.77-.27-.35-.41-.764-.41-1.202 0-.135.01-.27.04-.4.07-.435.39-1.157.96-2.143.42-.73.78-1.274.78-1.28.04-.06.09-.13.18-.13s.14.07.18.13c0 .005.36.554.78 1.28.57.986.89 1.708.96 2.145.02.128.04.262.04.397 0 .43-.14.85-.41 1.2-.38.49-.95.77-1.57.77"/></svg>