<svg xmlns="http://www.w3.org/2000/svg" width="54" height="78" viewBox="0 0 54 78"><g fill="#fff" stroke="#bbb" stroke-linecap="round" stroke-linejoin="round" stroke-miterlimit="10"><circle cx="26.131" cy="14.462" r=".164"/><circle cx="28.922" cy="14.462" r=".164"/><circle cx="31.713" cy="14.462" r=".164"/><circle cx="34.504" cy="14.462" r=".164"/><circle cx="37.295" cy="14.462" r=".164"/><circle cx="40.086" cy="14.462" r=".164"/><circle cx="42.877" cy="14.462" r=".164"/><circle cx="45.669" cy="14.462" r=".164"/><circle cx="48.46" cy="14.462" r=".164"/><circle cx="26.131" cy="17.271" r=".164"/><circle cx="28.922" cy="17.271" r=".164"/><circle cx="31.713" cy="17.271" r=".164"/><circle cx="34.504" cy="17.271" r=".164"/><circle cx="37.295" cy="17.271" r=".164"/><circle cx="40.086" cy="17.271" r=".164"/><circle cx="42.877" cy="17.271" r=".164"/><circle cx="45.669" cy="17.271" r=".164"/><circle cx="48.46" cy="17.271" r=".164"/><circle cx="45.669" cy="20.079" r=".164"/><circle cx="48.46" cy="20.079" r=".164"/><circle cx="45.669" cy="22.887" r=".164"/><circle cx="48.46" cy="22.887" r=".164"/><circle cx="45.669" cy="25.696" r=".164"/><circle cx="48.46" cy="25.696" r=".164"/><circle cx="45.669" cy="28.504" r=".164"/><circle cx="48.46" cy="28.504" r=".164"/><circle cx="45.669" cy="31.313" r=".164"/><circle cx="48.46" cy="31.313" r=".164"/><circle cx="45.669" cy="34.121" r=".164"/><circle cx="48.46" cy="34.121" r=".164"/><circle cx="45.669" cy="36.929" r=".164"/><circle cx="48.46" cy="36.929" r=".164"/><circle cx="45.669" cy="39.738" r=".164"/><circle cx="48.46" cy="39.738" r=".164"/><circle cx="45.669" cy="42.546" r=".164"/><circle cx="48.46" cy="42.546" r=".164"/><circle cx="45.669" cy="45.355" r=".164"/><circle cx="48.46" cy="45.355" r=".164"/><circle cx="45.669" cy="48.163" r=".164"/><circle cx="48.46" cy="48.163" r=".164"/><circle cx="45.669" cy="50.971" r=".164"/><circle cx="48.46" cy="50.971" r=".164"/><circle cx="26.131" cy="14.462" r=".164"/><circle cx="28.922" cy="14.462" r=".164"/><circle cx="31.713" cy="14.462" r=".164"/><circle cx="34.504" cy="14.462" r=".164"/><circle cx="37.295" cy="14.462" r=".164"/><circle cx="40.086" cy="14.462" r=".164"/><circle cx="42.877" cy="14.462" r=".164"/><circle cx="45.669" cy="14.462" r=".164"/><circle cx="48.46" cy="14.462" r=".164"/><circle cx="26.131" cy="17.271" r=".164"/><circle cx="28.922" cy="17.271" r=".164"/><circle cx="31.713" cy="17.271" r=".164"/><circle cx="34.504" cy="17.271" r=".164"/><circle cx="37.295" cy="17.271" r=".164"/><circle cx="40.086" cy="17.271" r=".164"/><circle cx="42.877" cy="17.271" r=".164"/><circle cx="45.669" cy="17.271" r=".164"/><circle cx="48.46" cy="17.271" r=".164"/><circle cx="45.669" cy="20.079" r=".164"/><circle cx="48.46" cy="20.079" r=".164"/><circle cx="45.669" cy="22.887" r=".164"/><circle cx="48.46" cy="22.887" r=".164"/><circle cx="45.669" cy="25.696" r=".164"/><circle cx="48.46" cy="25.696" r=".164"/><circle cx="45.669" cy="28.504" r=".164"/><circle cx="48.46" cy="28.504" r=".164"/><circle cx="45.669" cy="31.313" r=".164"/><circle cx="48.46" cy="31.313" r=".164"/><circle cx="45.669" cy="34.121" r=".164"/><circle cx="48.46" cy="34.121" r=".164"/><circle cx="45.669" cy="36.929" r=".164"/><circle cx="48.46" cy="36.929" r=".164"/><circle cx="45.669" cy="39.738" r=".164"/><circle cx="48.46" cy="39.738" r=".164"/><circle cx="45.669" cy="42.546" r=".164"/><circle cx="48.46" cy="42.546" r=".164"/><circle cx="45.669" cy="45.355" r=".164"/><circle cx="48.46" cy="45.355" r=".164"/><circle cx="45.669" cy="48.163" r=".164"/><circle cx="48.46" cy="48.163" r=".164"/><circle cx="45.669" cy="50.971" r=".164"/><circle cx="48.46" cy="50.971" r=".164"/></g><path fill="#fff" d="M24 53.5c-.276 0-.5-.224-.5-.5v-40c0-.276.224-.5.5-.5h27c.276 0 .5.224.5.5v40c0 .276-.224.5-.5.5h-27z"/><path fill="#bbb" d="M51 13v40h-27v-40h27m0-1h-27c-.552 0-1 .448-1 1v40c0 .552.448 1 1 1h27c.552 0 1-.448 1-1v-40c0-.552-.448-1-1-1z"/><g fill="#fff" stroke="#bbb" stroke-linecap="round" stroke-linejoin="round" stroke-miterlimit="10"><circle cx="26.131" cy="14.462" r=".164"/><circle cx="28.922" cy="14.462" r=".164"/><circle cx="31.713" cy="14.462" r=".164"/><circle cx="34.504" cy="14.462" r=".164"/><circle cx="37.295" cy="14.462" r=".164"/><circle cx="40.086" cy="14.462" r=".164"/><circle cx="42.877" cy="14.462" r=".164"/><circle cx="45.669" cy="14.462" r=".164"/><circle cx="48.46" cy="14.462" r=".164"/><circle cx="26.131" cy="17.271" r=".164"/><circle cx="28.922" cy="17.271" r=".164"/><circle cx="31.713" cy="17.271" r=".164"/><circle cx="34.504" cy="17.271" r=".164"/><circle cx="37.295" cy="17.271" r=".164"/><circle cx="40.086" cy="17.271" r=".164"/><circle cx="42.877" cy="17.271" r=".164"/><circle cx="45.669" cy="17.271" r=".164"/><circle cx="48.46" cy="17.271" r=".164"/><circle cx="45.669" cy="20.079" r=".164"/><circle cx="48.46" cy="20.079" r=".164"/><circle cx="45.669" cy="22.887" r=".164"/><circle cx="48.46" cy="22.887" r=".164"/><circle cx="45.669" cy="25.696" r=".164"/><circle cx="48.46" cy="25.696" r=".164"/><circle cx="45.669" cy="28.504" r=".164"/><circle cx="48.46" cy="28.504" r=".164"/><circle cx="45.669" cy="31.313" r=".164"/><circle cx="48.46" cy="31.313" r=".164"/><circle cx="45.669" cy="34.121" r=".164"/><circle cx="48.46" cy="34.121" r=".164"/><circle cx="45.669" cy="36.929" r=".164"/><circle cx="48.46" cy="36.929" r=".164"/><circle cx="45.669" cy="39.738" r=".164"/><circle cx="48.46" cy="39.738" r=".164"/><circle cx="45.669" cy="42.546" r=".164"/><circle cx="48.46" cy="42.546" r=".164"/><circle cx="45.669" cy="45.355" r=".164"/><circle cx="48.46" cy="45.355" r=".164"/><circle cx="45.669" cy="48.163" r=".164"/><circle cx="48.46" cy="48.163" r=".164"/><circle cx="45.669" cy="50.971" r=".164"/><circle cx="48.46" cy="50.971" r=".164"/></g><circle fill="#fff" stroke="#bbb" stroke-linecap="round" stroke-linejoin="round" stroke-miterlimit="10" cx="26.131" cy="14.462" r=".164"/><circle fill="#fff" stroke="#bbb" stroke-linecap="round" stroke-linejoin="round" stroke-miterlimit="10" cx="28.922" cy="14.462" r=".164"/><circle fill="#fff" stroke="#bbb" stroke-linecap="round" stroke-linejoin="round" stroke-miterlimit="10" cx="31.713" cy="14.462" r=".164"/><circle fill="#fff" stroke="#bbb" stroke-linecap="round" stroke-linejoin="round" stroke-miterlimit="10" cx="34.504" cy="14.462" r=".164"/><circle fill="#fff" stroke="#bbb" stroke-linecap="round" stroke-linejoin="round" stroke-miterlimit="10" cx="37.295" cy="14.462" r=".164"/><circle fill="#fff" stroke="#bbb" stroke-linecap="round" stroke-linejoin="round" stroke-miterlimit="10" cx="40.086" cy="14.462" r=".164"/><circle fill="#fff" stroke="#bbb" stroke-linecap="round" stroke-linejoin="round" stroke-miterlimit="10" cx="41.877" cy="14.462" r=".164"/><circle fill="#fff" stroke="#bbb" stroke-linecap="round" stroke-linejoin="round" stroke-miterlimit="10" cx="44.669" cy="14.462" r=".164"/><path fill="#fff" d="M17 58.5c-.276 0-.5-.224-.5-.5v-40c0-.276.224-.5.5-.5h27c.276 0 .5.224.5.5v40c0 .276-.224.5-.5.5h-27z"/><path fill="#bbb" d="M44 18v40h-27v-40h27m0-1h-27c-.552 0-1 .448-1 1v40c0 .552.448 1 1 1h27c.552 0 1-.448 1-1v-40c0-.552-.448-1-1-1z"/><path fill="#fff" d="M10 63.5c-.276 0-.5-.224-.5-.5v-40c0-.276.224-.5.5-.5h27c.276 0 .5.224.5.5v40c0 .276-.224.5-.5.5h-27z"/><path fill="#bbb" d="M37 23v40h-27v-40h27m0-1h-27c-.552 0-1 .448-1 1v40c0 .552.448 1 1 1h27c.552 0 1-.448 1-1v-40c0-.552-.448-1-1-1z"/><path stroke="#bbb" d="M36.876 54.457l-26.876-26.877m.3-4.368l26.576 26.968-26.876-26.874m26.876 35.427l-26.876-26.876m0 13.133l18.324 18.324m8.552-.306l-26.876-26.876m22.906 27.182l-22.906-22.906m26.876-11.605l-5.803-5.803m5.803 10.078l-10.08-10.078m10.08 1.527l-1.526-1.527m1.526 14.354l-14.354-14.354m14.354 18.63l-18.63-18.63m18.63 22.906l-22.906-22.906" fill="none"/><path fill="#fff" d="M3 68.5c-.276 0-.5-.224-.5-.5v-40c0-.276.224-.5.5-.5h27c.276 0 .5.224.5.5v40c0 .276-.224.5-.5.5h-27z"/><path fill="#bbb" d="M30 28v40h-27v-40h27m0-1h-27c-.552 0-1 .448-1 1v40c0 .552.448 1 1 1h27c.552 0 1-.448 1-1v-40c0-.552-.448-1-1-1zm-22.275 24h17.55v.798h-17.55zm0 4h17.55v.798h-17.55zm0 4h17.55v.798h-17.55zm0 4h17.55v.798h-17.55zm8.775-19c-.516 0-.993-.234-1.31-.64-.224-.29-.343-.635-.343-1 0-.11.01-.223.034-.33.06-.363.34-.963.81-1.783.36-.607.66-1.06.66-1.063.04-.05.08-.11.15-.11l.15.11c.01.003.31.46.66 1.063.48.82.75 1.42.81 1.784l.04.33c0 .37-.12.71-.34 1-.31.41-.79.64-1.3.64"/></svg>