<svg xmlns="http://www.w3.org/2000/svg" width="54" height="78" viewBox="0 0 990 990"><path fill="#fff" d="M269.3 875.9l-228 34.7 51.1-233.7"/><path fill="#fff" d="M269.3 875.9l-176.9-199 619.1-619.1c54.7-54.8 154.6-66.2 206.8-13.9l1.9 1.9c52.2 52.2 39.7 140.1-15 194.8l-635.9 635.3z"/><path d="M33.2 913.2c2.1 2.2 5 3.5 8 3.5.5 0 1.1 0 1.7-.1l220.8-33.6 3.8 4.3 640.8-640.2c61.8-61.8 68.5-155.7 14.9-209.3l-1.9-1.9c-23.7-23.8-57.9-36.8-96.3-36.8-46.5 0-93.2 18.9-124.9 50.6l-623.2 623.1 3.2 3.6-49.6 227c-.8 3.5.2 7.2 2.7 9.8zm682.4-848c27.6-27.6 68.5-44.1 109.3-44.1 32.6 0 61.3 10.8 80.8 30.3l1.9 1.9c45 45 38.3 125-14.9 178.2l-624.3 623.7-44.8-50.4 637.4-631.2-15.8-15.7-636.3 630.3-44.9-50.5 5.1 5 632.7-628.6-15.6-15.5-632.2 627.9-46.9-52.8 608.5-608.5zm-617.5 631.5l148.2 166.7-79.1 12-88.6-89.4 19.5-89.3zm-25.6 117.3l65.3 65.9-82.5 12.5 17.2-78.4zm-46.5 172.7h923.8v-22h-923.8z" fill="#bbb"/></svg>