<svg xmlns="http://www.w3.org/2000/svg" width="53" height="18" viewBox="-0.5 -0.5 53 18" enable-background="new -0.5 -0.5 53 18"><path fill="#fff" d="M21.6 11.7l4-7.8c.1-.3.3-.5.7-.5.4 0 .7.3.7.7v9.3c0 .4-.3.7-.7.7-.5 0-.7-.3-.7-.7v-6.4l-3.2 6.1c-.3.4-.6.5-.8.5-.2 0-.5-.1-.8-.5l-3.1-6.1v6.5c0 .4-.3.7-.7.7-.4 0-.7-.3-.7-.7v-9.3c0-.5.3-.7.7-.7.3 0 .5.2.7.5l3.9 7.7zm18-2.8c0-3.1-2.5-5.5-5.5-5.5s-5.5 2.5-5.5 5.5 2.5 5.5 5.5 5.5 5.5-2.5 5.5-5.5zm-5.6 4.1c-2.3 0-4.1-1.8-4.1-4.1s1.8-4.1 4.1-4.1 4.1 1.8 4.1 4.1-1.8 4.1-4.1 4.1zm18-4.1c0-3.1-2.5-5.5-5.5-5.5-3.1 0-5.5 2.5-5.5 5.5s2.5 5.5 5.5 5.5 5.5-2.5 5.5-5.5zm-5.6 4.1c-2.3 0-4.1-1.8-4.1-4.1s1.8-4.1 4.1-4.1 4.1 1.8 4.1 4.1-1.8 4.1-4.1 4.1zm-40.7 4c-1.8 0-3.4-.8-4.5-2.2-.8-1-1.2-2.2-1.2-3.4 0-.4 0-.8.1-1.1.3-1.4 1.2-3.4 2.8-6.3 1.2-2 2.3-3.6 2.3-3.6.1-.2.2-.4.5-.4s.4.2.5.4c0 0 1 1.6 2.3 3.7 1.6 2.8 2.6 4.9 2.8 6.2.1.4.1.8.1 1.1 0 1.3-.4 2.4-1.2 3.4-1.1 1.4-2.7 2.2-4.5 2.2z"/></svg>