<svg xmlns="http://www.w3.org/2000/svg" width="120" height="40" viewBox="-0.5 -0.5 120 40" enable-background="new -0.5 -0.5 120 40"><path fill="#00945E" d="M49.5 26.8l9.2-17.8c.3-.7.8-1.1 1.6-1.1.9 0 1.6.6 1.6 1.6v21.5c0 .9-.6 1.7-1.6 1.7-1.1 0-1.7-.8-1.7-1.7v-15l-7.3 14c-.6.9-1.3 1.1-1.8 1.1-.4 0-1.2-.1-1.8-1.1l-7.3-14v15c0 .9-.6 1.7-1.7 1.7-1 0-1.6-.8-1.6-1.7v-21.4c0-1.1.7-1.6 1.6-1.6.8 0 1.2.4 1.6 1.1l9.2 17.7zm28.4 3c-5.2 0-9.5-4.2-9.5-9.5 0-5.2 4.2-9.5 9.5-9.5 5.2 0 9.5 4.2 9.5 9.5s-4.3 9.5-9.5 9.5m12.7-9.5c0-7-5.7-12.7-12.7-12.7s-12.7 5.7-12.7 12.7 5.7 12.7 12.7 12.7 12.7-5.7 12.7-12.7m15.7 9.5c-5.2 0-9.5-4.2-9.5-9.5 0-5.2 4.2-9.5 9.5-9.5 5.2 0 9.5 4.2 9.5 9.5s-4.3 9.5-9.5 9.5m12.7-9.5c0-7-5.7-12.7-12.7-12.7s-12.7 5.7-12.7 12.7 5.7 12.7 12.7 12.7 12.7-5.7 12.7-12.7m-106 15.3c3.1 0 5.9-1.4 7.8-3.8 1.3-1.7 2-3.8 2-6 0-.7-.1-1.3-.2-2-.4-2.2-2.1-6-5-11.1-2.2-3.9-4.1-6.7-4.1-6.7l-.5-.7-.4.6s-1.9 2.9-4.1 6.7c-3 5.1-4.7 8.9-5 11.1-.1.7-.2 1.3-.2 2 0 2.2.7 4.2 2 6 1.8 2.5 4.6 3.9 7.7 3.9m0 3.4c-4.1 0-7.8-1.8-10.3-5.1-1.8-2.3-2.7-5-2.7-7.9 0-.9.1-1.8.3-2.6.5-2.9 2.6-7.6 6.4-14.1 2.8-4.8 5.1-8.4 5.2-8.4.2-.4.5-.9 1.1-.9s.9.5 1.2.9c0 0 2.4 3.6 5.2 8.4 3.8 6.5 5.9 11.2 6.4 14.1.2.8.3 1.7.3 2.6 0 2.9-.9 5.6-2.7 7.9-2.6 3.2-6.4 5.1-10.4 5.1"/></svg>