<svg xmlns="http://www.w3.org/2000/svg" viewBox="0 0 60.6 60.4" enable-background="new 0 0 60.6 60.4"><path fill="#4B4F54" d="M30.4 1.3c13.9 0 25.8 9.9 28.4 23.5 1.5 7.6-.1 15.3-4.5 21.7-4.3 6.4-10.9 10.8-18.5 12.2-1.8.4-3.7.5-5.5.5-13.9 0-25.8-9.9-28.4-23.5-1.5-7.6.1-15.3 4.4-21.7 4.4-6.4 11-10.7 18.6-12.2 1.8-.4 3.7-.5 5.5-.5m0-1c-1.9 0-3.8.2-5.7.5-16.3 3.1-26.9 18.9-23.8 35.1 2.8 14.4 15.3 24.3 29.4 24.3 1.9 0 3.8-.2 5.7-.5 16.3-3.1 26.9-18.9 23.8-35.1-2.8-14.4-15.3-24.3-29.4-24.3zm-21.1 29.3c0 .7-.2 1.3-.6 1.7-.1.1-.2.2-.3.2-.2 0-.3-.1-.3-.3 0-.1 0-.2.1-.3.3-.4.5-.8.5-1.4 0-.8-.3-1.2-.7-1.2-.5 0-.7.4-1 1.3-.4 1.3-.8 1.7-1.5 1.7-.9 0-1.3-.8-1.3-1.9 0-.4.1-.8.2-1.1.1-.3.3-.6.5-.6s.3.1.3.3v.1c-.2.5-.4.9-.4 1.4 0 .7.2 1.2.7 1.2.4 0 .6-.3.9-1.2.4-1.2.7-1.8 1.6-1.8.7 0 1.3.7 1.3 1.9zm1.1-7.8h.2c.2.1.3.2.2.4-.1.2-.2.2-.3.2l-1.2.2-.7 2.2.9.8c.1.1.2.2.1.4s-.3.3-.4.2c0 0-.1 0-.1-.1l-3.7-3.1c-.1-.1-.2-.2-.1-.4 0-.1.1-.2.3-.2l4.8-.6zm-4.1 1.1l1.7 1.5.5-1.7-2.2.2zm3-7.1l-.7 1.2 3.4 2c.2.1.2.3.1.5s-.3.2-.5.1l-3.4-2-.7 1.2c-.1.2-.3.3-.4.2-.2-.1-.2-.3-.1-.5l1.8-3c.1-.2.3-.2.5-.1.1.1.1.3 0 .4zm5.3.4c-.1.2-.4.2-.5 0l-3.2-2.9c-.1-.1-.2-.3 0-.5.1-.2.3-.2.5 0l3.2 2.9c.1.1.1.4 0 .5zm3.2-2.8c-.5.4-1.2.6-1.7.6-.1 0-.3-.1-.4-.2-.1-.1-.1-.3.1-.4.1-.1.2-.1.3-.1.5 0 .9-.1 1.4-.5.6-.5.8-1 .5-1.3-.3-.4-.7-.3-1.6.1-1.4.5-2 .4-2.4-.2-.5-.7-.2-1.5.7-2.2.3-.2.7-.4 1-.5.3-.1.6-.1.8 0 .1.1.1.3-.1.4l-.1.1c-.4.1-.8.2-1.2.5-.6.4-.8.9-.5 1.3.3.3.6.3 1.5 0 1.2-.4 1.9-.6 2.4.1.4.6.3 1.5-.7 2.3zm4.3-7.2l-2.2.9.5 1.3 1.3-.5c.2-.1.4 0 .4.2.1.2 0 .4-.2.4l-1.2.5.7 1.8c.1.2 0 .4-.2.5-.2.1-.4 0-.5-.2l-1.6-4c-.1-.2 0-.4.2-.5l2.6-1.1c.2-.1.4 0 .4.2.1.2 0 .4-.2.5zm6.8 2.4l.1.1c0 .2-.1.3-.3.4-.2 0-.3 0-.4-.1l-.7-1-2.3.4-.3 1.1c0 .1-.1.2-.3.3-.2 0-.4-.1-.4-.3v-.2l1.2-4.6c0-.1.1-.2.3-.3.2 0 .3 0 .4.1l2.7 4.1zm-2.8-3l-.5 2.2 1.8-.3-1.3-1.9zm8.9-.3c.1.1.1.2.1.3 0 .2-.2.3-.3.3-.1 0-.2-.1-.3-.2-.3-.4-.7-.6-1.2-.7-1.2-.1-1.9.7-2 1.7-.1 1 .4 2 1.6 2.1.5.1 1-.1 1.3-.4.1-.1.2-.2.3-.1.2 0 .3.2.3.3 0 .1-.1.2-.1.2-.4.4-1.1.7-1.9.6-1.5-.2-2.4-1.4-2.2-2.8.1-1.4 1.2-2.4 2.8-2.3.6.1 1.3.5 1.6 1zm6.1 1.9l-1.3-.5-1.4 3.7c-.1.2-.3.3-.5.2-.2-.1-.3-.3-.2-.5l1.4-3.7-1.3-.5c-.2-.1-.3-.3-.2-.4.1-.2.3-.3.4-.2l3.3 1.3c.2.1.3.3.2.4-.1.2-.2.3-.4.2zm.5 5.3c-.2-.1-.2-.3-.1-.5l2.3-3.7c.1-.2.3-.2.5-.1s.2.3.1.5l-2.3 3.7c-.1.1-.3.2-.5.1zm3.7 2.9c-1.1-1.1-.9-2.6 0-3.6 1-1 2.5-1.1 3.6 0s.9 2.6 0 3.6c-1 1-2.6 1.1-3.6 0zm3.1-3.1c-.8-.8-1.9-.6-2.6.1-.7.7-.9 1.8-.1 2.6s1.9.6 2.6-.1.9-1.8.1-2.6zm1.4 9.7c-.1-.1-.1-.2 0-.3l1.9-4.2-3 1.6c-.2.1-.4 0-.5-.1-.1-.2 0-.4.1-.5l3.9-2c.2-.1.4 0 .5.2.1.1 0 .2 0 .3l-1.9 4.2 3-1.6c.2-.1.4 0 .5.1.1.2 0 .4-.1.5l-3.9 2c-.2.1-.4 0-.5-.2zm-38.4 25.5c-.7-.1-1.3-.5-1.9-1.1-.9-1.2-.7-2.7.5-3.6 1.2-.9 2.7-.7 3.6.5.4.5.6 1.1.5 1.8 0 .1 0 .2-.1.2-.1.1-.3.1-.5-.1-.1-.1-.1-.1-.1-.2 0-.5-.1-.9-.4-1.3-.7-.9-1.8-.9-2.6-.3-.8.5-1.1 1.6-.4 2.5.3.5.8.8 1.2.8l.7-.6-.7-1c-.1-.1-.1-.4.1-.5.1-.1.4-.1.5.1l.9 1.2c.1.2.1.4-.1.5l-1 .7c-.1.3-.1.4-.2.4zm2.6.8l1.6-2.1c.1-.2.3-.2.5-.1s.2.3.1.5l-1.7 2.2c-.5.6-.5 1.4.3 1.9.7.6 1.4.4 1.9-.2l1.7-2.2c.1-.2.3-.2.5-.1s.2.4.1.5l-1.6 2.1c-.8 1-1.9 1.2-3 .4-1.1-.8-1.2-1.9-.4-2.9zm8.6 6.8v.2c-.1.2-.2.3-.4.2-.2-.1-.2-.2-.2-.3v-1.2l-2.2-.9-.9.8c-.1.1-.2.1-.4.1-.2-.1-.2-.3-.2-.4l.1-.1 3.6-3.3c.1-.1.2-.1.4-.1.1.1.2.2.2.3v4.7zm-.7-4.3l-1.7 1.6 1.7.7v-2.3zm3.4 5.4c-.2 0-.3-.2-.3-.4l.6-4.3c0-.2.2-.3.4-.3l2 .3c1.1.2 1.6.8 1.5 1.7-.1.7-.5 1.1-1.2 1.2l.6 1.8v.2c0 .2-.2.3-.4.3s-.3-.1-.3-.2l-.7-2.1-1.5-.3-.2 1.8c-.1.2-.3.3-.5.3zm1-4.3l-.3 1.6 1.8.2c.6.1.9-.2.9-.7s-.2-.8-.7-.9l-1.7-.2zm9.7 3.7c0 .1.1.1.1.1 0 .2-.1.4-.3.4-.2 0-.3-.1-.4-.2l-.7-1-2.3.3-.3 1.2c0 .1-.1.2-.3.3-.2 0-.4-.1-.4-.3v-.2l1.3-4.7c0-.2.1-.2.3-.3.2 0 .3 0 .4.2l2.6 4.2zm-2.8-3.2l-.6 2.2 1.8-.3-1.2-1.9zm9 1.5h-.3l-4.1-2.3 1.4 3.2c.1.2 0 .4-.2.4s-.4 0-.4-.2l-1.8-4c-.1-.2 0-.4.2-.5h.3l4.1 2.2-1.4-3.1c-.1-.2 0-.4.2-.5.2-.1.4 0 .4.2l1.7 4.1c.2.2.1.4-.1.5zm2.9-7.3l-1.1.9 2.5 3.2c.1.2.1.4-.1.5-.2.1-.4.1-.5-.1l-2.5-3.2-1.1.9c-.1.1-.4.1-.5-.1-.1-.2-.1-.4.1-.5l2.8-2.2c.2-.1.4-.1.5.1 0 .2 0 .4-.1.5zm6.6-.9l-1.8 2.2c-.1.2-.4.2-.5.1l-3.4-2.8c-.2-.1-.2-.4 0-.5l1.8-2.2c.1-.1.3-.2.5-.1.1.1.2.3 0 .5l-1.5 1.9 1.1.9.9-1.1c.1-.1.3-.2.5 0 .2.1.2.3 0 .5l-.9 1.1 1.2 1 1.6-2c.1-.1.3-.2.5-.1.1.2.1.4 0 .6zm2.9-5.3l-1.3 2.6c-.1.2-.3.3-.5.2l-3.8-1.9c-.2-.1-.2-.3-.2-.5l1.2-2.5c.1-.2.3-.3.4-.2.2.1.2.3.1.5l-1.1 2.2 1.3.6.6-1.2c.1-.2.3-.2.4-.2.2.1.2.3.2.4l-.6 1.2 1.4.7 1.1-2.3c.1-.2.3-.3.4-.2.4.2.5.4.4.6zm1.3-4.4l-.3 1.4c0 .2-.2.3-.4.3l-4.2-.9c-.2 0-.3-.2-.3-.4l.3-1.4c.3-1.5 1.6-2.3 3-2 1.4.3 2.2 1.5 1.9 3zm-4.2-.9l-.2 1 3.6.8.2-1c.2-1.1-.4-1.9-1.4-2.2-1.1-.2-2 .3-2.2 1.4z"/><path stroke="#4B4F54" stroke-miterlimit="10" d="M33.7 47.6c9.5-1.8 15.7-11 13.9-20.6s-11-15.7-20.6-13.9-15.7 11-13.9 20.6 11.1 15.7 20.6 13.9" fill="none"/><path d="M17.8 28.2l-.3.1-1.9 1c-.3.1-.4.4-.3.7.1.3.4.5.7.5.1 0 .1 0 .2-.1l1.3-.7 1.3 6.9c.1.3.3.5.6.5h.1c.3-.1.6-.4.5-.7l-1.5-7.6c-.1-.4-.3-.6-.7-.6zm5.2-1c-1.1.2-2 .9-2.5 1.9-.5.9-.6 2.1-.4 3.3.4 2.3 2 3.8 3.9 3.8.2 0 .5 0 .7-.1 2.2-.4 3.4-2.6 2.9-5.2-.5-2.5-2.5-4.1-4.6-3.7zm3.1 6.5c-.3.7-.9 1.2-1.6 1.3-1.5.3-2.8-.9-3.1-2.9-.2-.9-.1-1.8.2-2.5.3-.7.9-1.2 1.6-1.3h.5c1.3 0 2.3 1.1 2.7 2.9.1.9 0 1.8-.3 2.5zm4.8-8.1c-1.1.2-2 .9-2.5 1.9-.5.9-.6 2.1-.4 3.3.4 2.3 2 3.8 3.9 3.8.2 0 .5 0 .7-.1 1.1-.2 2-.9 2.5-1.9.5-.9.6-2.1.4-3.3-.5-2.5-2.4-4.1-4.6-3.7zm1.5 7.9c-1.5.3-2.8-.9-3.1-2.9-.2-.9-.1-1.8.2-2.5.3-.7.9-1.2 1.6-1.3h.5c1.3 0 2.3 1.1 2.7 2.9.3 1.6-.1 3.4-1.9 3.8zm10.4-9.5c-.1-.3-.3-.5-.6-.4-.2 0-.4.2-.4.4l-3.2 8.6c-.1.1-.1.3-.1.4.1.3.3.4.5.4h.1c.2 0 .3-.2.4-.4l3.3-8.7v-.3zm-.6-.2zm-2.4 4.1c.3-.5.5-1.1.3-1.7-.2-1.2-1.4-2-2.6-1.8-.6.1-1.1.5-1.5.9-.3.5-.5 1.1-.3 1.7.2 1.1 1.1 1.8 2.2 1.8h.5c.5-.1 1-.5 1.4-.9zm-1-.6c-.2.3-.4.4-.7.5-.6.1-1.2-.3-1.3-.9-.1-.3 0-.6.1-.9.2-.3.4-.4.7-.5h.2c.5 0 1 .4 1.1 1 .1.2.1.5-.1.8zm6.7 2.6c-.2-1.1-1.1-1.8-2.2-1.8h-.4c-1.2.2-2 1.4-1.8 2.6.2 1.1 1.1 1.8 2.2 1.8h.5c1.1-.2 1.9-1.4 1.7-2.6zm-1.3 1.1c-.2.3-.4.4-.7.5-.6.1-1.2-.3-1.3-.9-.1-.3 0-.6.1-.9.2-.3.4-.4.7-.5h.2c.5 0 1 .4 1.1 1 .1.2.1.5-.1.8z" fill="#4B4F54"/></svg>