<svg xmlns="http://www.w3.org/2000/svg" viewBox="0 0 55.6 67" enable-background="new 0 0 55.6 67"><circle stroke="#fff" stroke-miterlimit="10" cx="27.5" cy="39.4" r="26.8" fill="none"/><circle stroke="#fff" stroke-miterlimit="10" cx="27.5" cy="39.4" r="23.4" fill="none"/><path stroke="#fff" stroke-linecap="round" stroke-linejoin="round" stroke-miterlimit="10" d="M34.4 10h-13.7v-5.7c0-2 1.6-3.6 3.6-3.6h6.5c2 0 3.6 1.6 3.6 3.6v5.7z" fill="none"/><path fill="#fff" stroke="#fff" stroke-linecap="round" stroke-linejoin="round" stroke-miterlimit="10" d="M23.3 3.8v3.9m2.8-3.9v3.9m2.8-3.9v3.9m2.7-3.9v3.9"/><path stroke="#fff" stroke-linecap="round" stroke-linejoin="round" stroke-miterlimit="10" d="M49.7 19.8l-3.9-3.9 4.5-4.5c1.1-1.1 2.8-1.1 3.9 0l.1.1c1.1 1.1 1.1 2.8 0 3.9l-4.6 4.4zm-26.8-9.6v2.6m8.9-2.4v2.5m16.1 5l-2 2" fill="none"/><circle fill="#fff" stroke="#fff" stroke-linecap="round" stroke-linejoin="round" stroke-miterlimit="10" cx="26.6" cy="38.3" r="1.9"/><path stroke="#fff" stroke-linecap="round" stroke-linejoin="round" stroke-miterlimit="10" d="M26.6 36.3l3.8-12.5m-1.1 14.5h11.3" fill="none"/></svg>