<svg xmlns="http://www.w3.org/2000/svg" width="50" height="50" viewBox="0 0 50 50"><circle fill="#fff" cx="24.1" cy="29.4" r="20.1"/><circle fill="#fff" cx="24.1" cy="29.4" r="17.5"/><path fill="#BBBCBC" d="M24.1 47.5c-9.9 0-18-8.1-18-18s8.1-18 18-18 18 8.1 18 18-8 18-18 18zm0-35.1c-9.4 0-17 7.6-17 17s7.6 17 17 17 17-7.6 17-17c0-9.3-7.6-17-17-17z"/><path fill="#fff" d="M19.1.5h10.1v5.6h-10.1zm1.9 1.3v2.9"/><path fill="#BBBCBC" d="M21 5.2c-.3 0-.5-.2-.5-.5v-2.9c0-.3.2-.5.5-.5s.5.2.5.5v2.9c0 .3-.2.5-.5.5z"/><path fill="#fff" d="M23.1 1.8v2.9"/><path fill="#BBBCBC" d="M23.1 5.2c-.3 0-.5-.2-.5-.5v-2.9c0-.3.2-.5.5-.5s.5.2.5.5v2.9c0 .3-.2.5-.5.5z"/><path fill="#fff" d="M25.1 1.8v2.9"/><path fill="#BBBCBC" d="M25.1 5.2c-.3 0-.5-.2-.5-.5v-2.9c0-.3.2-.5.5-.5s.5.2.5.5v2.9c0 .3-.2.5-.5.5z"/><path fill="#fff" d="M27.2 1.8v2.9"/><path fill="#BBBCBC" d="M27.2 5.2c-.3 0-.5-.2-.5-.5v-2.9c0-.3.2-.5.5-.5s.5.2.5.5v2.9c0 .3-.3.5-.5.5z"/><circle fill="#fff" cx="24.1" cy="29.4" r="1.5"/><path fill="#BBBCBC" d="M35.1 29.2h-9c-.1-.5-.4-1-.8-1.3l2.3-10.2c.1-.3-.1-.5-.4-.6-.3-.1-.5.1-.6.4l-2.3 10.1h-.3c-1.1 0-2 .9-2 2s.9 2 2 2c.9 0 1.6-.5 1.9-1.3h9.1c.3 0 .5-.2.5-.5s-.1-.6-.4-.6zm-11 1.3c-.6 0-1-.5-1-1s.5-1 1-1 1 .5 1 1-.4 1-1 1zm16.7-15.2c.1.1.2.1.4.1s.3 0 .4-.1l4.8-4.8c.1-.1.1-.2.1-.4s-.1-.3-.1-.4l-3-2.7c-.2-.2-.5-.2-.7 0l-4.8 4.8c-.2.2-.2.5 0 .7l1.1 1.1-.9.9c-2.8-2.6-6.3-4.4-10.2-5.2v-2.7h1.3c.3 0 .5-.2.5-.5v-5.6c0-.3-.2-.5-.5-.5h-10.1c-.3 0-.5.2-.5.5v5.6c0 .3.2.5.5.5h1.3v2.7c-9.6 1.7-16.8 10.1-16.8 20.1 0 11.4 9.2 20.6 20.5 20.6s20.6-9.2 20.6-20.6c0-5.6-2.2-10.6-5.8-14.3l.9-.9 1 1.1zm-21.2-9.7v-4.6h9.1v4.6h-9.1zm1.8 1h5.5v2.5c-.9-.1-1.8-.2-2.8-.2-.9 0-1.9.1-2.8.2v-2.5zm2.7 42.4c-10.8 0-19.5-8.8-19.5-19.6s8.8-19.6 19.6-19.6 19.6 8.8 19.6 19.6c-.1 10.8-8.9 19.6-19.7 19.6zm14.9-36.9l4-4.1 2.2 2.2-4.1 4.1-2.1-2.2z"/></svg>