<svg xmlns="http://www.w3.org/2000/svg" width="71" height="71" viewBox="0 0 71 71"><path fill="#00945E" d="M35.5 0l3.3 3.5 3.9-2.8 2.4 4.1 4.4-1.9 1.6 4.5 4.7-1 .7 4.7h4.8l-.3 4.8 4.7.9-1.3 4.6 4.4 1.8-2.1 4.3 3.9 2.7-2.9 3.8 3.3 3.4-3.7 3.1 2.6 4-4.2 2.3 1.7 4.5-4.6 1.3.8 4.8-4.8.4-.1 4.8-4.8-.5-1.1 4.6-4.6-1.5-2.1 4.4-4.1-2.4-2.9 3.8-3.6-3.2-3.6 3.2-2.9-3.8-4.1 2.4-2.1-4.4-4.6 1.5-1.1-4.6-4.8.5-.1-4.8-4.8-.4.8-4.8-4.6-1.3 1.7-4.5-4.2-2.3 2.6-4-3.7-3.1 3.3-3.4-2.9-3.8 3.9-2.7-2.1-4.3 4.4-1.8-1.3-4.6 4.7-.9-.3-4.8h4.8l.7-4.7 4.7 1 1.6-4.5 4.4 1.9 2.4-4.1 3.9 2.8z"/><path d="M25.9 24.1c.3-.4.6-.6 1.1-.6.6 0 1.2.5 1.2 1.2 0 .3-.1.6-.3.8l-6.2 8.7v7.1c0 .8-.5 1.4-1.4 1.4-.8 0-1.4-.6-1.4-1.4v-7.1l-6.2-8.7c-.2-.3-.3-.5-.3-.8 0-.7.6-1.2 1.2-1.2.5 0 .8.2 1.1.6l5.6 7.8 5.6-7.8zm5.4 5.9c1.9 0 3.4.9 4.2 2.4v-.9c0-.7.5-1.3 1.3-1.3s1.3.6 1.3 1.3v10c0 .7-.4 1.3-1.3 1.3-.8 0-1.3-.6-1.3-1.3v-.9c-.9 1.6-2.4 2.4-4.3 2.4-3.2 0-5.8-2.6-5.8-6.4.2-4 2.7-6.6 5.9-6.6zm.6 10.6c2.3 0 3.6-2.1 3.6-4.2 0-2.2-1.3-4.2-3.6-4.2s-3.7 1.7-3.7 4.2 1.5 4.2 3.7 4.2zm19.7-8.7c-.8 2.3-2.1 5.7-3.7 9.4-1.4 3.3-2.7 5.1-5.2 6.5-.2.1-.5.2-.7.2-.7 0-1.2-.5-1.2-1.1 0-.5.2-.8.7-1.1 1.6-1.1 2.4-1.9 3.2-3.5l-4.4-10.5c-.1-.2-.1-.4-.1-.5 0-.8.6-1.2 1.2-1.2s.9.3 1.1.7l3.6 9 3.2-8.7c.2-.6.6-1 1.2-1 .5 0 1.1.3 1.1 1.2.1.2 0 .4 0 .6zm3.8 7.4c.9 0 1.7.8 1.7 1.7 0 .9-.8 1.7-1.7 1.7-.9 0-1.7-.8-1.7-1.7 0-.9.8-1.7 1.7-1.7zm.6-2.3c-.1.4-.2.6-.6.6-.4 0-.6-.3-.7-.6l-.6-4.9v-7.2c0-.7.5-1.3 1.3-1.3s1.3.6 1.3 1.3v7.2l-.7 4.9z" fill="#fff"/></svg>