<?xml version="1.0" encoding="utf-8"?>
<!-- Generator: Adobe Illustrator 17.1.0, SVG Export Plug-In . SVG Version: 6.00 Build 0)  -->
<!DOCTYPE svg PUBLIC "-//W3C//DTD SVG 1.1//EN" "http://www.w3.org/Graphics/SVG/1.1/DTD/svg11.dtd">
<svg version="1.1" id="Layer_1" xmlns="http://www.w3.org/2000/svg" xmlns:xlink="http://www.w3.org/1999/xlink" x="0px" y="0px"
	 width="990px" height="990px" viewBox="0 0 990 990" enable-background="new 0 0 990 990" xml:space="preserve">
<g>
	<g>
		<path fill="#BBBCBC" d="M957,928.1C957,928.1,957,928.1,957,928.1H33c-11.8,0-22.7-6.3-28.6-16.5c-5.9-10.2-5.9-22.8,0-33
			l462-800.2c5.9-10.2,16.8-16.5,28.6-16.5s22.7,6.3,28.6,16.5L985,877.6c3.2,5.1,5,11.1,5,17.5C990,913.3,975.2,928.1,957,928.1z
			 M90.2,862.1h809.7L495,160.9L90.2,862.1z"/>
	</g>
	<g>
		<g>
			<path fill="#BBBCBC" d="M495,827.1c-30.1,0-54.6-24.6-54.6-54.6s24.6-53.9,54.6-53.9s54.6,23.8,54.6,53.9S525.1,827.1,495,827.1z
				 M518,643.3c-1.6,12.7-10.3,22.2-23,22.2s-21.4-9.5-23-22.2l-24.6-123.6V335.3c0-26.1,21.4-47.5,47.5-47.5s47.5,21.4,47.5,47.5
				v184.5L518,643.3z"/>
		</g>
	</g>
</g>
</svg>
