<?xml version="1.0" encoding="utf-8"?>
<!-- Generator: Adobe Illustrator 17.0.0, SVG Export Plug-In . SVG Version: 6.00 Build 0)  -->
<!DOCTYPE svg PUBLIC "-//W3C//DTD SVG 1.1//EN" "http://www.w3.org/Graphics/SVG/1.1/DTD/svg11.dtd">
<svg version="1.1" id="Layer_1" xmlns="http://www.w3.org/2000/svg" xmlns:xlink="http://www.w3.org/1999/xlink" x="0px" y="0px"
	 width="1000px" height="1000px" viewBox="0 0 1000 1000" enable-background="new 0 0 1000 1000" xml:space="preserve">
<g id="Layer_1_1_" display="none">
	
		<circle display="inline" fill="#65AB44" stroke="#000000" stroke-width="0.25" stroke-miterlimit="10" cx="500.007" cy="500" r="500"/>
	<g display="inline">
		<g>
			<circle fill="none" stroke="#000000" stroke-width="0.25" stroke-miterlimit="10" cx="500" cy="500" r="250"/>
			<circle fill="none" stroke="#000000" stroke-width="0.25" stroke-miterlimit="10" cx="500" cy="500" r="437.5"/>
			<circle fill="none" stroke="#000000" stroke-width="0.25" stroke-miterlimit="10" cx="500" cy="500" r="375"/>
			<circle fill="none" stroke="#000000" stroke-width="0.25" stroke-miterlimit="10" cx="500" cy="500" r="312.5"/>
			<circle fill="none" stroke="#000000" stroke-width="0.25" stroke-miterlimit="10" cx="500" cy="500" r="187.5"/>
			<circle fill="none" stroke="#000000" stroke-width="0.25" stroke-miterlimit="10" cx="500" cy="500" r="125"/>
		</g>
		<circle fill="none" stroke="#000000" stroke-width="0.25" stroke-miterlimit="10" cx="500" cy="500" r="62.5"/>
	</g>
</g>
<g id="Layer_6" display="none">
	<g transform="matrix(1 0 0 -1 0 2048)" display="inline">
		<path fill="#010101" d="M501.47,1326.944c12.567,0,23.499-4.65,32.799-13.949c9.299-9.299,13.949-20.232,13.949-32.798
			s-4.65-23.374-13.949-32.422c-9.299-9.047-20.232-13.572-32.799-13.572c-13.07,0-24.003,4.525-32.799,13.572
			c-8.796,9.047-13.195,19.855-13.195,32.422s4.398,23.5,13.195,32.798C477.469,1322.295,488.4,1326.944,501.47,1326.944z
			 M501.47,1409.884c-9.047,0-16.714,3.143-22.998,9.426s-9.426,13.949-9.426,22.997c0,15.582,4.021,33.05,12.063,52.404
			c8.042,19.353,16.211,35.689,24.505,49.009c8.294,13.32,20.735,32.045,37.323,56.173c39.208,55.293,60.319,92.992,63.336,113.099
			c1.005,6.032,1.509,13.824,1.509,23.374c0,30.16-10.304,55.67-30.915,76.531c-20.61,20.862-45.742,31.292-75.4,31.292
			c-30.16,0-55.669-10.431-76.531-31.292c-20.862-20.86-31.291-46.37-31.291-76.531c0-9.047-3.142-16.714-9.426-22.997
			c-6.283-6.283-13.949-9.426-22.998-9.426s-16.714,3.142-22.998,9.426c-6.283,6.283-9.426,13.948-9.426,22.997
			c0,47.752,16.839,88.47,50.518,122.148c33.679,33.679,74.394,50.518,122.148,50.518c47.251,0,87.841-16.839,121.77-50.518
			s50.895-74.394,50.895-122.148c0-1.509-1.509-12.818-4.524-33.93c-2.011-13.572-7.163-29.029-15.457-46.37
			s-15.959-31.542-22.998-42.601s-18.348-27.897-33.93-50.518c-14.577-21.112-25.008-36.443-31.291-45.994
			s-13.195-22.117-20.735-37.7c-7.54-15.582-11.31-27.897-11.31-36.946c0-8.546-3.268-16.086-9.802-22.619
			C517.547,1413.155,510.016,1409.884,501.47,1409.884z"/>
	</g>
</g>
<g id="Layer_4" display="none">
	<g transform="matrix(1 0 0 -1 0 2048)" display="inline">
		<path fill="#010101" d="M497.673,1586.601c-19.036,0-36.744,4.759-53.124,14.277c-16.38,9.519-29.44,22.467-39.18,38.847
			c-3.985,6.641-4.98,13.613-2.988,20.918s6.309,12.948,12.948,16.933c5.755,3.541,12.506,4.317,20.254,2.324
			c7.748-1.992,13.17-6.309,16.27-12.948c9.739-17.265,25.013-25.898,45.819-25.898c21.25,0,36.744,8.633,46.484,25.898
			c3.099,6.641,8.522,10.957,16.269,12.948c7.748,1.991,14.499,1.217,20.254-2.324c6.641-3.985,10.957-9.629,12.948-16.933
			s0.995-14.277-2.988-20.918c-9.739-16.38-22.91-29.329-39.512-38.847C534.529,1591.361,516.71,1586.601,497.673,1586.601z
			 M259.943,1284.456H736.07c-0.443,9.297-2.103,19.036-4.98,29.218s-7.748,21.803-14.609,34.863s-18.04,23.796-33.534,32.207
			c-15.494,8.412-34.088,12.617-55.781,12.617c-19.036,0-34.973,2.434-47.812,7.304c-12.838,4.87-22.245,11.843-28.222,20.918
			s-9.961,18.262-11.953,27.559s-2.988,20.143-2.988,32.539c0,26.12,10.404,48.919,31.21,68.398l5.312,2.656
			c23.464,12.838,42.721,33.313,57.772,61.425c15.051,28.112,22.578,57.44,22.578,87.987c0,42.056-15.162,78.248-45.487,108.573
			s-66.959,45.487-109.902,45.487c-42.499,0-78.912-15.162-109.237-45.487c-30.325-30.325-45.487-66.517-45.487-108.573
			c0-30.547,7.526-59.876,22.578-87.987c15.052-28.111,34.31-48.587,57.772-61.425c3.541-1.771,5.755-3.541,6.641-5.312
			c19.921-17.265,29.883-39.18,29.883-65.742c0-12.396-0.996-23.242-2.988-32.539c-1.992-9.297-5.977-18.482-11.953-27.559
			c-5.976-9.077-15.384-16.048-28.222-20.918s-28.776-7.304-47.812-7.304c-21.693,0-40.285-4.205-55.781-12.617
			c-15.496-8.411-26.673-19.147-33.534-32.207s-11.731-24.681-14.609-34.863C262.048,1303.492,260.385,1293.753,259.943,1284.456z
			 M744.038,1230.004H251.973c-12.838,0-23.796,4.759-32.871,14.277c-9.075,9.519-13.613,20.696-13.613,33.534
			c0,16.823,2.546,34.088,7.636,51.796s13.392,35.859,24.903,54.452s28.554,33.866,51.133,45.819
			c22.578,11.953,49.14,17.93,79.687,17.93c17.265,0,27.669,1.881,31.21,5.644c3.541,3.763,5.312,13.17,5.312,28.222
			c0,9.297-3.541,17.487-10.624,24.569c-31.432,18.15-56.998,45.377-76.698,81.679s-29.551,74.375-29.551,114.217
			c0,57.108,20.475,106.027,61.425,146.756s90.201,61.093,147.753,61.093s106.912-20.364,148.085-61.093
			c41.172-40.729,61.757-89.647,61.757-146.756c0-40.285-9.85-78.58-29.551-114.882s-45.266-63.306-76.698-81.014
			c-7.083-7.083-10.624-15.273-10.624-24.569c0-15.052,1.771-24.459,5.312-28.222c3.541-3.763,13.945-5.644,31.21-5.644
			c30.547,0,57.108-5.977,79.687-17.93c22.578-11.953,39.622-27.227,51.133-45.819c11.511-18.592,19.811-36.744,24.903-54.452
			s7.636-34.973,7.636-51.796c0-12.838-4.538-24.017-13.613-33.534C767.835,1234.764,756.877,1230.004,744.038,1230.004z"/>
	</g>
</g>
<g id="Layer_2" display="none">
	<g transform="matrix(1 0 0 -1 0 2048)" display="inline">
		<path fill="#020202" d="M711.095,1792.538c-7.267,7.266-10.899,15.488-10.899,24.667s3.633,17.401,10.899,24.667
			c6.501,6.501,14.532,9.752,24.093,9.752s17.592-3.251,24.093-9.752c6.501-7.266,9.752-15.488,9.752-24.667
			s-3.251-17.4-9.752-24.667c-6.501-6.501-14.532-9.752-24.093-9.752S717.596,1786.036,711.095,1792.538z M245.872,1841.87
			c6.501,6.501,14.532,9.752,24.093,9.752c9.56,0,17.592-3.251,24.093-9.752c7.267-7.267,10.899-15.489,10.899-24.667
			c0-9.179-3.633-17.401-10.899-24.667c-6.501-6.501-14.532-9.752-24.093-9.752c-9.56,0-17.592,3.251-24.093,9.752
			c-6.501,7.267-9.752,15.488-9.752,24.667C236.12,1826.383,239.37,1834.604,245.872,1841.87z M797.141,1584.88
			c0,9.56,3.251,17.592,9.752,24.093c6.501,6.501,14.532,9.752,24.093,9.752s17.592-3.251,24.093-9.752s9.752-14.532,9.752-24.093
			s-3.251-17.687-9.752-24.379s-14.532-10.039-24.093-10.039c-9.561,0-17.592,3.346-24.093,10.039
			C800.392,1567.193,797.141,1575.319,797.141,1584.88z M139.174,1584.88c0,9.56,3.442,17.592,10.325,24.093
			s15.106,9.752,24.667,9.752c9.561,0,17.592-3.251,24.093-9.752s9.752-14.532,9.752-24.093s-3.251-17.687-9.752-24.379
			c-6.501-6.693-14.532-10.039-24.093-10.039s-17.783,3.346-24.667,10.039C142.615,1567.193,139.174,1575.319,139.174,1584.88z
			 M501.716,1947.994c9.944,0,18.356-3.346,25.241-10.039c6.884-6.693,10.325-14.819,10.325-24.379
			c0-9.561-3.442-17.592-10.325-24.093s-15.298-9.752-25.241-9.752c-9.56,0-17.592,3.251-24.093,9.752
			c-6.501,6.501-9.752,14.532-9.752,24.093s3.251,17.687,9.752,24.379C484.124,1944.647,492.154,1947.994,501.716,1947.994z
			 M577.436,1690.429c-36.713-24.475-67.882-47.421-93.504-68.837s-41.876-36.522-48.76-45.318l-10.899-13.768
			c-1.148-1.913-4.207-7.84-9.178-17.783c-9.56-23.711-9.369-47.421,0.574-71.132c9.944-23.71,26.578-40.346,49.906-49.906
			c24.093-9.944,48.09-10.039,71.991-0.286c23.901,9.752,40.633,26.675,50.194,50.767c3.059,7.266,4.972,13.194,5.736,17.783
			c0.765,3.824,1.625,9.944,2.582,18.356c0.956,8.414,0.192,29.638-2.294,63.674C591.299,1608.016,585.85,1646.833,577.436,1690.429
			z"/>
	</g>
</g>
<g id="Layer_3">
	<g transform="matrix(1 0 0 -1 0 2048)">
		<path fill="#010101" d="M191.971,1780.126c0,6.528,2.201,11.808,6.602,15.84s10.047,6.048,16.937,6.048H686.31
			c6.507,0,11.77-2.016,15.789-6.048s6.028-9.312,6.028-15.84v-127.871h76.936c6.507,0,11.961-2.304,16.363-6.911
			c4.402-4.607,6.602-10.176,6.602-16.704v-311.038c0-6.528-2.201-12.096-6.602-16.704c-4.401-4.608-9.856-6.911-16.363-6.911
			H314.264c-6.507,0-12.057,2.304-16.65,6.911c-4.592,4.607-6.889,10.176-6.889,16.704v127.294h-75.213
			c-6.507,0-12.057,2.304-16.65,6.911c-4.592,4.607-6.889,10.176-6.889,16.704v311.615H191.971z M761.522,1605.023H337.803v-263.806
			h423.719L761.522,1605.023L761.522,1605.023z M662.77,1756.509H237.904v-264.381h52.821v136.511
			c0,6.528,2.297,12.096,6.889,16.704c4.592,4.607,10.143,6.911,16.65,6.911H662.77V1756.509z"/>
	</g>
</g>
<g id="Layer_5" display="none">
	<g transform="matrix(1 0 0 -1 0 2048)" display="inline">
		<path fill="#010101" d="M765.168,1291.311H399.317c-7.376,0-14.014,2.95-19.916,8.851c-5.902,5.901-8.851,13.031-8.851,21.39
			s2.95,15.49,8.851,21.39c5.9,5.9,12.54,8.851,19.916,8.851H765.17c8.36,0,15.49-2.95,21.39-8.851s8.851-13.031,8.851-21.39
			s-2.95-15.49-8.851-21.39C780.659,1294.261,773.527,1291.311,765.168,1291.311z M251.795,1366.547
			c12.786,0,23.481-4.426,32.085-13.277c8.604-8.85,12.908-19.423,12.908-31.717c0-12.293-4.302-22.989-12.908-32.085
			c-8.606-9.097-19.301-13.645-32.085-13.645c-12.293,0-22.742,4.548-31.348,13.645c-8.606,9.097-12.908,19.792-12.908,32.085
			s4.302,22.866,12.908,31.717C229.052,1362.121,239.501,1366.547,251.795,1366.547z M765.168,1517.755H399.317
			c-7.376,0-14.014,2.95-19.916,8.851s-8.851,13.031-8.851,21.39c0,8.36,2.95,15.49,8.851,21.39c5.9,5.901,12.54,8.851,19.916,8.851
			H765.17c8.36,0,15.49-2.95,21.39-8.851c5.9-5.9,8.851-13.031,8.851-21.39c0-8.36-2.95-15.49-8.851-21.39
			C780.659,1520.705,773.527,1517.755,765.168,1517.755z M251.795,1592.991c12.786,0,23.481-4.426,32.085-13.277
			c8.604-8.85,12.908-19.423,12.908-31.717c0-12.293-4.302-22.866-12.908-31.717c-8.606-8.851-19.301-13.277-32.085-13.277
			c-12.293,0-22.742,4.426-31.348,13.277c-8.606,8.851-12.908,19.424-12.908,31.717c0,12.293,4.302,22.866,12.908,31.717
			C229.052,1588.565,239.501,1592.991,251.795,1592.991z M765.168,1744.2H399.317c-7.376,0-14.014,2.95-19.916,8.851
			c-5.902,5.9-8.851,13.031-8.851,21.39c0,8.36,2.95,15.49,8.851,21.39c5.9,5.9,12.54,8.851,19.916,8.851H765.17
			c8.36,0,15.49-2.95,21.39-8.851s8.851-13.031,8.851-21.39c0-8.36-2.95-15.49-8.851-21.39
			C780.659,1747.151,773.527,1744.2,765.168,1744.2z M251.795,1820.173c12.786,0,23.481-4.548,32.085-13.645
			s12.908-19.792,12.908-32.085s-4.302-22.866-12.908-31.717c-8.606-8.851-19.301-13.277-32.085-13.277
			c-12.293,0-22.742,4.426-31.348,13.277c-8.606,8.851-12.908,19.424-12.908,31.717c0,12.293,4.302,22.989,12.908,32.085
			C229.052,1815.625,239.501,1820.173,251.795,1820.173z"/>
	</g>
</g>
</svg>
