<?xml version="1.0" encoding="utf-8"?>
<!-- Generator: Adobe Illustrator 17.1.0, SVG Export Plug-In . SVG Version: 6.00 Build 0)  -->
<!DOCTYPE svg PUBLIC "-//W3C//DTD SVG 1.1//EN" "http://www.w3.org/Graphics/SVG/1.1/DTD/svg11.dtd">
<svg version="1.1" id="Layer_1" xmlns="http://www.w3.org/2000/svg" xmlns:xlink="http://www.w3.org/1999/xlink" x="0px" y="0px"
	 width="990px" height="990px" viewBox="0 0 990 990" enable-background="new 0 0 990 990" xml:space="preserve">
<path fill="#BBBCBC" d="M495,66c57.9,0,114.1,11.3,167,33.7c51.1,21.6,97,52.5,136.4,92c39.4,39.4,70.4,85.3,92,136.4
	c22.4,52.8,33.7,109,33.7,167s-11.3,114.1-33.7,167c-21.6,51.1-52.5,97-92,136.4c-39.4,39.4-85.3,70.4-136.4,92
	c-52.8,22.4-109,33.7-167,33.7s-114.1-11.3-167-33.7c-51.1-21.6-97-52.5-136.4-92c-39.4-39.4-70.4-85.3-92-136.4
	C77.3,609.1,66,552.9,66,495s11.3-114.1,33.7-167c21.6-51.1,52.5-97,92-136.4c39.4-39.4,85.3-70.4,136.4-92
	C380.9,77.3,437.1,66,495,66 M495,0C221.6,0,0,221.6,0,495s221.6,495,495,495s495-221.6,495-495S768.4,0,495,0L495,0z"/>
</svg>
