<?xml version="1.0" encoding="utf-8"?>
<!-- Generator: Adobe Illustrator 17.1.0, SVG Export Plug-In . SVG Version: 6.00 Build 0)  -->
<!DOCTYPE svg PUBLIC "-//W3C//DTD SVG 1.1//EN" "http://www.w3.org/Graphics/SVG/1.1/DTD/svg11.dtd">
<svg version="1.1" id="Layer_1" xmlns="http://www.w3.org/2000/svg" xmlns:xlink="http://www.w3.org/1999/xlink" x="0px" y="0px"
	 width="759px" height="990px" viewBox="0 0 759 990" enable-background="new 0 0 759 990" xml:space="preserve">
<path fill="#BBBCBC" d="M672.3,532.2c-12.9-12.9-33.8-12.9-46.7,0L412.5,745.3V33c0-18.2-14.8-33-33-33s-33,14.8-33,33v712.3
	L133.3,532.2c-12.9-12.9-33.8-12.9-46.7,0s-12.9,33.8,0,46.7l269.5,269.5c6.4,6.4,14.9,9.7,23.3,9.7s16.9-3.2,23.3-9.7l269.5-269.5
	C685.2,565.9,685.2,545.1,672.3,532.2z"/>
<g>
	<path fill="#BBBCBC" d="M726,990H33c-18.2,0-33-14.8-33-33s14.8-33,33-33h693c18.2,0,33,14.8,33,33S744.2,990,726,990z"/>
</g>
</svg>
