<?xml version="1.0" encoding="utf-8"?>
<!-- Generator: Adobe Illustrator 18.0.0, SVG Export Plug-In . SVG Version: 6.00 Build 0)  -->
<!DOCTYPE svg PUBLIC "-//W3C//DTD SVG 1.1//EN" "http://www.w3.org/Graphics/SVG/1.1/DTD/svg11.dtd">
<svg version="1.1" id="Layer_1" xmlns="http://www.w3.org/2000/svg" xmlns:xlink="http://www.w3.org/1999/xlink" x="0px" y="0px"
	 width="990px" height="990px" viewBox="0 0 990 990" enable-background="new 0 0 990 990" xml:space="preserve">
<g>
	<path fill="#BBBCBC" d="M495,656.2c-30.1,0-54.6,23.8-54.6,53.9c0,30.1,24.6,54.6,54.6,54.6c30.1,0,54.6-24.6,54.6-54.6
		C549.7,679.9,525.1,656.2,495,656.2z"/>
	<path fill="#BBBCBC" d="M495,603.1c12.7,0,21.6-9.5,23.2-22.2L543,457.4V272.8c0-26.1-21.9-47.5-48-47.5c-26.1,0-48,21.4-48,47.5
		v184.5l24.8,123.6C473.4,593.6,482.3,603.1,495,603.1z"/>
	<path fill="#BBBCBC" d="M495,0C221.7,0,0.1,221.6,0.1,495s221.6,495,495,495s495-221.6,495-495S768.4,0,495,0z M798.3,798.3
		c-39.4,39.4-85.3,70.4-136.4,92C609.1,912.6,552.9,924,495,924c-57.9,0-114.1-11.3-166.9-33.7c-51.1-21.6-97-52.5-136.4-92
		c-39.4-39.4-70.4-85.3-92-136.4c-22.3-52.8-33.7-109-33.7-166.9s11.3-114.1,33.7-166.9c21.6-51.1,52.5-97,92-136.4
		c39.4-39.4,85.3-70.4,136.4-92C380.9,77.4,437.1,66,495,66c57.9,0,114.1,11.3,166.9,33.7c51.1,21.6,97,52.5,136.4,92
		c39.4,39.4,70.4,85.3,92,136.4c22.3,52.8,33.7,109,33.7,166.9s-11.3,114.1-33.7,166.9C868.7,713,837.7,758.9,798.3,798.3z"/>
</g>
</svg>
