<?xml version="1.0" encoding="utf-8"?>
<!-- Generator: Adobe Illustrator 17.1.0, SVG Export Plug-In . SVG Version: 6.00 Build 0)  -->
<!DOCTYPE svg PUBLIC "-//W3C//DTD SVG 1.1//EN" "http://www.w3.org/Graphics/SVG/1.1/DTD/svg11.dtd">
<svg version="1.1" id="Layer_1" xmlns="http://www.w3.org/2000/svg" xmlns:xlink="http://www.w3.org/1999/xlink" x="0px" y="0px"
	 width="990px" height="990px" viewBox="0 1.8 990 990" enable-background="new 0 1.8 990 990" xml:space="preserve">
<path fill="#BBBCBC" d="M977.4,493.5c-7.7-16-18.8-31.6-33.2-46.1c-13.3-13.5-29.6-26.4-48.4-38.3c-18-11.4-38.6-22.1-61.1-31.8
	c-22.1-9.5-46.4-18.1-72.2-25.5c-25.8-7.5-53.3-13.9-81.8-19c-28.9-5.2-59.1-9.2-89.7-11.9c-18.2-1.6-34.2,11.8-35.8,30
	s11.8,34.2,30,35.8c28.7,2.5,56.8,6.3,83.7,11.1c26.3,4.8,51.6,10.6,75.2,17.5c23.2,6.7,44.9,14.4,64.6,22.8
	c19.3,8.3,36.7,17.3,51.7,26.8c14.6,9.3,27,19,36.8,28.9c9.2,9.3,16.1,18.8,20.6,28.2c4.1,8.7,6.2,17.1,6.2,25.7s-2,17-6.2,25.7
	c-4.5,9.4-11.4,18.9-20.6,28.2c-9.8,10-22.2,19.7-36.8,28.9c-15,9.5-32.5,18.6-51.7,26.8c-19.7,8.4-41.4,16.1-64.6,22.8
	c-23.6,6.8-48.9,12.7-75.2,17.5c-26.9,4.9-55.1,8.6-83.7,11.1c-59,5.2-121.5,5.2-180.5,0c-28.7-2.5-56.8-6.3-83.7-11.1
	c-26.3-4.8-51.6-10.6-75.2-17.5c-23.2-6.7-44.9-14.4-64.6-22.8c-19.3-8.3-36.7-17.3-51.7-26.8c-14.6-9.3-27-19-36.8-28.9
	c-9.2-9.3-16.1-18.8-20.6-28.2c-4.1-8.7-6.2-17.1-6.2-25.7s2-17,6.2-25.7c4.5-9.4,11.4-18.9,20.6-28.2c9.8-10,22.2-19.7,36.8-28.9
	c15-9.5,32.5-18.6,51.7-26.8c19.7-8.4,41.4-16.1,64.6-22.8c23.6-6.8,48.9-12.7,75.2-17.5c14.1-2.5,28.5-4.8,43.1-6.7l-37.4,64
	c-9.2,15.7-3.9,36,11.9,45.1c5.2,3,10.9,4.5,16.6,4.5c11.4,0,22.4-5.9,28.5-16.4L466,347.2c4.4-7.6,5.6-16.6,3.4-25
	c-2.2-8.5-7.7-15.7-15.3-20.1L313,219.8c-15.7-9.2-35.9-3.9-45.1,11.9c-9.2,15.7-3.9,35.9,11.9,45.1l82.2,48
	c-18,2.2-35.6,4.9-52.8,8c-28.5,5.2-56,11.6-81.8,19c-25.8,7.5-50,16.1-72.2,25.5c-22.5,9.7-43.1,20.3-61.1,31.8
	C75.3,421,59,433.9,45.7,447.4c-14.4,14.6-25.6,30.1-33.2,46.1C4.2,511,0,529.2,0,547.6s4.2,36.6,12.6,54.1
	c7.7,16,18.8,31.6,33.2,46.1c13.3,13.5,29.6,26.4,48.4,38.3c18,11.4,38.6,22.1,61.1,31.8c22.1,9.5,46.4,18.1,72.2,25.5
	c25.8,7.5,53.3,13.9,81.8,19c28.9,5.2,59.1,9.2,89.7,11.9c31.4,2.8,63.7,4.1,96,4.1s64.6-1.4,96-4.1c30.7-2.7,60.9-6.7,89.7-11.9
	c28.5-5.2,56-11.6,81.8-19c25.8-7.5,50-16.1,72.2-25.5c22.5-9.7,43.1-20.3,61.1-31.8c18.8-11.9,35.1-24.8,48.4-38.3
	c14.4-14.6,25.6-30.1,33.2-46.1c8.4-17.5,12.6-35.7,12.6-54.1S985.8,511,977.4,493.5z"/>
</svg>
