<?xml version="1.0" encoding="utf-8"?>
<!-- Generator: Adobe Illustrator 17.1.0, SVG Export Plug-In . SVG Version: 6.00 Build 0)  -->
<!DOCTYPE svg PUBLIC "-//W3C//DTD SVG 1.1//EN" "http://www.w3.org/Graphics/SVG/1.1/DTD/svg11.dtd">
<svg version="1.1" id="Layer_1" xmlns="http://www.w3.org/2000/svg" xmlns:xlink="http://www.w3.org/1999/xlink" x="0px" y="0px"
	 width="990px" height="990px" viewBox="0 0 990 990" enable-background="new 0 0 990 990" xml:space="preserve">
<path fill="#BBBCBC" d="M974.4,497.2c-8.4-11.7-20.2-22.7-35.3-32.9c-13.3-9-29.6-17.6-48.2-25.5c-17.8-7.5-38-14.5-60.2-20.9
	c-21.8-6.2-45.8-11.9-71.2-16.8c-25.5-4.9-52.6-9.1-80.8-12.5c-28.6-3.5-58.4-6.1-88.8-7.9c-18.2-1.1-33.8,12.8-34.9,31
	c-1.1,18.2,12.8,33.8,31,34.9c29,1.7,57.5,4.2,84.7,7.5c26.6,3.2,52.2,7.2,76.2,11.8c23.5,4.5,45.6,9.7,65.6,15.4
	c19.6,5.6,37.3,11.7,52.6,18.2c14.7,6.2,27.2,12.7,37,19.4c10.6,7.2,16,13,18.6,16.6c1.5,2,3.2,5,3.2,7.4s-1.7,5.3-3.2,7.4
	c-2.6,3.6-7.9,9.5-18.6,16.6c-9.8,6.6-22.3,13.1-37,19.4c-15.3,6.5-33,12.6-52.6,18.2c-20,5.7-42,10.9-65.6,15.4
	c-23.9,4.6-49.6,8.6-76.2,11.8c-27.2,3.3-55.7,5.8-84.7,7.5c-59.6,3.5-122.8,3.5-182.4,0c-29-1.7-57.5-4.2-84.7-7.5
	c-26.6-3.2-52.2-7.2-76.2-11.8c-23.5-4.5-45.6-9.7-65.6-15.4c-19.6-5.6-37.3-11.7-52.6-18.2c-14.7-6.2-27.2-12.7-37-19.4
	c-10.6-7.2-16-13-18.6-16.6c-1.5-2-3.2-5-3.2-7.4s1.7-5.3,3.2-7.4c2.6-3.6,7.9-9.5,18.6-16.6c9.8-6.6,22.3-13.1,37-19.4
	c15.3-6.5,33-12.6,52.6-18.2c20-5.7,42-10.9,65.6-15.4c23.9-4.6,49.6-8.6,76.2-11.8c20.1-2.4,41-4.4,62.2-6l-36.5,44.6
	c-11.5,14.1-9.5,34.9,4.6,46.4c6.1,5,13.5,7.5,20.9,7.5c9.6,0,19-4.1,25.6-12.1l91.9-112.2c5.5-6.8,8.2-15.5,7.3-24.2
	c-0.9-8.7-5.2-16.7-11.9-22.3l-112.2-91.9c-14.1-11.5-34.9-9.5-46.4,4.6c-11.5,14.1-9.5,34.9,4.6,46.4l56.8,46.5
	c-25.5,1.7-50.6,4.1-74.7,7c-28.1,3.4-55.3,7.6-80.8,12.5c-25.4,4.9-49.4,10.6-71.2,16.8c-22.2,6.3-42.4,13.4-60.2,20.9
	c-18.6,7.9-34.9,16.5-48.2,25.5c-15,10.2-26.9,21.2-35.3,32.9C5.2,511.6,0,527,0,543s5.2,31.4,15.6,45.8
	c8.4,11.7,20.2,22.7,35.3,32.9c13.3,9,29.6,17.6,48.2,25.5c17.8,7.5,38,14.5,60.2,20.9c21.8,6.2,45.8,11.9,71.2,16.8
	c25.5,4.9,52.6,9.1,80.8,12.5c28.6,3.5,58.4,6.1,88.8,7.9c31.1,1.8,63,2.7,95,2.7s64-0.9,95-2.7c30.3-1.8,60.2-4.4,88.8-7.9
	c28.1-3.4,55.3-7.6,80.8-12.5c25.4-4.9,49.4-10.6,71.2-16.8c22.2-6.3,42.4-13.4,60.2-20.9c18.6-7.9,34.9-16.5,48.2-25.5
	c15-10.2,26.9-21.2,35.3-32.9C984.8,574.4,990,559,990,543S984.8,511.6,974.4,497.2z"/>
</svg>
