<?xml version="1.0" encoding="utf-8"?>
<!-- Generator: Adobe Illustrator 17.1.0, SVG Export Plug-In . SVG Version: 6.00 Build 0)  -->
<!DOCTYPE svg PUBLIC "-//W3C//DTD SVG 1.1//EN" "http://www.w3.org/Graphics/SVG/1.1/DTD/svg11.dtd">
<svg version="1.1" id="Layer_1" xmlns="http://www.w3.org/2000/svg" xmlns:xlink="http://www.w3.org/1999/xlink" x="0px" y="0px"
	 width="858.5px" height="990px" viewBox="0 0 858.5 990" enable-background="new 0 0 858.5 990" xml:space="preserve">
<path fill="#BBBCBC" d="M852.5,291.9c-10.9-59.6-41.6-114-86.6-153.5c-22.9-20-48.6-35.7-76.6-46.5c-29.1-11.3-59.8-17-91.1-17
	c-47.4,0-93.8,13.3-134.2,38.6c-12.2,7.6-23.7,16.3-34.5,25.8c-10.8-9.5-22.3-18.2-34.5-25.8c-40.4-25.2-86.8-38.6-134.2-38.6
	c-63.7,0-125,24.1-172.5,67.8C42.1,185,12.3,242.9,4.2,305.7c-3.6,22.1-4.1,49.9-4.1,56.6c-0.4,19.4,0.8,50.5,9.2,89
	c9.4,43.3,25.8,87,48.5,130c28,52.8,65.9,104.5,112.6,153.7c54.1,57,120.9,111.5,198.6,162c8.1,5.3,30.7,18.2,61,18.2
	c21.2,0,42-6.3,60-18.4c138.5-92.2,240.1-194.3,302.1-303.5c23.7-41.7,41.3-84.3,52.5-126.4c8.4-31.6,13-62.5,13.8-91.8
	c0-0.3,0-0.6,0-0.9C858.6,361.8,858.6,319.8,852.5,291.9z"/>
</svg>
