<?xml version="1.0" encoding="utf-8"?>
<!-- Generator: Adobe Illustrator 17.1.0, SVG Export Plug-In . SVG Version: 6.00 Build 0)  -->
<!DOCTYPE svg PUBLIC "-//W3C//DTD SVG 1.1//EN" "http://www.w3.org/Graphics/SVG/1.1/DTD/svg11.dtd">
<svg version="1.1" id="Layer_1" xmlns="http://www.w3.org/2000/svg" xmlns:xlink="http://www.w3.org/1999/xlink" x="0px" y="0px"
	 width="440px" height="990px" viewBox="0 0 440 990" enable-background="new 0 0 440 990" xml:space="preserve">
<g>
	<path fill="#BBBCBC" d="M38.5,248.3c-3.3,1.1-6.6,1.1-9.9,1.1c-13.2,0-28.6-9.9-28.6-27.5c0-9.9,4.4-18.7,13.2-28.6
		C28.6,175.7,55,157,83.6,144.9c40.7-16.5,89.1-25.3,127.6-25.3c167.2,0,228.8,75.9,228.8,170.5c0,67.1-58.3,123.2-108.9,169.4
		c-57.2,53.9-103.4,97.9-103.4,176v39.6c0,17.6-14.3,30.8-34.1,30.8c-18.7,0-31.9-14.3-31.9-30.8v-44c0-80.3,41.8-139.7,101.2-190.3
		C311.3,400.1,374,347.3,374,290.1c0-86.9-75.9-111.1-170.5-111.1c-64.9,0-110,17.6-148.5,56.1C49.5,240.6,45.1,246.1,38.5,248.3z
		 M194.7,779.6c25.3,0,46.2,20.9,46.2,46.2S220,872,194.7,872s-46.2-20.9-46.2-46.2S169.4,779.6,194.7,779.6z"/>
</g>
</svg>
