<?xml version="1.0" encoding="utf-8"?>
<!-- Generator: Adobe Illustrator 17.1.0, SVG Export Plug-In . SVG Version: 6.00 Build 0)  -->
<!DOCTYPE svg PUBLIC "-//W3C//DTD SVG 1.1//EN" "http://www.w3.org/Graphics/SVG/1.1/DTD/svg11.dtd">
<svg version="1.1" id="Layer_1" xmlns="http://www.w3.org/2000/svg" xmlns:xlink="http://www.w3.org/1999/xlink" x="0px" y="0px"
	 width="578.9px" height="990px" viewBox="0 0 578.9 990" enable-background="new 0 0 578.9 990" xml:space="preserve">
<text transform="matrix(1 0 0 1 29.3286 798.5923)" fill="#BBBCBC" font-family="'BryantMooPro-Regular'" font-size="7">?</text>
<g>
	<path fill="#BBBCBC" d="M50.7,169.3c-4.3,1.4-8.7,1.4-13,1.4c-17.4,0-37.6-13-37.6-36.2c0-13,5.8-24.6,17.4-37.6
		c20.3-23.2,55-47.8,92.6-63.7C163.6,11.6,227.2,0,277.9,0c220,0,301.1,99.9,301.1,224.3c0,88.3-76.7,162.1-143.3,222.9
		c-75.3,70.9-136.1,128.8-136.1,231.6v52.1c0,23.2-18.8,40.5-44.9,40.5c-24.6,0-42-18.8-42-40.5V673c0-105.7,55-183.8,133.2-250.4
		c63.7-53.6,146.2-123,146.2-198.3c0-114.3-99.9-146.2-224.3-146.2c-85.4,0-144.7,23.2-195.4,73.8C65.1,159.2,59.3,166.4,50.7,169.3
		z M256.2,868.4c33.3,0,60.8,27.5,60.8,60.8c0,33.3-27.5,60.8-60.8,60.8c-33.3,0-60.8-27.5-60.8-60.8
		C195.4,895.9,222.9,868.4,256.2,868.4z"/>
</g>
</svg>
