<?xml version="1.0" encoding="utf-8"?>
<!-- Generator: Adobe Illustrator 18.0.0, SVG Export Plug-In . SVG Version: 6.00 Build 0)  -->
<!DOCTYPE svg PUBLIC "-//W3C//DTD SVG 1.1//EN" "http://www.w3.org/Graphics/SVG/1.1/DTD/svg11.dtd">
<svg version="1.1" id="Layer_1" xmlns="http://www.w3.org/2000/svg" xmlns:xlink="http://www.w3.org/1999/xlink" x="0px" y="0px"
	 width="980px" height="980px" viewBox="3138.8 0 980 980" enable-background="new 3138.8 0 980 980" xml:space="preserve">
<circle fill="#BBBCBC" cx="3349" cy="258.3" r="67.5"/>
<circle fill="#BBBCBC" cx="3349" cy="491.5" r="67.5"/>
<circle fill="#BBBCBC" cx="3349" cy="724.7" r="67.5"/>
<g>
	<path fill="#BBBCBC" d="M3955.6,281.7H3537c-12.9,0-23.3-10.4-23.3-23.3c0-12.9,10.4-23.3,23.3-23.3h418.6
		c12.9,0,23.3,10.4,23.3,23.3C3978.9,271.3,3968.5,281.7,3955.6,281.7z"/>
</g>
<g>
	<path fill="#BBBCBC" d="M3955.6,514.9H3537c-12.9,0-23.3-10.4-23.3-23.3c0-12.9,10.4-23.3,23.3-23.3h418.6
		c12.9,0,23.3,10.4,23.3,23.3C3978.9,504.4,3968.5,514.9,3955.6,514.9z"/>
</g>
<g>
	<path fill="#BBBCBC" d="M3955.6,748H3537c-12.9,0-23.3-10.4-23.3-23.3s10.4-23.3,23.3-23.3h418.6c12.9,0,23.3,10.4,23.3,23.3
		S3968.5,748,3955.6,748z"/>
</g>
</svg>
