<?xml version="1.0" encoding="utf-8"?>
<!-- Generator: Adobe Illustrator 18.0.0, SVG Export Plug-In . SVG Version: 6.00 Build 0)  -->
<!DOCTYPE svg PUBLIC "-//W3C//DTD SVG 1.1//EN" "http://www.w3.org/Graphics/SVG/1.1/DTD/svg11.dtd">
<svg version="1.1" id="Layer_1" xmlns="http://www.w3.org/2000/svg" xmlns:xlink="http://www.w3.org/1999/xlink" x="0px" y="0px"
	 width="980px" height="980px" viewBox="4138.8 0 980 980" enable-background="new 4138.8 0 980 980" xml:space="preserve">
<g>
	<g>
		<path fill="#BBBCBC" d="M4628.8,513c-141.4,0-256.5-115.1-256.5-256.5S4487.4,0,4628.8,0s256.5,115.1,256.5,256.5
			S4770.2,513,4628.8,513z M4628.8,46.6c-115.7,0-209.9,94.1-209.9,209.9s94.1,209.9,209.9,209.9s209.9-94.1,209.9-209.9
			S4744.5,46.6,4628.8,46.6z"/>
	</g>
	<path fill="#BBBCBC" d="M4921.4,686.2c-38.4-57.1-86.6-99-143.2-124.6c-9.9-4.4-21.5-1.5-28.1,7.1l-124,162l-120-161.7
		c-6.5-8.8-18.2-11.8-28.4-7.3c-53.7,24.3-97.6,63.6-138.4,123.5c-37.3,55.1-37.3,117.8-37.1,184.2v87.3c0,12.9,10.4,23.3,23.3,23.3
		h606.3c12.9,0,23.3-10.4,23.3-23.3l0.1-98.6C4955.9,796.5,4956.4,738.2,4921.4,686.2z M4908.5,933.4h-559.6c0,0,0-68.7,0-69
		c0-59.5,0.6-110.9,29-152.9c31.2-45.9,64.1-77.7,102.4-98.8L4607,783.4c4.4,5.9,11.8,10.6,18.7,9.4c7.2,0,14.1-3.4,18.5-9.2
		l131.1-171.3c41.5,22.4,77.5,55.9,107.2,100c26.9,39.9,25.8,88.8,25.8,145.4V933.4z"/>
</g>
</svg>
