<?xml version="1.0" encoding="utf-8"?>
<!-- Generator: Adobe Illustrator 17.1.0, SVG Export Plug-In . SVG Version: 6.00 Build 0)  -->
<!DOCTYPE svg PUBLIC "-//W3C//DTD SVG 1.1//EN" "http://www.w3.org/Graphics/SVG/1.1/DTD/svg11.dtd">
<svg version="1.1" id="Layer_1" xmlns="http://www.w3.org/2000/svg" xmlns:xlink="http://www.w3.org/1999/xlink" x="0px" y="0px"
	 width="990px" height="990px" viewBox="0 0 990 990" enable-background="new 0 0 990 990" xml:space="preserve">
<g>
	<path fill="#BBBCBC" d="M495,0C221.6,0,0,221.6,0,495c0,202.7,121.9,376.8,296.3,453.4c-1.4-34.6-0.3-76.1,8.6-113.7
		c9.5-40.2,63.7-269.7,63.7-269.7s-15.8-31.6-15.8-78.3c0-73.4,42.5-128.1,95.5-128.1c45,0,66.8,33.8,66.8,74.3
		c0,45.3-28.9,113-43.7,175.7c-12.4,52.5,26.3,95.3,78.1,95.3c93.8,0,157-120.5,157-263.2c0-108.5-73.1-189.7-206-189.7
		C350.3,251,256.7,363,256.7,488c0,43.1,12.7,73.5,32.6,97.1c9.2,10.8,10.4,15.2,7.1,27.6c-2.4,9.1-7.8,31-10.1,39.7
		c-3.3,12.5-13.5,17-24.8,12.4c-69.2-28.2-101.4-104-101.4-189.1c0-140.6,118.6-309.2,353.8-309.2c189,0,313.4,136.8,313.4,283.6
		c0,194.2-108,339.3-267.1,339.3c-53.4,0-103.7-28.9-120.9-61.7c0,0-28.7,114.1-34.8,136.1c-10.5,38.2-31,76.3-49.8,106
		C399.2,982.9,446.3,990,495,990c273.4,0,495-221.6,495-495C990,221.6,768.4,0,495,0z"/>
</g>
</svg>
