<?xml version="1.0" encoding="utf-8"?>
<!-- Generator: Adobe Illustrator 17.1.0, SVG Export Plug-In . SVG Version: 6.00 Build 0)  -->
<!DOCTYPE svg PUBLIC "-//W3C//DTD SVG 1.1//EN" "http://www.w3.org/Graphics/SVG/1.1/DTD/svg11.dtd">
<svg version="1.1" id="Layer_1" xmlns="http://www.w3.org/2000/svg" xmlns:xlink="http://www.w3.org/1999/xlink" x="0px" y="0px"
	 width="766.4px" height="990.1px" viewBox="0 0 766.4 990.1" enable-background="new 0 0 766.4 990.1" xml:space="preserve">
<path fill="#BBBCBC" d="M406.4,0C136.2,0,0,193.7,0,355.2C0,453,37,540,116.4,572.5c13,5.3,24.7,0.2,28.5-14.2
	c2.6-10,8.8-35.2,11.6-45.6c3.8-14.3,2.3-19.3-8.2-31.7c-22.9-27-37.5-62-37.5-111.5c0-143.7,107.5-272.4,280-272.4
	c152.7,0,236.6,93.3,236.6,217.9c0,164-72.6,302.3-180.3,302.3c-59.5,0-104-49.2-89.7-109.5c17.1-72,50.2-149.8,50.2-201.8
	c0-46.5-25-85.4-76.7-85.4c-60.8,0-109.7,62.9-109.7,147.2c0,53.7,18.1,90,18.1,90s-62.2,263.7-73.1,309.9
	c-21.7,92-3.3,204.7-1.7,216.1c0.9,6.8,9.6,8.4,13.5,3.3c5.6-7.3,78-96.7,102.7-186.1c7-25.3,40-156.3,40-156.3
	c19.8,37.7,77.5,70.9,138.9,70.9c182.8,0,306.8-166.7,306.8-389.7C766.4,157.1,623.5,0,406.4,0z"/>
</svg>
