<?xml version="1.0" encoding="utf-8"?>
<!-- Generator: Adobe Illustrator 17.1.0, SVG Export Plug-In . SVG Version: 6.00 Build 0)  -->
<!DOCTYPE svg PUBLIC "-//W3C//DTD SVG 1.1//EN" "http://www.w3.org/Graphics/SVG/1.1/DTD/svg11.dtd">
<svg version="1.1" id="Layer_1" xmlns="http://www.w3.org/2000/svg" xmlns:xlink="http://www.w3.org/1999/xlink" x="0px" y="0px"
	 width="990px" height="990px" viewBox="0 0 990 990" enable-background="new 0 0 990 990" xml:space="preserve">
<path fill="#BBBCBC" d="M980.3,339.7c-6.2-6.2-14.6-9.7-23.3-9.7H792V99c0-18.2-14.8-33-33-33H231c-18.2,0-33,14.8-33,33v231H33
	c-18.2,0-33,14.8-33,33v396c0,18.2,14.8,33,33,33h99v165c0,18.2,14.8,33,33,33h660c18.2,0,33-14.8,33-33V792h99
	c18.2,0,33-14.8,33-33V363C990,354.2,986.5,345.9,980.3,339.7z M264,132h462v198H264V132z M792,924H198V759V594h594v165V924z"/>
</svg>
