<?xml version="1.0" encoding="utf-8"?>
<!-- Generator: Adobe Illustrator 17.1.0, SVG Export Plug-In . SVG Version: 6.00 Build 0)  -->
<!DOCTYPE svg PUBLIC "-//W3C//DTD SVG 1.1//EN" "http://www.w3.org/Graphics/SVG/1.1/DTD/svg11.dtd">
<svg version="1.1" id="Layer_1" xmlns="http://www.w3.org/2000/svg" xmlns:xlink="http://www.w3.org/1999/xlink" x="0px" y="0px"
	 width="990px" height="990px" viewBox="0 0 990 990" enable-background="new 0 0 990 990" xml:space="preserve">
<path fill="#BBBCBC" d="M309.4,61.9H61.9v247.5h247.5V61.9z M371.2,0L371.2,0v371.2H0V0H371.2z M123.8,123.8h123.8v123.8H123.8
	V123.8z M928.1,61.9H680.6v247.5h247.5V61.9z M990,0L990,0v371.2H618.8V0H990z M742.5,123.8h123.8v123.8H742.5V123.8z M309.4,680.6
	H61.9v247.5h247.5V680.6z M371.2,618.8L371.2,618.8V990H0V618.8H371.2z M123.8,742.5h123.8v123.8H123.8V742.5z M433.1,0H495v61.9
	h-61.9V0z M495,61.9h61.9v61.9H495V61.9z M433.1,123.8H495v61.9h-61.9V123.8z M495,185.6h61.9v61.9H495V185.6z M433.1,247.5H495
	v61.9h-61.9V247.5z M495,309.4h61.9v61.9H495V309.4z M433.1,371.2H495v61.9h-61.9V371.2z M433.1,495H495v61.9h-61.9V495z M495,556.9
	h61.9v61.9H495V556.9z M433.1,618.8H495v61.9h-61.9V618.8z M495,680.6h61.9v61.9H495V680.6z M433.1,742.5H495v61.9h-61.9V742.5z
	 M495,804.4h61.9v61.9H495V804.4z M433.1,866.2H495v61.9h-61.9V866.2z M495,928.1h61.9V990H495V928.1z M928.1,495H990v61.9h-61.9
	V495z M61.9,495h61.9v61.9H61.9V495z M123.8,433.1h61.9V495h-61.9V433.1z M0,433.1h61.9V495H0V433.1z M247.5,433.1h61.9V495h-61.9
	V433.1z M309.4,495h61.9v61.9h-61.9V495z M371.2,433.1h61.9V495h-61.9V433.1z M556.9,495h61.9v61.9h-61.9V495z M618.8,433.1h61.9
	V495h-61.9V433.1z M680.6,495h61.9v61.9h-61.9V495z M742.5,433.1h61.9V495h-61.9V433.1z M804.4,495h61.9v61.9h-61.9V495z
	 M866.2,433.1h61.9V495h-61.9V433.1z M928.1,618.8H990v61.9h-61.9V618.8z M556.9,618.8h61.9v61.9h-61.9V618.8z M618.8,556.9h61.9
	v61.9h-61.9V556.9z M680.6,618.8h61.9v61.9h-61.9V618.8z M804.4,618.8h61.9v61.9h-61.9V618.8z M866.2,556.9h61.9v61.9h-61.9V556.9z
	 M928.1,742.5H990v61.9h-61.9V742.5z M556.9,742.5h61.9v61.9h-61.9V742.5z M618.8,680.6h61.9v61.9h-61.9V680.6z M742.5,680.6h61.9
	v61.9h-61.9V680.6z M804.4,742.5h61.9v61.9h-61.9V742.5z M866.2,680.6h61.9v61.9h-61.9V680.6z M928.1,866.2H990v61.9h-61.9V866.2z
	 M618.8,804.4h61.9v61.9h-61.9V804.4z M680.6,866.2h61.9v61.9h-61.9V866.2z M742.5,804.4h61.9v61.9h-61.9V804.4z M804.4,866.2h61.9
	v61.9h-61.9V866.2z M618.8,928.1h61.9V990h-61.9V928.1z M742.5,928.1h61.9V990h-61.9V928.1z M866.2,928.1h61.9V990h-61.9V928.1z"/>
</svg>
