<?xml version="1.0" encoding="utf-8"?>
<!-- Generator: Adobe Illustrator 17.1.0, SVG Export Plug-In . SVG Version: 6.00 Build 0)  -->
<!DOCTYPE svg PUBLIC "-//W3C//DTD SVG 1.1//EN" "http://www.w3.org/Graphics/SVG/1.1/DTD/svg11.dtd">
<svg version="1.1" id="Layer_1" xmlns="http://www.w3.org/2000/svg" xmlns:xlink="http://www.w3.org/1999/xlink" x="0px" y="0px"
	 width="594px" height="990px" viewBox="0 0 594 990" enable-background="new 0 0 594 990" xml:space="preserve">
<g>
	<path fill="#BBBCBC" d="M561,990c-10.5,0-19.8-4.9-25.8-12.5L459,897.6l-59.1,79.1c-6.2,8.3-16,13.3-26.4,13.3s-20.2-4.9-26.4-13.3
		L291,901.7l-56.1,75.1c-6.2,8.3-16,13.3-26.4,13.3s-20.2-4.9-26.4-13.3l-57.7-77.2l-66.2,78.2c-8.9,10.6-23.5,14.4-36.5,9.7
		c-13-4.8-21.6-17.1-21.6-31V99c0-18.2,14.8-33,33-33h528c18.2,0,33,14.8,33,33v857.7c0,0,0,0.1,0,0.1v0.1
		C594,975.2,579.2,990,561,990z M291,813.5c10.4,0,20.2,4.9,26.4,13.3l56.1,75.1l56.1-75.1c5.8-7.8,14.8-12.6,24.5-13.2
		c9.7-0.6,19.2,3.1,25.9,10.2l48.1,50.5V132H66v734.3l34.8-41.1c6.5-7.7,16.1-12,26.2-11.7c10.1,0.3,19.4,5.2,25.4,13.2l56.1,75.1
		l56.1-75.1C270.8,818.4,280.6,813.5,291,813.5z"/>
	<g>
		<path fill="none" stroke="#BBBCBC" stroke-width="66" stroke-linecap="round" stroke-linejoin="round" stroke-miterlimit="10" d="
			M291,846.5"/>
	</g>
	<g>
		<path fill="#BBBCBC" d="M429,463H165c-18.2,0-33-14.8-33-33s14.8-33,33-33h264c18.2,0,33,14.8,33,33S447.2,463,429,463z"/>
	</g>
	<g>
		<path fill="#BBBCBC" d="M429,331H165c-18.2,0-33-14.8-33-33s14.8-33,33-33h264c18.2,0,33,14.8,33,33S447.2,331,429,331z"/>
	</g>
	<g>
		<path fill="#BBBCBC" d="M297,595H165c-18.2,0-33-14.8-33-33s14.8-33,33-33h132c18.2,0,33,14.8,33,33S315.2,595,297,595z"/>
	</g>
</g>
</svg>
