<?xml version="1.0" encoding="utf-8"?>
<!-- Generator: Adobe Illustrator 17.1.0, SVG Export Plug-In . SVG Version: 6.00 Build 0)  -->
<!DOCTYPE svg PUBLIC "-//W3C//DTD SVG 1.1//EN" "http://www.w3.org/Graphics/SVG/1.1/DTD/svg11.dtd">
<svg version="1.1" id="Layer_1" xmlns="http://www.w3.org/2000/svg" xmlns:xlink="http://www.w3.org/1999/xlink" x="0px" y="0px"
	 width="990px" height="990px" viewBox="0 0 990 990" enable-background="new 0 0 990 990" xml:space="preserve">
<path fill="#BBBCBC" d="M980.3,470.3c-12.9-12.9-33.8-12.9-46.7,0l-46.9,46.9c0.4-7.4,0.6-14.8,0.6-22.2c0-30.1-3-60.2-9-89.4
	c-5.8-28.5-14.5-56.5-25.9-83.3c-11.1-26.3-24.9-51.7-40.9-75.4c-15.9-23.5-34.1-45.6-54.2-65.6c-20.1-20.1-42.2-38.3-65.6-54.2
	c-23.7-16-49.1-29.8-75.4-40.9c-26.8-11.3-54.8-20-83.3-25.9c-58.5-12-120.3-12-178.8,0c-28.5,5.8-56.5,14.5-83.3,25.9
	c-26.3,11.1-51.7,24.9-75.4,40.9c-23.5,15.9-45.6,34.1-65.6,54.2c-20.1,20.1-38.3,42.2-54.2,65.6c-16,23.7-29.8,49.1-40.9,75.4
	c-11.3,26.8-20,54.8-25.9,83.3c-6,29.2-9,59.3-9,89.4s3,60.2,9,89.4c5.8,28.5,14.5,56.5,25.9,83.3C46,694,59.8,719.4,75.8,743.1
	c15.9,23.5,34.1,45.6,54.2,65.6c20.1,20.1,42.2,38.3,65.6,54.2c23.7,16,49.1,29.8,75.4,40.9c26.8,11.3,54.8,20,83.3,25.9
	c29.2,6,59.3,9,89.4,9s60.2-3,89.4-9c28.5-5.8,56.5-14.5,83.3-25.9c26.3-11.1,51.7-24.9,75.4-40.9c15.1-10.2,19.1-30.7,8.9-45.8
	c-10.2-15.1-30.7-19.1-45.8-8.9c-20.2,13.6-41.8,25.4-64.1,34.8c-22.8,9.6-46.6,17-70.8,22c-49.8,10.2-102.5,10.2-152.3,0
	c-24.2-5-48.1-12.4-70.8-22c-22.4-9.5-44-21.2-64.1-34.8c-20-13.5-38.8-29-55.9-46.1c-17.1-17.1-32.6-35.9-46.1-55.9
	c-13.6-20.2-25.3-41.8-34.8-64.1c-9.6-22.8-17-46.6-22-70.8C68.6,546.3,66,520.6,66,495s2.6-51.3,7.7-76.1c5-24.2,12.4-48.1,22-70.8
	c9.5-22.4,21.2-44,34.8-64.1c13.5-20,29-38.8,46.1-55.9c17.1-17.1,35.9-32.6,55.9-46.1c20.2-13.6,41.8-25.4,64.1-34.8
	c22.8-9.6,46.6-17,70.8-22c49.8-10.2,102.5-10.2,152.3,0c24.2,5,48.1,12.4,70.8,22c22.4,9.5,44,21.2,64.1,34.8
	c20,13.5,38.8,29,55.9,46.1c17.1,17.1,32.6,35.9,46.1,55.9c13.6,20.2,25.4,41.8,34.8,64.1c9.6,22.8,17,46.6,22,70.8
	c5.1,24.9,7.7,50.5,7.7,76.1c0,7-0.2,14.1-0.6,21.1L775,470.3c-12.9-12.9-33.8-12.9-46.7,0c-12.9,12.9-12.9,33.8,0,46.7L831,619.7
	c6.2,6.2,14.6,9.7,23.3,9.7s17.1-3.5,23.3-9.7L980.3,517C993.2,504.1,993.2,483.2,980.3,470.3z"/>
</svg>
