<?xml version="1.0" encoding="utf-8"?>
<!-- Generator: Adobe Illustrator 17.1.0, SVG Export Plug-In . SVG Version: 6.00 Build 0)  -->
<!DOCTYPE svg PUBLIC "-//W3C//DTD SVG 1.1//EN" "http://www.w3.org/Graphics/SVG/1.1/DTD/svg11.dtd">
<svg version="1.1" id="Layer_1" xmlns="http://www.w3.org/2000/svg" xmlns:xlink="http://www.w3.org/1999/xlink" x="0px" y="0px"
	 width="494.9px" height="990px" viewBox="1.3 -16.5 494.9 990" enable-background="new 1.3 -16.5 494.9 990" xml:space="preserve">
<g>
	<g>
		<path fill="#BBBCBC" d="M199.3,726c-18.2,0-33-14.8-33-33c0-72.8-59.2-132-132-132c-18.2,0-33-14.8-33-33s14.8-33,33-33
			c109.2,0,198,88.8,198,198C232.3,711.2,217.6,726,199.3,726z"/>
	</g>
	<g>
		<path fill="#BBBCBC" d="M331.3,726c-18.2,0-33-14.8-33-33c0-70.5-27.5-136.8-77.3-186.7C171.1,456.5,104.8,429,34.3,429
			c-18.2,0-33-14.8-33-33s14.8-33,33-33c44.5,0,87.8,8.7,128.5,25.9c39.3,16.6,74.6,40.4,104.9,70.7c30.3,30.3,54.1,65.6,70.7,104.9
			c17.2,40.7,25.9,83.9,25.9,128.5C364.3,711.2,349.6,726,331.3,726z"/>
	</g>
	<g>
		<path fill="#BBBCBC" d="M463.3,726c-18.2,0-33-14.8-33-33c0-53.5-10.5-105.3-31.1-154.1c-19.9-47.2-48.5-89.5-84.9-125.9
			s-78.7-64.9-125.9-84.9C139.7,307.5,87.8,297,34.3,297c-18.2,0-33-14.8-33-33s14.8-33,33-33c62.4,0,122.9,12.2,179.8,36.3
			c55,23.3,104.4,56.6,146.8,99s75.7,91.8,99,146.8c24.1,57,36.3,117.5,36.3,179.8C496.3,711.2,481.6,726,463.3,726z"/>
	</g>
	<g>
		<circle fill="#BBBCBC" cx="50.8" cy="676.5" r="49.5"/>
	</g>
</g>
</svg>
