<?xml version="1.0" encoding="utf-8"?>
<!-- Generator: Adobe Illustrator 17.1.0, SVG Export Plug-In . SVG Version: 6.00 Build 0)  -->
<!DOCTYPE svg PUBLIC "-//W3C//DTD SVG 1.1//EN" "http://www.w3.org/Graphics/SVG/1.1/DTD/svg11.dtd">
<svg version="1.1" id="Layer_1" xmlns="http://www.w3.org/2000/svg" xmlns:xlink="http://www.w3.org/1999/xlink" x="0px" y="0px"
	 width="990px" height="990px" viewBox="0 0 990 990" enable-background="new 0 0 990 990" xml:space="preserve">
<path fill="#BBBCBC" d="M980.3,125.8L864.2,9.7C858,3.5,849.6,0,840.9,0H792h-66H264h-66H33C14.8,0,0,14.8,0,33v924
	c0,18.2,14.8,33,33,33h165h66h462h66h165c18.2,0,33-14.8,33-33V149.1C990,140.4,986.5,132,980.3,125.8z M726,66v198H264V66H726z
	 M264,924V594h462v330H264z M924,924H792V561c0-18.2-14.8-33-33-33H231c-18.2,0-33,14.8-33,33v363H66V66h132v231
	c0,18.2,14.8,33,33,33h528c18.2,0,33-14.8,33-33V66h35.2l96.8,96.8V924z"/>
</svg>
