<?xml version="1.0" encoding="utf-8"?>
<!-- Generator: Adobe Illustrator 17.1.0, SVG Export Plug-In . SVG Version: 6.00 Build 0)  -->
<!DOCTYPE svg PUBLIC "-//W3C//DTD SVG 1.1//EN" "http://www.w3.org/Graphics/SVG/1.1/DTD/svg11.dtd">
<svg version="1.1" id="Layer_1" xmlns="http://www.w3.org/2000/svg" xmlns:xlink="http://www.w3.org/1999/xlink" x="0px" y="0px"
	 width="862.5px" height="990px" viewBox="0 0 862.5 990" enable-background="new 0 0 862.5 990" xml:space="preserve">
<g id="Smuggy_2_">
	<path fill-rule="evenodd" clip-rule="evenodd" fill="#BBBCBC" d="M215,195.8c90.9-1.4,134.4-54.8,128.6-103.3
		c-4.9-40.6-44.2-77.8-119.2-78.4c-61.8-0.5-102.1,45.3-108.2,91C110.2,151,138.7,196.9,215,195.8z"/>
	<path fill-rule="evenodd" clip-rule="evenodd" fill="#BBBCBC" d="M670.1,184.4c87.2-4.9,125.3-48.5,125.9-92.1
		c0.6-49.1-46.5-98.2-124.9-91.8C608.2,5.7,571.4,49,565.9,92.4C559.7,140.6,592.1,188.9,670.1,184.4z"/>
	<path fill-rule="evenodd" clip-rule="evenodd" fill="#BBBCBC" d="M725.7,378.4c-217.6,21.9-228.2,24.1-628.5,33.3
		C-71.6,412.4-35.6,990,324.8,990C668.1,990,1082.2,342.5,725.7,378.4z M333.8,886.8c-314.1,0-271.2-373.5-218.4-375.6
		c365.1-14.7,458.5-29.8,588.7-29.8C836.6,481.4,584.5,886.8,333.8,886.8z"/>
</g>
</svg>
