<?xml version="1.0" encoding="utf-8"?>
<!-- Generator: Adobe Illustrator 17.1.0, SVG Export Plug-In . SVG Version: 6.00 Build 0)  -->
<!DOCTYPE svg PUBLIC "-//W3C//DTD SVG 1.1//EN" "http://www.w3.org/Graphics/SVG/1.1/DTD/svg11.dtd">
<svg version="1.1" id="Layer_1" xmlns="http://www.w3.org/2000/svg" xmlns:xlink="http://www.w3.org/1999/xlink" x="0px" y="0px"
	 width="990px" height="990px" viewBox="0 0 990 990" enable-background="new 0 0 990 990" xml:space="preserve">
<path fill="#BBBCBC" d="M954.5,790.5h-96v-594h96c18.2,0,33-14.8,33-33s-14.8-33-33-33h-96v-95c0-18.2-14.8-33-33-33s-33,14.8-33,33
	v95h-594v-95c0-18.2-14.8-33-33-33s-33,14.8-33,33v95h-97c-18.2,0-33,14.8-33,33s14.8,33,33,33h97v594h-97c-18.2,0-33,14.8-33,33
	s14.8,33,33,33h97v98c0,18.2,14.8,33,33,33s33-14.8,33-33v-98h594v98c0,18.2,14.8,33,33,33s33-14.8,33-33v-98h96
	c18.2,0,33-14.8,33-33S972.7,790.5,954.5,790.5z M198.5,790.5v-594h594v594H198.5z"/>
</svg>
