<?xml version="1.0" encoding="utf-8"?>
<!-- Generator: Adobe Illustrator 17.1.0, SVG Export Plug-In . SVG Version: 6.00 Build 0)  -->
<!DOCTYPE svg PUBLIC "-//W3C//DTD SVG 1.1//EN" "http://www.w3.org/Graphics/SVG/1.1/DTD/svg11.dtd">
<svg version="1.1" id="Layer_1" xmlns="http://www.w3.org/2000/svg" xmlns:xlink="http://www.w3.org/1999/xlink" x="0px" y="0px"
	 width="737.5px" height="990px" viewBox="0 0 737.5 990" enable-background="new 0 0 737.5 990" xml:space="preserve">
<path id="Twitter" fill="#BBBCBC" d="M613.9,742H369.6c-34,0-63-11.7-86.8-35.5C259,682.6,247,653.9,247,619.8V533h348.5
	c31.4,0,58.4-11.3,80.9-33.8c22.5-22.6,33.7-49.6,33.7-81.1c0-31.5-11.3-58.7-33.8-81.2c-22.5-22.5-49.7-33.9-81.2-33.9H247V123.8
	c0-34-11.9-63.1-36-87.3C187,12.2,158.2,0,124.5,0C89.9,0,60.2,12,36.3,35.8C12.2,59.6,0,88.9,0,123.9v496
	c0,102,36.3,189.2,108.5,261.5C180.7,953.9,268,990,369.7,990H614c33.9,0,63-12.2,87.2-36.5c24.2-24.2,36.3-53.3,36.3-87.3
	c0-34-12.1-63.3-36.3-87.6C677,754.4,647.8,742,613.9,742z"/>
</svg>
