<?xml version="1.0" encoding="utf-8"?>
<!-- Generator: Adobe Illustrator 17.0.0, SVG Export Plug-In . SVG Version: 6.00 Build 0)  -->
<!DOCTYPE svg PUBLIC "-//W3C//DTD SVG 1.1//EN" "http://www.w3.org/Graphics/SVG/1.1/DTD/svg11.dtd">
<svg version="1.1" id="Layer_1" xmlns="http://www.w3.org/2000/svg" xmlns:xlink="http://www.w3.org/1999/xlink" x="0px" y="0px"
	 width="1000px" height="1000px" viewBox="0 0 1000 1000" enable-background="new 0 0 1000 1000" xml:space="preserve">
<g id="Layer_1_1_" display="none">
	
		<circle display="inline" fill="#65AB44" stroke="#000000" stroke-width="0.25" stroke-miterlimit="10" cx="500.007" cy="500" r="500"/>
	<g display="inline">
		<g>
			<circle fill="none" stroke="#000000" stroke-width="0.25" stroke-miterlimit="10" cx="500" cy="500" r="250"/>
			<circle fill="none" stroke="#000000" stroke-width="0.25" stroke-miterlimit="10" cx="500" cy="500" r="437.5"/>
			<circle fill="none" stroke="#000000" stroke-width="0.25" stroke-miterlimit="10" cx="500" cy="500" r="375"/>
			<circle fill="none" stroke="#000000" stroke-width="0.25" stroke-miterlimit="10" cx="500" cy="500" r="312.5"/>
			<circle fill="none" stroke="#000000" stroke-width="0.25" stroke-miterlimit="10" cx="500" cy="500" r="187.5"/>
			<circle fill="none" stroke="#000000" stroke-width="0.25" stroke-miterlimit="10" cx="500" cy="500" r="125"/>
		</g>
		<circle fill="none" stroke="#000000" stroke-width="0.25" stroke-miterlimit="10" cx="500" cy="500" r="62.5"/>
	</g>
</g>
<g id="Layer_6" display="none">
	<g transform="matrix(1 0 0 -1 0 2048)" display="inline">
		<path fill="#010101" d="M501.47,1326.944c12.567,0,23.499-4.65,32.799-13.949c9.299-9.299,13.949-20.232,13.949-32.798
			s-4.65-23.374-13.949-32.422c-9.299-9.047-20.232-13.572-32.799-13.572c-13.07,0-24.003,4.525-32.799,13.572
			c-8.796,9.047-13.195,19.855-13.195,32.422s4.398,23.5,13.195,32.798C477.469,1322.295,488.4,1326.944,501.47,1326.944z
			 M501.47,1409.884c-9.047,0-16.714,3.143-22.998,9.426s-9.426,13.949-9.426,22.997c0,15.582,4.021,33.05,12.063,52.404
			c8.042,19.353,16.211,35.689,24.505,49.009c8.294,13.32,20.735,32.045,37.323,56.173c39.208,55.293,60.319,92.992,63.336,113.099
			c1.005,6.032,1.509,13.824,1.509,23.374c0,30.16-10.304,55.67-30.915,76.531c-20.61,20.862-45.742,31.292-75.4,31.292
			c-30.16,0-55.669-10.431-76.531-31.292c-20.862-20.86-31.291-46.37-31.291-76.531c0-9.047-3.142-16.714-9.426-22.997
			c-6.283-6.283-13.949-9.426-22.998-9.426s-16.714,3.142-22.998,9.426c-6.283,6.283-9.426,13.948-9.426,22.997
			c0,47.752,16.839,88.47,50.518,122.148c33.679,33.679,74.394,50.518,122.148,50.518c47.251,0,87.841-16.839,121.77-50.518
			s50.895-74.394,50.895-122.148c0-1.509-1.509-12.818-4.524-33.93c-2.011-13.572-7.163-29.029-15.457-46.37
			s-15.959-31.542-22.998-42.601s-18.348-27.897-33.93-50.518c-14.577-21.112-25.008-36.443-31.291-45.994
			s-13.195-22.117-20.735-37.7c-7.54-15.582-11.31-27.897-11.31-36.946c0-8.546-3.268-16.086-9.802-22.619
			C517.547,1413.155,510.016,1409.884,501.47,1409.884z"/>
	</g>
</g>
<g id="Layer_4">
	<g transform="matrix(1 0 0 -1 0 2048)">
		<path fill="#010101" d="M275.771,1279.052h448.456c-0.417,8.757-1.981,17.93-4.691,27.52s-7.298,20.536-13.76,32.837
			c-6.462,12.301-16.992,22.413-31.585,30.335c-14.594,7.923-32.107,11.884-52.539,11.884c-17.93,0-32.941,2.292-45.033,6.88
			c-12.092,4.587-20.952,11.155-26.582,19.702c-5.63,8.548-9.382,17.201-11.258,25.957c-1.876,8.757-2.814,18.972-2.814,30.648
			c0,24.602,9.799,46.076,29.396,64.423l5.003,2.502c22.1,12.092,40.238,31.377,54.414,57.855
			c14.176,26.478,21.266,54.102,21.266,82.874c0,39.612-14.281,73.701-42.843,102.263s-63.068,42.844-103.515,42.844
			c-40.029,0-74.326-14.281-102.889-42.844c-28.563-28.563-42.843-62.651-42.843-102.263c0-28.772,7.089-56.396,21.266-82.874
			c14.177-26.477,32.316-45.763,54.415-57.855c3.335-1.668,5.421-3.335,6.255-5.003c18.763-16.262,28.146-36.903,28.146-61.921
			c0-11.676-0.938-21.891-2.814-30.648c-1.876-8.757-5.63-17.408-11.258-25.957c-5.629-8.55-14.49-15.115-26.582-19.702
			c-12.092-4.587-27.104-6.88-45.033-6.88c-20.432,0-37.944-3.961-52.539-11.884c-14.595-7.922-25.123-18.034-31.585-30.335
			c-6.462-12.301-11.049-23.247-13.76-32.837C277.754,1296.982,276.188,1287.809,275.771,1279.052z M731.733,1227.765H268.264
			c-12.092,0-22.413,4.483-30.961,13.447c-8.548,8.966-12.822,19.493-12.822,31.585c0,15.845,2.398,32.107,7.192,48.786
			c4.794,16.679,12.614,33.775,23.456,51.287c10.842,17.512,26.895,31.898,48.161,43.156c21.266,11.258,46.284,16.888,75.056,16.888
			c16.262,0,26.061,1.772,29.396,5.316c3.335,3.544,5.003,12.405,5.003,26.582c0,8.757-3.335,16.471-10.007,23.141
			c-29.605,17.095-53.685,42.74-72.241,76.932c-18.555,34.192-27.834,70.053-27.834,107.579c0,53.789,19.285,99.865,57.855,138.227
			c38.57,38.362,84.959,57.543,139.166,57.543s100.699-19.181,139.479-57.543c38.779-38.362,58.168-84.437,58.168-138.227
			c0-37.944-9.278-74.013-27.834-108.205c-18.556-34.192-42.635-59.627-72.241-76.306c-6.671-6.671-10.007-14.385-10.007-23.141
			c0-14.177,1.668-23.037,5.003-26.582s13.135-5.316,29.396-5.316c28.772,0,53.789-5.63,75.056-16.888
			c21.266-11.258,37.319-25.645,48.161-43.156c10.842-17.512,18.66-34.609,23.456-51.287c4.796-16.679,7.192-32.941,7.192-48.786
			c0-12.092-4.274-22.621-12.822-31.585C754.147,1232.248,743.825,1227.765,731.733,1227.765z"/>
	</g>
</g>
<g id="Layer_2" display="none">
	<g transform="matrix(1 0 0 -1 0 2048)" display="inline">
		<path fill="#020202" d="M711.095,1792.538c-7.267,7.266-10.899,15.488-10.899,24.667s3.633,17.401,10.899,24.667
			c6.501,6.501,14.532,9.752,24.093,9.752s17.592-3.251,24.093-9.752c6.501-7.266,9.752-15.488,9.752-24.667
			s-3.251-17.4-9.752-24.667c-6.501-6.501-14.532-9.752-24.093-9.752S717.596,1786.036,711.095,1792.538z M245.872,1841.87
			c6.501,6.501,14.532,9.752,24.093,9.752c9.56,0,17.592-3.251,24.093-9.752c7.267-7.267,10.899-15.489,10.899-24.667
			c0-9.179-3.633-17.401-10.899-24.667c-6.501-6.501-14.532-9.752-24.093-9.752c-9.56,0-17.592,3.251-24.093,9.752
			c-6.501,7.267-9.752,15.488-9.752,24.667C236.12,1826.383,239.37,1834.604,245.872,1841.87z M797.141,1584.88
			c0,9.56,3.251,17.592,9.752,24.093c6.501,6.501,14.532,9.752,24.093,9.752s17.592-3.251,24.093-9.752s9.752-14.532,9.752-24.093
			s-3.251-17.687-9.752-24.379s-14.532-10.039-24.093-10.039c-9.561,0-17.592,3.346-24.093,10.039
			C800.392,1567.193,797.141,1575.319,797.141,1584.88z M139.174,1584.88c0,9.56,3.442,17.592,10.325,24.093
			s15.106,9.752,24.667,9.752c9.561,0,17.592-3.251,24.093-9.752s9.752-14.532,9.752-24.093s-3.251-17.687-9.752-24.379
			c-6.501-6.693-14.532-10.039-24.093-10.039s-17.783,3.346-24.667,10.039C142.615,1567.193,139.174,1575.319,139.174,1584.88z
			 M501.716,1947.994c9.944,0,18.356-3.346,25.241-10.039c6.884-6.693,10.325-14.819,10.325-24.379
			c0-9.561-3.442-17.592-10.325-24.093s-15.298-9.752-25.241-9.752c-9.56,0-17.592,3.251-24.093,9.752
			c-6.501,6.501-9.752,14.532-9.752,24.093s3.251,17.687,9.752,24.379C484.124,1944.647,492.154,1947.994,501.716,1947.994z
			 M577.436,1690.429c-36.713-24.475-67.882-47.421-93.504-68.837s-41.876-36.522-48.76-45.318l-10.899-13.768
			c-1.148-1.913-4.207-7.84-9.178-17.783c-9.56-23.711-9.369-47.421,0.574-71.132c9.944-23.71,26.578-40.346,49.906-49.906
			c24.093-9.944,48.09-10.039,71.991-0.286c23.901,9.752,40.633,26.675,50.194,50.767c3.059,7.266,4.972,13.194,5.736,17.783
			c0.765,3.824,1.625,9.944,2.582,18.356c0.956,8.414,0.192,29.638-2.294,63.674C591.299,1608.016,585.85,1646.833,577.436,1690.429
			z"/>
	</g>
</g>
<g id="Layer_3" display="none">
	<g transform="matrix(1 0 0 -1 0 2048)" display="inline">
		<path fill="#010101" d="M753.33,1908.287c7.151,0,12.935-2.419,17.352-7.256s6.625-11.042,6.625-18.614v-517.401
			c0-7.151-2.208-12.935-6.625-17.352s-10.201-6.625-17.352-6.625H613.253v-84.551c0-7.151-2.524-13.145-7.571-17.983
			s-11.147-7.256-18.298-7.256H246.656c-7.151,0-13.251,2.419-18.298,7.256c-5.048,4.837-7.571,10.832-7.571,17.983v517.401
			c0,7.151,2.524,13.251,7.571,18.298s11.147,7.571,18.298,7.571h139.445v82.658c0,7.151,2.524,13.251,7.571,18.298
			c5.047,5.047,11.147,7.571,18.298,7.571h341.36V1908.287z M561.513,1282.359v465.661H272.526v-465.661H561.513z M727.459,1390.886
			v466.922H437.842v-58.05h149.542c7.151,0,13.251-2.524,18.298-7.571s7.571-11.147,7.571-18.298v-383.003H727.459z"/>
	</g>
</g>
<g id="Layer_5" display="none">
	<g transform="matrix(1 0 0 -1 0 2048)" display="inline">
		<path fill="#010101" d="M765.168,1291.311H399.317c-7.376,0-14.014,2.95-19.916,8.851c-5.902,5.901-8.851,13.031-8.851,21.39
			s2.95,15.49,8.851,21.39c5.9,5.9,12.54,8.851,19.916,8.851H765.17c8.36,0,15.49-2.95,21.39-8.851s8.851-13.031,8.851-21.39
			s-2.95-15.49-8.851-21.39C780.659,1294.261,773.527,1291.311,765.168,1291.311z M251.795,1366.547
			c12.786,0,23.481-4.426,32.085-13.277c8.604-8.85,12.908-19.423,12.908-31.717c0-12.293-4.302-22.989-12.908-32.085
			c-8.606-9.097-19.301-13.645-32.085-13.645c-12.293,0-22.742,4.548-31.348,13.645c-8.606,9.097-12.908,19.792-12.908,32.085
			s4.302,22.866,12.908,31.717C229.052,1362.121,239.501,1366.547,251.795,1366.547z M765.168,1517.755H399.317
			c-7.376,0-14.014,2.95-19.916,8.851s-8.851,13.031-8.851,21.39c0,8.36,2.95,15.49,8.851,21.39c5.9,5.901,12.54,8.851,19.916,8.851
			H765.17c8.36,0,15.49-2.95,21.39-8.851c5.9-5.9,8.851-13.031,8.851-21.39c0-8.36-2.95-15.49-8.851-21.39
			C780.659,1520.705,773.527,1517.755,765.168,1517.755z M251.795,1592.991c12.786,0,23.481-4.426,32.085-13.277
			c8.604-8.85,12.908-19.423,12.908-31.717c0-12.293-4.302-22.866-12.908-31.717c-8.606-8.851-19.301-13.277-32.085-13.277
			c-12.293,0-22.742,4.426-31.348,13.277c-8.606,8.851-12.908,19.424-12.908,31.717c0,12.293,4.302,22.866,12.908,31.717
			C229.052,1588.565,239.501,1592.991,251.795,1592.991z M765.168,1744.2H399.317c-7.376,0-14.014,2.95-19.916,8.851
			c-5.902,5.9-8.851,13.031-8.851,21.39c0,8.36,2.95,15.49,8.851,21.39c5.9,5.9,12.54,8.851,19.916,8.851H765.17
			c8.36,0,15.49-2.95,21.39-8.851s8.851-13.031,8.851-21.39c0-8.36-2.95-15.49-8.851-21.39
			C780.659,1747.151,773.527,1744.2,765.168,1744.2z M251.795,1820.173c12.786,0,23.481-4.548,32.085-13.645
			s12.908-19.792,12.908-32.085s-4.302-22.866-12.908-31.717c-8.606-8.851-19.301-13.277-32.085-13.277
			c-12.293,0-22.742,4.426-31.348,13.277c-8.606,8.851-12.908,19.424-12.908,31.717c0,12.293,4.302,22.989,12.908,32.085
			C229.052,1815.625,239.501,1820.173,251.795,1820.173z"/>
	</g>
</g>
<path fill="#010101" d="M401.384,401.634"/>
</svg>
