<?xml version="1.0" encoding="utf-8"?>
<!-- Generator: Adobe Illustrator 17.1.0, SVG Export Plug-In . SVG Version: 6.00 Build 0)  -->
<!DOCTYPE svg PUBLIC "-//W3C//DTD SVG 1.1//EN" "http://www.w3.org/Graphics/SVG/1.1/DTD/svg11.dtd">
<svg version="1.1" id="Layer_1" xmlns="http://www.w3.org/2000/svg" xmlns:xlink="http://www.w3.org/1999/xlink" x="0px" y="0px"
	 width="990px" height="990px" viewBox="0 0 990 990" enable-background="new 0 0 990 990" xml:space="preserve">
<g>
	<g>
		<path fill="#BBBCBC" d="M496,396H232c-18.2,0-33-14.8-33-33s14.8-33,33-33h264c18.2,0,33,14.8,33,33S514.2,396,496,396z"/>
	</g>
	<path fill="#BBBCBC" d="M978.8,933.7L641.1,595.9c23.5-27.8,42.5-58.8,56.7-92.4c18.9-44.7,28.5-92.2,28.5-141.1
		s-9.6-96.4-28.5-141.1c-18.3-43.2-44.4-81.9-77.7-115.2c-33.3-33.3-72-59.4-115.2-77.7C460.3,9.6,412.8,0,363.9,0
		s-96.4,9.6-141.1,28.5c-43.2,18.3-81.9,44.4-115.2,77.7c-33.3,33.3-59.4,72-77.7,115.2C11.1,266.1,1.5,313.5,1.5,362.4
		s9.6,96.4,28.5,141.1c18.3,43.2,44.4,81.9,77.7,115.2c33.3,33.3,72,59.4,115.2,77.7c44.7,18.9,92.2,28.5,141.1,28.5
		s96.4-9.6,141.1-28.5c32.4-13.7,62.2-31.8,89.2-54l338,338c6.4,6.4,14.9,9.7,23.3,9.7c8.4,0,16.9-3.2,23.3-9.7
		C991.7,967.4,991.7,946.6,978.8,933.7z M363.9,658.9c-79.2,0-153.6-30.8-209.6-86.8c-56-56-86.8-130.4-86.8-209.6
		c0-79.2,30.8-153.6,86.8-209.6c56-56,130.4-86.8,209.6-86.8s153.6,30.8,209.6,86.8c56,56,86.8,130.4,86.8,209.6
		c0,79.2-30.8,153.6-86.8,209.6C517.5,628,443.1,658.9,363.9,658.9z"/>
</g>
</svg>
