<svg xmlns="http://www.w3.org/2000/svg" width="28" height="18" viewBox="0 0 28 18"><path fill="#F18124" d="M28 .7v16.5c0 .4-.3.7-.8.7h-26.4c-.5.1-.8-.2-.8-.6v-16.6c0-.4.3-.7.8-.7h26.5c.4 0 .7.3.7.7z"/><path d="M8.5 6.9c-.3.2-.5.3-.6.5-.2.1-.3.3-.5.5h-1.5c-.1 0-.3 0-.4.1-.1 0-.1.1-.1.2l.1.2s.1 0 .2.1c.2 0 .3 0 .5.1.4.2.5.5.5.9-.1.7-.5 1.2-1.2 1.4-.2.1-.5.2-.7.2h-3.1l.4-1h2.9c.1 0 .1 0 .2-.1.2-.1.1-.3 0-.4-.3-.2-.4-.2-.6-.2-.1 0-.3-.1-.4-.2-.3-.2-.4-.5-.3-.8.1-.3.2-.6.4-.9.2-.3.5-.5.9-.5h3c.1-.1.1-.1.3-.1zm12.3 2.4c.3.6.4 1.1.6 1.7-.2.1-.9.1-1.4 0-.1-.4-.2-.9-.4-1.4l-.6 1.4h-1.4c.5-1.4 1.1-2.8 1.6-4.1h1.5c.2 0 .5 0 .7.1.5.1.7.5.6 1-.1.5-.5.9-1 1.2.1 0 0 .1-.2.1zm-1-.5h.2c.4 0 .7-.2.8-.6.1-.2 0-.3-.3-.4h-.4c0 .3-.2.6-.3 1zm-11.5 2.4c-.2 0-.3 0-.5-.1-.7-.2-.9-.6-.9-1.2.1-.9.5-1.6 1.1-2.3.5-.5 1.1-.8 1.9-.8.2 0 .3 0 .5.1.5.1.8.5.8 1 0 .3 0 .5-.1.8-.2.7-.5 1.3-1 1.8-.6.4-1.1.7-1.8.7zm1.5-3c0-.3-.2-.4-.5-.3-.1 0-.2 0-.2.1-.1 0-.2.1-.2.2-.4.4-.5.9-.7 1.3v.3c0 .2.1.3.3.3.2 0 .4-.1.6-.2.1-.1.1-.2.2-.2l.4-1.1c.1-.1.1-.3.1-.4zm5.7 3c-.2 0-.4 0-.6-.1-.5-.1-.8-.5-.8-1 0-.9.4-1.7 1-2.4.3-.4.8-.6 1.3-.8.4-.1.7-.1 1.1 0 .5.1.8.5.8 1s-.2 1-.4 1.5c-.2.4-.4.8-.7 1.1-.4.4-1 .7-1.7.7zm.3-1c.2 0 .4-.1.5-.2.1-.1.2-.2.2-.3.2-.4.4-.9.5-1.4.1-.4-.2-.5-.5-.4-.2.1-.4.2-.5.4-.3.5-.5 1-.6 1.6 0 .2.2.3.4.3zm-2.2-.7h-1.2l-.6 1.6h-1.3l.3-.7c.2-.8.5-1.6.8-2.4.1-.3.3-.6.7-.8.3-.2.5-.2.8-.2h2.6c-.4.3-.8.6-1.1 1h-1.3c-.1 0-.3.1-.3.2-.1.1-.1.3-.2.5h1.2c-.2.2-.3.5-.4.8zm9.6-1.6h-.8c0-.4-.1-.7-.4-1 .2-.1 4.1-.1 4.3 0-.1.3-.2.6-.4.9h-1.5l-1.2 3.2h-1.2c.4-1 .8-2 1.2-3.1z" fill="#fff"/></svg>