<svg xmlns="http://www.w3.org/2000/svg" width="28" height="18" viewBox="0 0 28 18"><path fill="#E4F2F7" d="M28 .7v16.5c0 .4-.3.7-.8.7h-26.4c-.5.1-.8-.2-.8-.6v-16.6c0-.4.3-.7.8-.7h26.5c.4 0 .7.3.7.7z"/><path fill="#009CDE" d="M20.7 7.4h-1.4c-.1 0-.2.1-.2.2l-.6 3.4c0 .1 0 .1.1.1h.7c.1 0 .1 0 .1-.1l.2-1c0-.1.1-.2.2-.2h.4c.9 0 1.4-.4 1.5-1.2.1-.4 0-.6-.2-.8 0-.3-.4-.4-.8-.4zm.1 1.2c-.1.5-.4.5-.8.5h-.2l.2-.9c0-.1.1-.1.1-.1h.1c.2 0 .5 0 .6.1 0 .1.1.3 0 .4z"/><path fill="#003087" d="M11 7.4h-1.4c-.1 0-.2.1-.2.2l-.6 3.4h.8c.1 0 .2-.1.2-.2l.2-.8c0-.1.1-.2.2-.2h.4c.9 0 1.4-.4 1.5-1.2.1-.4 0-.6-.2-.8-.1-.3-.5-.4-.9-.4zm.1 1.2c-.1.5-.4.5-.8.5h-.2l.1-.9c0-.1.1-.1.1-.1h.1c.2 0 .5 0 .6.1.1.1.2.3.1.4zm3.9 0h-.7c-.1 0-.1 0-.1.1v.2-.1c-.1-.2-.5-.3-.8-.3-.7 0-1.3.5-1.5 1.3-.1.4 0 .7.2 1 .2.2.5.3.8.3.6 0 .9-.4.9-.4v.2c0 .1 0 .1.1.1h.6c.1 0 .2-.1.2-.2l.4-2.2h-.1zm-.9 1.2c-.1.4-.4.6-.7.6-.2 0-.3-.1-.4-.2-.1-.1-.1-.3-.1-.4.1-.4.4-.6.7-.6.2 0 .3.1.4.2.1.1.2.3.1.4z"/><path fill="#009CDE" d="M24.8 8.6h-.7c-.1 0-.1 0-.1.1v.2-.1c-.1-.2-.5-.3-.8-.3-.7 0-1.3.5-1.5 1.3-.1.4 0 .7.2 1 .2.2.5.3.8.3.6 0 .9-.4.9-.4v.2c0 .1 0 .1.1.1h.6c.1 0 .2-.1.2-.2l.4-2.2c0 .1-.1 0-.1 0zm-1 1.2c-.1.4-.4.6-.7.6-.2 0-.3-.1-.4-.2-.1-.1-.1-.3-.1-.4.1-.4.4-.6.7-.6.2 0 .3.1.4.2.1.1.2.3.1.4z"/><path fill="#003087" d="M18.5 8.6h-.7c-.1 0-.1 0-.2.1l-.8 1.3-.4-1.2c0-.1-.1-.1-.2-.1h-.6c-.1 0-.1.1-.1.1l.7 2-.7.9c-.1.1 0 .2.1.2h.7c.1 0 .1 0 .2-.1l2.2-3c0-.1-.1-.2-.2-.2z"/><path fill="#009CDE" d="M25.5 7.5l-.5 3.4c0 .1 0 .1.1.1h.6c.1 0 .2-.1.2-.2l.6-3.4c0-.1 0-.1-.1-.1h-.6c-.2.1-.3.1-.3.2z"/><path fill="#003087" d="M4.2 11.7l.2-1.1v-.1c0-.1 0-.1.1-.1 0 0 .1-.1.2-.1h.1c.2 0 .5 0 .7-.1.2 0 .3-.1.5-.2l.4-.4c.1-.2.2-.4.3-.7 0-.2.1-.4 0-.6 0-.2-.1-.3-.2-.5-.1-.1-.2-.2-.3-.2v-.6c0-.2-.1-.3-.2-.5-.3-.2-.8-.4-1.5-.4h-1.8c-.1 0-.1 0-.2.1 0 0-.1.1-.1.2l-.8 4.8v.1l.1.1h1.2l-.1.5v.1h1.1c.1 0 .1 0 .1-.1.2-.1.2-.1.2-.2zm-.7-4.1l.1-.2h2.4l.2.1c.1-.5 0-.8-.3-1-.2-.3-.7-.4-1.4-.4h-1.8c-.1 0-.2.1-.3.2l-.8 4.8c0 .1.1.2.2.2h1.2l.3-1.8.2-1.9z"/><path fill="#009CDE" d="M6.2 7.6v.1c-.3 1.2-1.1 1.6-2.2 1.6h-.5c-.1 0-.2.1-.3.2l-.3 1.7-.1.5c0 .1.1.2.1.2h1c.1 0 .2-.1.2-.2l.2-1.1v-.1c0-.1.1-.2.2-.2h.1c.9 0 1.7-.4 1.9-1.4.1-.4 0-.8-.2-1.1.1-.1 0-.2-.1-.2z"/><path fill="#012169" d="M6 7.5h-2.3c-.1 0-.1.1-.1.2l-.4 1.8v.1c0-.1.1-.2.3-.2h.5c1.1 0 1.9-.4 2.2-1.6v-.1c0-.2-.1-.2-.2-.2z"/></svg>