<svg xmlns="http://www.w3.org/2000/svg" width="28" height="18" viewBox="0 0 28 18"><path fill="#CA156F" d="M27.1 0h-26.4c-.5 0-.7.2-.7.6v16.5c0 .5.2.9.7.9h26.5c.4 0 .9-.4.9-.8v-16.6c-.1-.4-.5-.6-1-.6z"/><path fill="#fff" d="M14 8h1.3v-.6h-1.3v-.4h1.4v-.6h-2.1v2.8h2.2v-.5h-1.5zm2.7-1.6l-1.1 2.8h.7l.2-.6h1l.2.6h.7l-1.1-2.8h-.6zm.1 1.6l.3-.7.2.7h-.5zm-.8-5.6h-9.9v13.3h9.9c1.6 0 3-.6 4.1-1.7 1.1-1.1 1.7-2.6 1.7-4.2v-1.6c0-1.6-.6-3-1.7-4.1-1-1.1-2.5-1.7-4.1-1.7zm-4.8 4.6h.4c.2 0 .4.1.5.2.1.1.1.3.1.6 0 .2 0 .3-.1.5s-.3.4-.5.4h-.4v-1.7zm-1.4 7.7h-2.7v-4.7h2.8v4.7zm-1.3-5.4c-.9 0-1.6-.7-1.6-1.6s.7-1.6 1.6-1.6c.9 0 1.6.7 1.6 1.6s-.7 1.6-1.6 1.6zm10.2-2.9v2.8h2c-.1 3-2.6 5.5-5.7 5.5h-3.9v-5.5h.5c.4 0 .7-.2.9-.5.1-.3.2-.6.2-.9 0-.1 0-.3-.1-.5 0-.2-.1-.3-.2-.5s-.3-.3-.5-.4l-.4-.1h-.5v-3h4c3 0 5.5 2.3 5.7 5.3h-1.3v-2.2h-.7z"/><path d="M7.1 10h2.8v4.6h-2.8z"/><circle cx="8.5" cy="7.7" r="1.6"/><path fill="#CD0067" d="M20.7 8.6c-.2-3-2.7-5.3-5.7-5.3h-3.9v3.1h.5c.2 0 .3 0 .4.1.2.1.4.2.5.4.1.1.2.3.2.5l.1.5c0 .4-.1.7-.2.9-.2.3-.5.5-.9.5h-.5v5.5h3.8c3.1 0 5.6-2.4 5.7-5.5h-2v-2.9h.7v2.2h1.3zm-5.2.6h-2.2v-2.8h2.1v.6h-1.4v.4h1.3v.6h-1.3v.6h1.5v.6zm2.3 0l-.2-.6h-1l-.2.6h-.7l1.1-2.8h.7l1.1 2.8h-.8zm-1-1.2h.5l-.2-.7zm-4.7.3c.1-.1.1-.3.1-.5s0-.4-.1-.6c-.1-.1-.3-.2-.5-.2h-.4v1.6h.4c.2 0 .4-.1.5-.3z"/><path d="M16 1.4h-10.8v15.2h10.8c3.8 0 6.8-3.1 6.8-6.9v-1.5c0-3.8-3-6.8-6.8-6.8zm5.9 8.3c0 1.6-.6 3-1.7 4.2-1.1 1.1-2.6 1.7-4.1 1.7h-10v-13.2h9.9c1.6 0 3 .6 4.1 1.7 1.1 1.1 1.7 2.6 1.7 4.1v1.5z"/></svg>