<svg xmlns="http://www.w3.org/2000/svg" width="28" height="18" viewBox="0 0 28 18"><path fill="#003473" d="M28 .7v16.5c0 .4-.3.7-.8.7h-26.4c-.5.1-.8-.2-.8-.6v-16.6c0-.4.3-.7.8-.7h26.5c.4 0 .7.3.7.7z"/><g fill-rule="evenodd" clip-rule="evenodd"><path fill="#FCB131" d="M14 14.7c1.4 1.2 3.3 2 5.3 2 4.4 0 7.9-3.4 7.9-7.6 0-4.2-3.5-7.6-7.9-7.6-2 0-3.9.7-5.3 2-1.6 1.4-2.6 3.4-2.6 5.7 0 2 1 4.1 2.6 5.5z"/><path fill="#ED1C2E" d="M16.5 8.2l-.1-.8h-4.8l.2-.8h4.4c-.1-.3-.2-.6-.3-.8h-3.7c.1-.3.3-.5.5-.8h2.8c-.2-.3-.4-.6-.6-.8h-1.6c.2-.3.5-.6.8-.8-1.4-1.2-3.3-2-5.3-2-4.4 0-8 3.4-8 7.6 0 4.2 3.5 7.6 7.9 7.6 2 0 3.9-.7 5.3-2 .3-.3.6-.5.8-.8h-1.6l-.6-.8h2.8l.5-.8h-3.7l-.3-.8h4.4c.1-.3.2-.5.2-.8.1-.3.1-.5.1-.8v-.8c0-.3 0-.5-.1-.8z"/><path fill="#fff" d="M19.2 7.2l-.1.8c-.3-.1-.5-.2-.8-.2-.6 0-1.1.6-1.1 1.5 0 .6.3.9.8.9.2 0 .4-.1.7-.2l-.1 1c-.3.1-.5.1-.8.1-.9 0-1.5-.6-1.5-1.7 0-1.4.8-2.4 2-2.4h.4l.3.2h.2zm-2.7.6c-.4 0-.5.1-.8.5l.1-.5h-.8l-.5 3.2h.9c.3-1.9.4-2.3.8-2.3h.1c0-.3.1-.6.2-.9zm-5 3.2c-.2.1-.4.1-.6.1-.4 0-.7-.2-.7-.7v-.3l.1-.3v-.2l.4-2.2h.9l-.1.5h.4l-.1.8h-.4l-.2 1.3v.1c0 .2.1.2.3.2h.2l-.2.7zm-3.2-2.2c0 .4.2.7.7.9.3.2.4.2.4.3 0 .2-.2.3-.5.3s-.5 0-.8-.1l-.2.8h.9c.9 0 1.3-.3 1.3-1.1 0-.4-.2-.7-.6-.9-.3 0-.4-.1-.4-.2 0-.2.1-.3.4-.3h.6l.1-.7-.8-.1c-.8.1-1.2.6-1.1 1.1zm17.4 2.2h-.8v-.3c-.2.2-.5.4-.8.4-.6 0-1-.5-1-1.3 0-1 .6-1.9 1.4-1.9.3 0 .6.1.8.4l.2-1.1h.8l-.6 3.8zm-1.2-.7c.4 0 .7-.4.7-1.1 0-.4-.2-.6-.5-.6-.4 0-.7.4-.7 1 0 .5.2.7.5.7zm-10.3.6c-.3.1-.6.1-.9.1-1 0-1.5-.5-1.5-1.4 0-1.1.6-1.9 1.5-1.9.7 0 1.2.4 1.2 1.1 0 .2 0 .5-.1.8h-1.7v.1c0 .4.3.6.8.6.3 0 .6-.1.9-.2l-.2.8zm-.5-1.8v-.2c0-.3-.1-.4-.4-.4-.3 0-.5.2-.5.6h.9zm-8.7 1.9h-.9l.5-3-1.1 3h-.5l-.1-3-.5 3h-.8l.6-3.9h1.3v2.4l.8-2.4h1.4l-.7 3.9zm2.1-1.4h-.2c-.5 0-.7.2-.7.5 0 .2.1.3.3.3.3 0 .6-.3.6-.8zm.6 1.4h-.7v-.3c-.2.3-.5.4-.9.4-.5 0-.8-.4-.8-.9.1-.8.6-1.2 1.6-1.2h.3v-.2c0-.2-.1-.3-.5-.3-.2 0-.5 0-.7.1h-.2l.1-.7c.4-.1.7-.2 1-.2.7 0 1.1.3 1.1.9.1.3 0 .4 0 .7l-.2 1.1v.4l-.1.2zm12.9-1.4h-.2c-.5 0-.7.2-.7.5 0 .2.1.3.3.3.3 0 .6-.3.6-.8zm.6 1.4h-.7v-.3c-.2.3-.5.4-.9.4-.5 0-.8-.4-.8-.9 0-.8.6-1.2 1.5-1.2h.3v-.2c0-.2-.1-.3-.5-.3-.2 0-.5 0-.7.1h-.2l.1-.7c.4-.1.7-.2 1-.2.7 0 1.1.3 1.1.9 0 .2 0 .3-.1.6l-.2 1.1v.4l.1.3zm2.3-3.2c-.4 0-.5.1-.8.5l.1-.5h-.8l-.5 3.2h.9c.3-1.9.4-2.3.8-2.3h.1c0-.3.1-.6.2-.9z"/></g></svg>