<svg xmlns="http://www.w3.org/2000/svg" width="28" height="18" viewBox="0 0 28 18"><path fill="#233F80" d="M27.2 0h-26.4c-.5 0-.8.3-.8.7v16.5c0 .5.3.8.8.8h26.5c.4 0 .8-.3.8-.7v-16.6c-.1-.4-.4-.7-.9-.7zm-12.7 2.1v14.7h-12.4c-.6 0-1.1-.5-1.1-1v-13.7c0-.6.5-1 1.1-1h12.4v1zm4.2 7.6c-.2.4-.5.6-.9.7h-.3c-.3 0-.5-.1-.7-.2-.1-.1-.2-.2-.3-.2v1.5h-1v-4h1v.5l.1-.1.3-.3c.1 0 .1 0 .2-.1l.3-.1h.5c.3.1.5.2.7.4l.3.6.1.3c0 .2 0 .5-.1.7-.2.2-.2.3-.2.3zm3.6.7h-.9v-.4c0 .1-.1.1-.1.1l-.3.3c-.1.1-.3.1-.4.1-.2 0-.5 0-.7-.1-.3-.1-.5-.4-.6-.7v-.3c0-.1 0-.2.1-.2.1-.2.3-.4.5-.5.2-.1.4-.1.7-.1h.7v-.1c0-.1 0-.2-.1-.3-.1-.1-.2-.1-.4-.1h-.3c-.3 0-.5.1-.8.2v-.7h.2c.2-.1.4-.1.6-.1h.6c.1 0 .2 0 .3.1l.3.1c.2.1.3.2.4.3l.2.4v2zm3.6-2.5l-1.1 2.7c-.1.2-.2.4-.4.6-.1.2-.3.3-.5.3l-.2.1h-.9v-.7h.6c.1 0 .2-.1.2-.1.1-.1.1-.1.1-.2v-.1c-.2-.4-.4-.9-.5-1.3-.2-.5-.4-1-.6-1.4v-.1h1.1l.3.9.2.5.2.5c.2-.6.4-1.2.6-1.9h1.1c-.1-.1-.2 0-.2.2zm-10.4.9v.7-.7zm.9-.8v-.5.5zm1.3 2.4c.4-.1.7-.3.9-.7 0-.1.1-.2.1-.2 0 .1 0 .2-.1.2-.1.4-.4.6-.9.7zm-1.2-.4c.1.1.2.2.3.2.2.2.5.2.7.2-.3 0-.5-.1-.7-.2-.1 0-.2-.1-.3-.2zm.5-2.5c-.1 0-.1 0-.2.1l-.3.3.3-.3.2-.1zm1.5.4l.3.6c-.1-.3-.1-.5-.3-.6-.2-.2-.4-.4-.7-.4h-.5.5c.3 0 .5.1.7.4zm-2 3.6h-.7.7zm-1-2.7v-.9.9zm0-1.3v.4-.4zm7.1 0zm3.1 0h.3-.3zm-.9 3.1l1.1-2.7c0-.2.1-.3.1-.4l-.2.4-1 2.7zm-2 .9v-.6.6l.5.1c-.1 0-.3 0-.5-.1zm1.1 0c.2-.1.4-.2.5-.3.2-.2.3-.4.4-.6-.1.2-.2.4-.4.6-.1.2-.3.3-.5.3zm-.7-.7zm1.2-1.5l-.2-.5c.1.2.1.4.2.5zm-3.1-.8zm-1.5-.9h-.1v.4-.4h.1zm-.1.7c.3-.1.6-.2.8-.2-.3 0-.5 0-.8.2zm1.4-.9h-.6.6zm1 .5c-.1-.1-.2-.2-.4-.3-.1-.1-.2-.1-.3-.1l.3.1c.2.1.3.2.4.3zm-1.6 2.5c.2 0 .3 0 .4-.1-.1.1-.2.1-.4.1zm1.8-1.4v-.6.6zm-.1 1.4h-.3.3zm-2.3-1.7c.2-.1.4-.1.7-.1-.3-.1-.5 0-.7.1-.2.1-.4.2-.5.5.1-.3.2-.4.5-.5zm-.5.4l-.1.2v.3-.3s0-.1.1-.2z"/><path fill="#fff" d="M1.7 4.2c.1-.1.3-.2.5-.2-.2 0-.4.1-.5.2zm.6 9.7c-.2 0-.4 0-.5-.1.1.1.3.1.5.1zm0-9.9zm4 0h8.2v9.9h-6.7 6.7v-9.9h-8.2zm-5.3 1.2c0-.5.2-.9.7-1.1-.5.3-.7.7-.7 1.1v7.7-7.7zm5.8 1.1h-.3v.7-.7h.3zm-4.5 7.6h5.4-5.4zm-1.3-.9c.1.3.2.5.4.7-.2-.2-.3-.4-.4-.7zm1.3-9h4-4zm11.1-2.9h-11.3c-.6 0-1.1.5-1.1 1v13.7c0 .6.5 1 1.1 1h12.4v-15.7h-1.1zm.4 8.4c-.2.4-.4.6-.8.8-.3.1-.5.1-.8.1-.3 0-.6 0-.9-.2-.5-.2-.8-.6-.9-1.1 0-.2 0-.5.1-.7.2-.4.5-.7.9-.9.3-.1.6-.2 1-.1l.6.1c.6.2.9.7.9 1.3 0 .3 0 .5-.1.7zm-4.6-1.6c.1-.1.1-.2.2-.2.2-.2.5-.3.8-.3h.3v.8h-.5c-.2 0-.3.2-.4.3-.3.3-.4.4-.4.6v1.2h-1v-2.8h.9c.1.2.1.3.1.4zm-6.5.2c.2-.4.5-.6.9-.6h.5c.3.1.5.2.7.5 0 0 0 .1.1.1v-.6h.9v2.6c0 .2 0 .3-.1.5-.1.5-.4.8-.9.9-.3.1-.7.1-1 .1l-.9-.1h-.1c0-.3 0-.5.1-.8.1 0 .2.1.4.1.3.1.6.1 1 .1.4-.1.6-.3.6-.7v-.3s0 .1-.1.1c-.2.2-.5.4-.8.4h-.5c-.4-.2-.7-.4-.9-.8-.1-.3-.1-.6-.1-.9 0-.2.1-.4.2-.6zm4.8 2.2h-1v-2.9h1v2.9zm-1-3.3v-.7h1v.7h-1zm10 4.5v-1.5 1.5zm-1-.2v.2h.3-.3v-.2zm1-3.4s0 .1-.1.1l.1-.1zm.5-.4l.3-.1-.3.1zm.7 2.9h-.3.3zm1.1-1.9l.1.3c0 .2 0 .5-.1.7.1-.2.1-.5.1-.7-.1-.1-.1-.2-.1-.3zm0 0c-.1-.2-.1-.4-.3-.6-.2-.2-.4-.4-.7-.4h-.5l-.3.1c-.1 0-.1 0-.2.1l-.3.3s0 .1-.1.1v-.5h-1v4h1v-1.5c.1.1.2.2.3.2.2.2.5.2.7.2h.3c.4-.1.7-.3.9-.7 0-.1.1-.2.1-.2.1-.2.1-.5.1-.7v-.4zm-1.1.7c-.1.2-.2.4-.5.4s-.5-.1-.6-.3c-.2-.3-.2-.7 0-1 .2-.3.7-.3.9 0 .1.1.1.3.1.5.2.2.2.3.1.4zm5.5 1.6h-.3.3zm.6-.5v.1c0 .1-.1.2-.1.2.1-.1.1-.1.1-.2v-.1zm-1.2-2.7c.2.5.4 1 .6 1.4.2.4.4.9.5 1.3-.2-.4-.4-.9-.5-1.3l-.6-1.4zm2.4-.1c-.2.6-.4 1.2-.6 1.9.2-.7.4-1.3.6-1.9zm-1.7 4.1h.4c.1 0 .1 0 .2-.1l-.2.1h-.4zm.9-2.7l-.2-.5-.3-.9.3.9c.1.1.1.3.2.5zm-.6 1.8c-.1.1-.1.1-.2.1h-.2.2c.1 0 .2-.1.2-.1zm2.1-3.2h-.7c-.2.6-.4 1.2-.6 1.9l-.2-.5-.2-.5-.3-.9h-1.1v.1c.2.5.4 1 .6 1.4.2.4.4.9.5 1.3v.1c0 .1-.1.2-.1.2-.1.1-.1.1-.2.1h-.6v.1c0 .2-.1.5 0 .6h.9c.1 0 .1 0 .2-.1.2-.1.4-.2.5-.3.2-.2.3-.4.4-.6l1.1-2.7s.1-.1.1-.2h-.3zm-3.4 2.2v-.7 1.4h-.1.1v-.7zm-1-1.1h-.7.5c.1-.1.1-.1.2 0zm.6 1.8h-.4.4zm-.5-.3v-.2.4h.1-.1v-.2zm-2.1-.4c0 .3.2.5.6.7-.4-.2-.6-.4-.6-.7zm1.2-1.6h.3-.3zm.6-.7c.1 0 .2 0 .3.1-.1-.1-.2-.1-.3-.1zm.2 1.1c0-.1 0-.2-.1-.3l.1.3zm-1.6-.5v.3-.3zm.8 2.4c-.2 0-.5 0-.7-.1.3.1.5.1.7.1zm0-3l-.6.1h-.1.1l.6-.1zm1.8 2.9v-1.9c0-.2-.1-.3-.2-.4-.1-.1-.2-.2-.4-.3-.1-.1-.2-.1-.3-.1-.1 0-.2 0-.3-.1h-.6l-.6.1h-.2v.7c.3-.1.6-.2.8-.2h.3c.1 0 .2 0 .4.1.1.1.1.2.1.3v.1h-.7l-.7.1c-.2.1-.4.2-.5.5l-.1.2v.3c0 .3.2.5.6.7.2.1.4.1.7.1.2 0 .3 0 .4-.1l.3-.3.1-.1v.4h.8l.1-.1zm-1.5-.6h-.4c-.1 0-.2-.1-.2-.2s0-.2.1-.3l.2-.1h.6c.2.3 0 .6-.3.6z"/><path fill="#E82626" d="M7.5 6.3h-1v.7h1v-.7z"/><path fill="#233F80" d="M16.7 8.4c-.2.2-.2.7 0 1 .1.2.3.3.6.3.2 0 .4-.2.5-.4l.1-.3c0-.2 0-.4-.1-.5-.4-.4-.9-.4-1.1-.1zm3.9.7c-.1 0-.2 0-.2.1-.1.1-.2.2-.1.3 0 .1.1.2.2.2h.4c.3-.1.5-.4.5-.6h-.8z"/><path fill="#fff" d="M4.2 8.2c-.2 0-.4.1-.5.3-.2.2-.2.5-.1.8.1.1.2.2.4.3.2.1.5 0 .7-.2.2-.2.2-.5.1-.8-.2-.3-.4-.4-.6-.4z"/><path fill="#E82626" d="M4.9 7.5v.6l-.1-.1c-.2-.3-.4-.5-.7-.6h-.5c-.4.1-.7.3-.9.7-.1.2-.2.4-.2.6 0 .3 0 .6.1.9.2.4.4.6.8.7h.5c.3 0 .6-.1.8-.4 0 0 0-.1.1-.1v.3c0 .3-.2.6-.6.7-.3.1-.7 0-1-.1-.1 0-.2-.1-.4-.1 0 .3 0 .5-.1.8h.1c.3.1.6.1.9.1.3 0 .7 0 1-.1.5-.1.8-.4.9-.9l.1-.5v-2.6c-.2.1-.5.1-.8.1zm-.3 1.9c-.1.2-.4.2-.6.2-.2-.1-.3-.2-.4-.3-.1-.3-.1-.6 0-.8.1-.2.3-.3.5-.3.3 0 .5.1.6.4.1.2.1.5-.1.8zm9.2.1c.1-.2.1-.4.1-.7 0-.6-.3-1-.9-1.3-.2-.1-.4-.1-.6-.1-.3 0-.7 0-1 .1-.4.2-.7.5-.9.9-.1.2-.1.5-.1.7.1.5.4.9.9 1.1.3.1.6.2.9.2.3 0 .5 0 .8-.1.4-.2.6-.4.8-.8zm-1-.1c-.2.4-.7.4-1 .2-.1-.1-.2-.2-.2-.3-.1-.3-.1-.6 0-.8.2-.5.8-.4 1-.2.1.1.2.3.2.4v.3c.1.1 0 .2 0 .4zm-2.7-2c-.3 0-.6.1-.8.3 0 .1 0 .2-.1.2l-.1.1v-.5h-.9v2.8h1v-1.2c0-.2 0-.4.1-.5.1-.2.2-.3.4-.3h.5c0-.1.1-.7 0-.8.1-.1 0-.1-.1-.1zm-3.6 2.9h1v-2.9h-1v2.9z"/><path fill="#fff" d="M12.6 8.2c-.2-.2-.8-.2-1 .2-.1.3-.1.6 0 .8 0 .1.1.2.2.3.3.2.8.2 1-.2.1-.1.1-.3.1-.5v-.3c-.1 0-.2-.1-.3-.3z"/></svg>