<svg xmlns="http://www.w3.org/2000/svg" width="28" height="18" viewBox="0 0 28 18"><path fill="#00BEE4" d="M28 .7v16.5c0 .4-.3.7-.8.7h-26.4c-.5.1-.8-.2-.8-.6v-16.6c0-.4.3-.7.8-.7h26.5c.4 0 .7.3.7.7z"/><path d="M2.5 6.5l-.5-1.3-.6 1.3m13-.5h-1.4v-.7h1c.1 0 .3 0 .4.1.1 0 .2.1.2.3 0 .1-.1.2-.2.3zm6.8.5l-.5-1.3-.5 1.3h1zm-12.7 1.4h-.8v-2.5l-1.2 2.5h-.6l-1.2-2.5v2.5h-1.6l-.3-.8h-1.6l-.3.8h-.9l1.4-3.2h1.2l1.3 3v-3h1.3l1 2.2.9-2.2h1.3l.1 3.2zm3.2 0h-2.6v-3.2h2.6v.7h-1.8v.6h1.8v.7h-1.8v.6h1.8v.6zm3.7-2.4c0 .5-.4.8-.6.8.2.1.3.2.4.3.1.2.1.3.1.6v.6h-.8v-.4c0-.2 0-.5-.1-.6-.1-.1-.3-.1-.6-.1h-.8v1.2h-.8v-3.2h1.8c.4 0 .7 0 1 .2.3.1.4.3.4.6zm1.3 2.4h-.8v-3.2h.8v3.2zm9.3 0h-1.1l-1.5-2.4v2.4h-1.6l-.3-.7h-1.6l-.3.7h-.9c-.4 0-.9-.1-1.1-.4-.3-.3-.4-.6-.4-1.2 0-.5.1-.9.4-1.2.3-.3.7-.4 1.2-.4h.8v.7h-.7c-.3 0-.4 0-.6.2-.1.1-.2.4-.2.7 0 .3.1.6.2.7.1.1.3.2.5.2h.2l1.1-2.5h1.2l1.3 3v-3h1.2l1.4 2.2v-2.2h.8v3.2zm-26 .6h1.3l.3-.7h.7l.3.7h2.6v-.6l.2.5h1.4l.2-.5v.5h6.6v-1.2h.1c.1 0 .1 0 .1.2v1h3.4v-.2c.3.1.7.3 1.3.3h1.5l.3-.7h.7l.3.7h2.8v-.7l.4.7h2.2v-4.4h-2.2v.5l-.3-.5h-2.2v.5l-.3-.5h-3c-.5 0-1 .1-1.3.3v-.3h-2.1v.3c-.2-.2-.5-.3-.9-.3h-7.7l-.5 1.1-.5-1.1h-2.4v.5l-.3-.5h-2l-1 2.1v2.3zm28 2.3h-1.4c-.1 0-.2 0-.3.1-.1.1-.1.1-.1.2s.1.2.2.2h.7c.4 0 .7.1.9.3l.1.1m-.1 1.2c-.2.3-.6.4-1.1.4h-1.5v-.7h1.5c.2 0 .3 0 .3-.1.1 0 .1-.1.1-.2s0-.2-.1-.2-.1-.1-.3-.1c-.7 0-1.7 0-1.7-1 0-.5.3-.9 1.1-.9h1.7v-.6h-1.5c-.4 0-.8.1-1 .3v-.3h-2.2c-.3 0-.7.1-.9.3v-.3h-3.8v.3c-.3-.2-.8-.3-1.1-.3h-2.5v.3c-.2-.2-.8-.3-1.1-.3h-2.8l-.6.7-.7-.7h-4.2v4.4h4.2l.7-.7.6.7h2.6v-1h.3c.3 0 .7 0 1.1-.2v1.2h2.1v-1.2h.1c.1 0 .1 0 .1.1v1h6.4c.4 0 .8-.1 1.1-.3v.3h2c.4 0 .8-.1 1.2-.2v-.7h-.1zm-3.1-1.3c.2.2.2.3.2.7 0 .7-.4 1-1.2 1h-1.5v-.7h1.5c.1 0 .3 0 .3-.1.1 0 .1-.1.1-.2s0-.2-.1-.2-.1-.1-.3-.1c-.7 0-1.7 0-1.7-1 0-.5.3-.9 1.1-.9h1.6v.7h-1.4c-.1 0-.2 0-.3.1-.1.1-.1.1-.1.2s.1.2.2.2h.7c.4.1.7.2.9.3zm-7.1-.1c-.1.1-.2.1-.4.1h-1v-.7h1c.1 0 .3 0 .4.1.1.1.2.1.2.3-.1 0-.1.1-.2.2zm.4.3c.2.1.3.2.4.3.1.2.1.3.1.6v.6h-.7v-.4c0-.2 0-.5-.1-.6-.1-.1-.3-.1-.6-.1h-.8v1.2h-.8v-3.2h1.8c.4 0 .7 0 .9.1.2.1.4.3.4.7 0 .5-.4.8-.6.8zm1-1.7h2.6v.7h-1.8v.6h1.8v.6h-1.8v.6h1.8v.7h-2.6v-3.2zm-5.3 1.5h-1v-.8h1c.3 0 .5.1.5.4 0 .3-.2.4-.5.4zm-1.8 1.4l-1.2-1.3 1.2-1.3v2.6zm-3.1-.3h-1.9v-.7h1.7v-.6h-1.7v-.6h2l.9.9-1 1zm6.3-1.5c0 .9-.7 1.1-1.4 1.1h-1v1.1h-1.5l-1-1.1-1 1.1h-3.1v-3.2h3.2l1 1 1-1h2.5c.6-.1 1.3.1 1.3 1z" fill="#fff"/><path d="M17.8 10.9c-.1-.1-.2-.1-.4-.1h-1v.7h1c.2 0 .3 0 .4-.1.1-.1.2-.2.2-.3-.1-.1-.1-.2-.2-.2zm-3.4-5.5c-.1-.1-.2-.1-.4-.1h-1v.7h1c.2 0 .3 0 .4-.1.1-.1.2-.2.2-.3-.1-.1-.1-.2-.2-.2zm-.5 5.4h-1v.8h1c.3 0 .5-.1.5-.4 0-.3-.2-.4-.5-.4zm-1.8 2.2v-2.5l-1.2 1.2zm-5-2.2v.6h1.7v.6h-1.7v.7h1.9l.9-1-.9-.9zm13.6-5.6l-.6 1.3h1.1z" fill="none"/><path fill="#00BEE4" d="M7.7 5.4v2.5h.8v-3.2h-1.3l-1 2.1-1-2.2h-1.3v3l-1.3-3h-1.2l-1.4 3.3h.9l.3-.7h1.6l.3.7h1.6v-2.5l1.1 2.5h.7l1.2-2.5zm-6.3 1.1l.6-1.3.5 1.3h-1.1zm10.3.7h-1.8v-.6h1.8v-.7h-1.8v-.6h1.8v-.6h-2.6v3.2h2.6zm6.9.7h.9l.3-.7h1.6l.3.7h1.6v-2.4l1.5 2.4h1.2v-3.2h-.8v2.2l-1.4-2.2h-1.2v3l-1.3-3h-1.2l-1.1 2.5h-.4c-.2 0-.4 0-.5-.2-.1-.2-.2-.4-.2-.7 0-.3.1-.6.2-.7.2-.1.3-.2.6-.2h.7v-.7h-.8c-.5 0-.9.1-1.2.4-.3.3-.4.8-.4 1.2 0 .6.1.9.4 1.2.4.3.8.4 1.2.4zm2.1-2.7l.5 1.3h-1.1l.6-1.3zm-4.8-.5h.8v3.2h-.8zm-.5.8c0-.4-.1-.6-.4-.7-.3-.1-.6-.2-1-.2h-1.8v3.2h.8v-1.1h.8c.3 0 .5 0 .6.1.1.2.1.4.1.6v.4h.8v-.6c0-.3 0-.4-.1-.6-.1-.1-.2-.2-.4-.3.3 0 .6-.3.6-.8zm-1 .5h-1.4v-.7h1c.1 0 .3 0 .4.1.1 0 .2.1.2.3l-.2.3zm-.5 4.1h-2.5l-1 1-1-1h-3.1v3.2h3.1l1-1.1 1 1.1h1.5v-1.1h1c.7 0 1.4-.2 1.4-1.1-.1-.8-.8-1-1.4-1zm-4.9 2.6h-1.9v-.7h1.7v-.6h-1.7v-.6h2l.9.9-1 1zm3.1.3l-1.2-1.3 1.2-1.3v2.6zm1.8-1.4h-1v-.8h1c.3 0 .5.1.5.4 0 .3-.2.4-.5.4zm10.1-.2h-.7c-.1 0-.2-.1-.2-.2s0-.2.1-.2c.1-.1.2-.1.3-.1h1.4v-.7h-1.6c-.8 0-1.1.5-1.1.9 0 1 .9 1 1.7 1 .1 0 .2 0 .3.1.1 0 .1.1.1.2s0 .2-.1.2c-.1.1-.2.1-.3.1h-1.5v.7h1.5c.8 0 1.2-.3 1.2-1 0-.3-.1-.5-.2-.7-.2-.2-.5-.3-.9-.3zm-4.8 1.9h2.7v-.6h-1.9v-.7h1.8v-.6h-1.8v-.6h1.9v-.7h-2.7zm-.4-2.3c0-.4-.2-.6-.4-.7-.3-.1-.5-.1-.9-.1h-1.8v3.2h.8v-1.2h.8c.3 0 .5 0 .6.1.1.1.1.4.1.6v.4h.8v-.6c0-.3 0-.4-.1-.6-.1-.1-.2-.2-.4-.3.1 0 .5-.3.5-.8zm-1 .4c-.1.1-.2.1-.4.1h-1v-.7h1c.1 0 .3 0 .4.1.1.1.2.1.2.3-.1.1-.1.2-.2.2zm8.8-.6h1.4v-.7h-1.6c-.8 0-1.1.5-1.1.9 0 1 .9 1 1.7 1 .1 0 .2 0 .3.1.1 0 .1.1.1.2s0 .2-.1.2c-.1.1-.2.1-.3.1h-1.5v.7h1.5c.5 0 .9-.1 1.1-.4v-1.2s0-.1-.1-.1c-.2-.2-.5-.2-.9-.3h-.7c-.1 0-.2-.1-.2-.2s0-.2.1-.2c0-.1.1-.1.3-.1z"/></svg>