<svg xmlns="http://www.w3.org/2000/svg" width="17" height="12" viewBox="0 0 17 12"><path d="M13 0h14.6-14.6z" fill="none"/><path fill="#E52420" d="M1.2 0c-.7.1-1.1.7-1.2 1.4v9.2c.1.8.6 1.4 1.4 1.4h2.6v-12h-2.8z"/><path fill="#fff" d="M4 0h9v12h-9z"/><path fill="#E52420" d="M15.8 0h-2.8v12h2.6c.8 0 1.4-.7 1.4-1.5v-9c0-.8-.5-1.4-1.2-1.5z"/><path fill-rule="evenodd" clip-rule="evenodd" fill="#E52620" d="M8.6 8.7c0-.5 0-.9-.1-1.2 0-.1.1-.1.2-.1.8.1 1.1.2 1.1.2-.3-.8.7-1.1 1.2-1.6-.4-.1-.3-.1-.1-1-.8.3-.8.2-.9-.2 0 0-.1.1-.6.7-.1.1-.2 0-.2-.1.3-1.4.3-1.5.3-1.5-.5.4-.5.4-.6.2-.3-.5-.4-.8-.4-.8s-.1.3-.4.8c-.1.2-.1.2-.6-.2 0 0 0 .1.3 1.4 0 .1-.1.2-.2.1l-.6-.6c-.2.4-.1.5-.9.2.2 1 .3.9-.1 1 .5.4 1.5.8 1.1 1.5 0 0 .4-.1 1.1-.2.1 0 .2 0 .2.1 0 .3 0 .7-.1 1.2h.3z"/></svg>