<svg xmlns="http://www.w3.org/2000/svg" width="17" height="12" viewBox="0 0 17 12"><path d="M0 10.5c0 .2 0 .3.1.5h16.8c.1-.2.1-.3.1-.5v-.5h-17v.5zm0-2.5h17v1h-17zm0-2h17v1h-17zm0-2h17v1h-17zm0-2h17v1h-17zm.1-1h16.8c-.2-.6-.7-1-1.3-1h-14.2c-.6 0-1.1.4-1.3 1z" fill="#B32335"/><path d="M0 9h17v1h-17zm16.9 2h-16.8c.2.6.7 1 1.3 1h14.3c.5 0 1-.4 1.2-1zm-16.9-4h17v1h-17zm0-2h17v1h-17zm0-2h17v1h-17zm0-1.5v.5h17v-.5c0-.2 0-.3-.1-.5h-16.8c-.1.2-.1.3-.1.5z" fill="#fff"/><path fill-rule="evenodd" clip-rule="evenodd" fill="#3C3B6E" d="M0 6v-4.5c0-.8.6-1.5 1.4-1.5h6.6v6h-8z"/><path d="M1.5 1.2l.2.4h.3l-.2.3v.3l-.3-.1-.3.1.1-.3-.3-.3h.3zm1.7 0l.1.4h.4l-.3.3.1.3-.3-.1-.3.1v-.3l-.2-.3h.3zm1.6 0l.2.4h.3l-.2.3v.3l-.3-.1-.3.1.1-.3-.3-.3h.4zm1.7 0l.2.4h.3l-.2.3v.3l-.3-.1-.3.1.1-.3-.3-.3h.3zm-5 1.3l.2.3.3.1-.2.2v.4l-.3-.2-.3.2.1-.4-.3-.2.3-.1zm1.7 0l.1.3.4.1-.3.2.1.4-.3-.2-.3.2v-.4l-.2-.2.3-.1zm1.6 0l.2.3.3.1-.2.2v.4l-.3-.2-.3.2.1-.4-.3-.2.4-.1zm1.7 0l.2.3.3.1-.2.2v.4l-.3-.2-.3.2.1-.4-.3-.2.3-.1zm-5 1.3l.2.3h.3l-.2.3v.4l-.3-.2-.3.2.1-.4-.3-.3h.3zm1.7 0l.1.3h.4l-.3.3.1.4-.3-.2-.3.2v-.4l-.2-.3h.3zm1.6 0l.2.3h.3l-.2.3v.4l-.3-.2-.3.2.1-.4-.3-.3h.4zm1.7 0l.2.3h.3l-.2.3v.4l-.3-.2-.3.2.1-.4-.3-.3h.3z" fill-rule="evenodd" clip-rule="evenodd" fill="#fff"/></svg>