<svg xmlns="http://www.w3.org/2000/svg" width="17" height="12" viewBox="0 0 17 12"><path fill-rule="evenodd" clip-rule="evenodd" fill="#203C89" d="M1.4 0h14.3c.7 0 1.3.7 1.3 1.5v9c0 .8-.6 1.5-1.4 1.5h-14.2c-.8 0-1.4-.7-1.4-1.5v-9c0-.8.6-1.5 1.4-1.5z"/><path fill="#fff" d="M3.1 1.9v.1z"/><path d="M0 5.5v.5h.1l2.8-2h-.8zm7.8-5.5l-2.8 2h.8l2.2-1.6v-.4zm-4.7 2l-2.5-1.8c-.1.1-.2.2-.3.4l2 1.4h.8zm2.1 2l2.8 2v-.6l-2-1.4zm-.7-4h-1v2.4h-3.5v1.2h3.5v2.4h1v-2.4h3.5v-1.2h-3.5z" fill="#CC1417"/><path d="M3.1 6h.4v-2.4h-3.5v.4h1.4l-1.4 1v.5l2.1-1.5h.8l-2.8 2h.7l2.3-1.6zm1.9-4l2.8-2h-.7l-2.2 1.5v-1.5h-.4v2.4h3.5v-.4h-1.5l1.5-1.1v-.5l-2.2 1.6zm-1.5-2h-.4v1.4l-2-1.4c-.2 0-.3.1-.4.2l2.4 1.7h-.8l-2-1.4c-.1.2-.1.3-.2.4l1.5 1.1h-1.6v.4h3.5v-2.4zm1 3.6v2.4h.4v-1.7l2.4 1.7h.7l-2.8-2h.8l2 1.4v-.5l-1.3-.9h1.3v-.4h-3.4zm-1.2 6.1l.4-.6-.7.3-.2-.8-.3.8-.7-.3.4.6-.7.4.8.1-.1.8.6-.6.5.6-.1-.8.8-.1-.7-.4zm7.4-5.2l.2-.3-.3.1-.2-.3-.1.3-.3-.1.2.3-.3.2h.4l-.1.4.3-.3.3.3-.1-.4h.4l-.4-.2zm2.3-2.4l-.3.1-.1-.3-.1.3-.3-.1.2.3-.4.2h.4l-.1.4.3-.3.2.3-.1-.4h.4l-.3-.2.2-.3zm2 3.5l-.3-.2.2-.3-.3.1-.1-.3-.1.3-.4-.1.2.3-.3.2h.4l-.1.4.3-.3.2.3-.1-.4h.4zm-2.2 4.8l.2-.3-.3.1-.1-.3-.1.3-.3-.1.2.3-.4.2h.4l-.1.4.3-.3.3.3-.1-.4h.4l-.4-.2zm-.4-3.8l-.1-.2-.1.2h-.2l.1.2v.2l.2-.1.2.1v-.2l.1-.2z" fill="#fff"/></svg>