<svg xmlns="http://www.w3.org/2000/svg" width="17" height="12" viewBox="0 0 17 12"><path fill-rule="evenodd" clip-rule="evenodd" fill="#203C89" d="M1.4 0h14.3c.7 0 1.3.7 1.3 1.5v9c0 .8-.6 1.5-1.4 1.5h-14.2c-.8 0-1.4-.7-1.4-1.5v-9c0-.8.6-1.5 1.4-1.5z"/><path d="M0 1.5v9l6.4-4.5-6.4-4.5zm2 10.5h13l-6.5-4.6zm13-12h-13l6.5 4.6zm2 10.5v-9l-6.4 4.5 6.4 4.5z" fill="none"/><path fill="#fff" d="M7.8 7l-7 4.9c.2.1.4.1.6.1h.6l6.5-4.6-.7-.4zm1.4-2l7-4.9c-.2-.1-.4-.1-.6-.1h-.6l-6.5 4.6.7.4zm.7.5l.7.5 6.4-4.5c0-.3-.1-.6-.2-.8l-6.9 4.8zm-2.8 1l-.7-.5-6.4 4.5c0 .3.1.6.2.8l6.9-4.8z"/><path fill="#CC1417" d="M.2 11.3c.2.3.4.5.7.6l7-4.9-.8-.5-6.9 4.8zm16.6-10.6c-.2-.3-.4-.5-.7-.6l-6.9 4.9.7.5 6.9-4.8z"/><path fill="#fff" d="M.9.1l7 4.9.7-.5-6.6-4.5h-.6c-.2 0-.4 0-.5.1zm15.2 11.8l-6.9-4.9-.7.4 6.5 4.6h.7c.1 0 .3 0 .4-.1zm-6.2-5.4l6.9 4.9c.1-.2.2-.5.2-.8l-6.4-4.6-.7.5zm-2.8-1l-6.9-4.8c-.1.2-.2.5-.2.8l6.4 4.5.7-.5zm.7 1.5l.7.4.7-.4-.7-.5zm2.1-.5l.7-.5-.7-.5-.7.5zm-2.8-1l-.7.5.7.5.7-.5zm2.1-.5l-.7-.4-.7.4.7.5zm-1.4 1l-.7.5.7.5.7-.5zm1.4 0l.7-.5-.7-.5-.7.5z"/><path fill="#CC1417" d="M9.2 7l7 4.9c.3-.1.5-.3.7-.6l-7-4.8-.7.5zm-8.3-6.9c-.3.1-.5.3-.7.6l6.9 4.9.7-.6-6.9-4.9zm8.3 5.9l-.7.5.7.5.7-.5zm-.7-.5l-.7-.5-.7.5.7.5zm-.7.5l.7.5.7-.5-.7-.5z"/><path fill-rule="evenodd" clip-rule="evenodd" fill="#fff" d="M0 7.6v-3.2h17v3.3h-17zm7-7.6h3v12h-3v-12z"/><path fill-rule="evenodd" clip-rule="evenodd" fill="#CC1417" d="M7.6 0h1.7v12h-1.7v-12zm-7.6 6.9v-1.8h17v1.9h-17z"/></svg>