<svg xmlns="http://www.w3.org/2000/svg" width="17" height="12" viewBox="0 0 17 12"><path fill-rule="evenodd" clip-rule="evenodd" fill="#1E3D87" d="M1.4 12c-.8 0-1.4-.6-1.4-1.4v-9.2c0-.8.6-1.4 1.4-1.4h14.3c.7 0 1.3.6 1.3 1.4v9.1c0 .8-.6 1.4-1.4 1.4h-14.2z"/><path d="M8 3.9l.5-.3.6.3-.1-.7.5-.4-.7-.1-.3-.6-.2.6-.7.1.5.4zm.8 4.8l-.3-.6-.2.6-.7.1.5.4-.1.7.5-.3.6.3-.1-.7.5-.4zm1.2-4.5l-.1.7.6-.3.5.3-.1-.7.5-.4-.7-.1-.2-.6-.3.6-.7.1zm.7 3.5l-.2-.6-.3.6-.7.1.5.4-.1.7.6-.3.5.3-.1-.7.5-.4zm-4.2-4.6l-.2.6-.7.1.5.4-.1.7.5-.3.6.3-.1-.7.5-.4-.7-.1zm.3 4.6l-.3-.6-.2.6-.7.1.5.4-.1.7.5-.3.6.3-.1-.7.5-.4zm-.8-1.5l.5-.4-.7-.1-.3-.6-.2.6-.7.1.5.4-.1.7.5-.3.6.3zm6.4-.4l-.7-.1-.2-.6-.3.6-.7.1.5.4-.1.7.6-.3.5.3-.1-.7z" fill-rule="evenodd" clip-rule="evenodd" fill="#FFCC0C"/></svg>