<svg xmlns="http://www.w3.org/2000/svg" width="16" height="16" viewBox="0 0 16 16"><path fill="#00965e" d="M15.92 3.177l-.008-.12-.12-.028c-.447.19-.912.34-1.393.43.51-.41.89-.96 1.09-1.59l-.04-.11-.12-.01c-.61.36-1.27.62-1.97.76-.63-.64-1.49-1.01-2.39-1.01-1.82 0-3.31 1.5-3.31 3.33 0 .21.02.42.06.62-2.51-.17-4.85-1.37-6.45-3.33l-.09-.04-.08.05c-.299.511-.449 1.091-.449 1.681 0 .997.434 1.928 1.185 2.557-.37-.06-.735-.18-1.063-.36l-.1.02-.05.11c0 1.43.925 2.694 2.246 3.147-.325.043-.66.036-.994-.03l-.093.03-.02.1c.41 1.27 1.52 2.16 2.83 2.296-1.08.78-2.37 1.19-3.72 1.19-.25 0-.5-.017-.75-.04-.05-.01-.09.02-.11.063-.01.044 0 .095.05.12 1.5.96 3.22 1.47 5 1.47 5.81 0 9.28-4.72 9.28-9.28l-.01-.37c.63-.46 1.17-1.02 1.6-1.665z"/></svg>