<svg xmlns="http://www.w3.org/2000/svg" width="16" height="16" viewBox="0 0 16 16"><path fill="#00965e" d="M8.403 8.953l-.103-.08c-.318-.234-1.157-.862-1.157-1.156 0-.402.07-.598.833-1.196.942-.73 1.442-1.64 1.442-2.62 0-.96-.32-1.8-.873-2.37h.55c.063 0 .122-.02.16-.07l1.017-1.071c.05-.038.08-.102.08-.166 0-.12-.098-.224-.226-.224h-4.596c-2.393 0-4.496 1.79-4.496 3.83 0 2.17 1.515 3.69 3.692 3.69h.093c-.08.22-.12.442-.12.653 0 .417.16.72.36.976h-.31c-2.839-.009-4.749 1.971-4.749 3.811 0 1.765 2.162 3.045 5.138 3.045 3.21 0 5.133-1.873 5.133-3.68.01-1.55-.39-2.277-1.86-3.38zm-1.946 1.367l.397.27c.78.53 1.343.907 1.496 1.5.034.142.054.294.054.436 0 1.505-1.098 2.27-3.266 2.27-1.652 0-2.947-1.03-2.947-2.34 0-1.23 1.47-2.308 3.13-2.308.42.006.79.065 1.14.172zm-2.747-8.62c.285-.323.658-.494 1.08-.494h.045c1.097.034 2.083 1.236 2.29 2.794.107.83-.035 1.515-.403 1.932-.255.29-.617.44-1.044.44h-.054c-1.182-.033-2.217-1.15-2.408-2.597-.108-.833.074-1.593.495-2.074zm12.072.634h-1.892v-1.894c0-.122-.103-.224-.225-.224h-1.06c-.122 0-.224.103-.224.225v1.89h-1.881c-.123 0-.225.11-.225.23v1.06c0 .12.103.23.225.23h1.888v1.88c0 .13.104.23.226.23h1.06c.12 0 .224-.1.224-.22v-1.891h1.888c.124 0 .226-.103.226-.225v-1.065c.005-.128-.098-.226-.22-.226z"/></svg>