<svg xmlns="http://www.w3.org/2000/svg" width="50" height="50" viewBox="0 0 50 50"><path fill="#fff" d="M15.652 39.675c-7.983 0-14.478-6.494-14.478-14.478 0-7.983 6.495-14.477 14.478-14.477 7.982 0 14.477 6.494 14.477 14.477 0 7.984-6.5 14.478-14.48 14.478z"/><path fill="#bbb" d="M15.652 11.22c7.72 0 13.977 6.258 13.977 13.977s-6.26 13.977-13.98 13.977S1.67 32.917 1.67 25.197 7.93 11.22 15.65 11.22m0-1C7.392 10.22.674 16.94.674 25.197s6.72 14.977 14.977 14.977 14.98-6.72 14.98-14.977S23.91 10.22 15.65 10.22zm-.01 19.966c.95 0 1.826-.433 2.41-1.19.41-.534.63-1.174.63-1.848 0-.208-.02-.416-.064-.616-.116-.7-.64-1.86-1.566-3.455-.693-1.198-1.276-2.078-1.28-2.087l-.133-.193-.13.194c-.005.01-.588.89-1.28 2.09-.925 1.6-1.45 2.76-1.56 3.45-.044.21-.065.41-.065.62 0 .68.218 1.32.63 1.85.58.76 1.46 1.19 2.407 1.19m0 1.06c-1.26 0-2.42-.57-3.19-1.57-.55-.71-.84-1.55-.84-2.45 0-.27.02-.55.08-.81.14-.89.8-2.36 1.97-4.37.86-1.49 1.6-2.6 1.6-2.61.08-.12.18-.26.36-.26s.28.14.36.27c0 .01.74 1.13 1.6 2.61 1.16 2.02 1.83 3.49 1.97 4.38.052.26.08.54.08.81 0 .9-.29 1.75-.84 2.46-.77 1-1.93 1.57-3.19 1.57"/><path fill="#fff" d="M34.288 39.675c-7.982 0-14.477-6.494-14.477-14.478 0-7.983 6.5-14.477 14.48-14.477 7.99 0 14.48 6.494 14.48 14.477 0 7.984-6.49 14.478-14.48 14.478z"/><path fill="#bbb" d="M34.288 11.22c7.72 0 13.977 6.258 13.977 13.977s-6.258 13.977-13.977 13.977c-7.72 0-13.977-6.258-13.977-13.977S26.57 11.22 34.29 11.22m0-1c-8.258 0-14.977 6.72-14.977 14.977s6.72 14.977 14.978 14.977 14.98-6.72 14.98-14.977S42.55 10.22 34.29 10.22zm-.01 19.966c.95 0 1.826-.433 2.408-1.19.412-.534.63-1.174.63-1.848 0-.208-.02-.416-.062-.616-.112-.7-.638-1.86-1.562-3.455C35 21.88 34.418 21 34.414 20.99l-.133-.193-.13.194c0 .01-.59.89-1.28 2.09-.92 1.6-1.45 2.76-1.56 3.45-.04.21-.06.41-.06.62 0 .68.22 1.32.63 1.85.58.76 1.46 1.19 2.41 1.19m0 1.06c-1.25 0-2.42-.57-3.19-1.57-.54-.71-.83-1.55-.83-2.45 0-.27.03-.55.09-.81.14-.89.81-2.36 1.97-4.37.87-1.49 1.6-2.6 1.61-2.61.09-.12.18-.26.37-.26s.28.14.37.27c.01.01.75 1.13 1.61 2.61 1.17 2.02 1.83 3.49 1.97 4.38.058.26.08.54.08.81 0 .9-.29 1.75-.83 2.46-.77 1-1.93 1.57-3.19 1.57"/></svg>