<svg xmlns="http://www.w3.org/2000/svg" width="260" height="88" viewBox="0 0 260 88"><path fill="#fff" d="M88 54.5c-.276 0-.5-.224-.5-.5v-4.045c0-4.267 4.204-7.455 7.963-7.455 3.794 0 8.037 3.188 8.037 7.455V54c0 .276-.224.5-.5.5H88zm7.36-14c-2.848 0-5.166-2.243-5.166-5s2.318-5 5.167-5 5.17 2.243 5.17 5-2.32 5-5.16 5zm15.64 14c-.276 0-.5-.224-.5-.5v-4.045c0-4.267 4.204-7.455 7.963-7.455 3.794 0 8.037 3.188 8.037 7.455V54c0 .276-.224.5-.5.5h-15zm7.36-14c-2.848 0-5.166-2.243-5.166-5s2.318-5 5.167-5 5.17 2.243 5.17 5-2.32 5-5.16 5zm15.64 14c-.276 0-.5-.224-.5-.5v-4.045c0-4.267 4.204-7.455 7.963-7.455 3.794 0 8.037 3.188 8.037 7.455V54c0 .276-.224.5-.5.5h-15zm7.36-14c-2.848 0-5.166-2.243-5.166-5s2.318-5 5.167-5 5.17 2.243 5.17 5-2.32 5-5.16 5zm15.64 14c-.276 0-.5-.224-.5-.5v-4.045c0-4.267 4.204-7.455 7.963-7.455 3.794 0 8.037 3.188 8.037 7.455V54c0 .276-.224.5-.5.5h-15zm7.36-14c-2.848 0-5.166-2.243-5.166-5s2.318-5 5.167-5 5.17 2.243 5.17 5-2.32 5-5.16 5zm15.64 14c-.276 0-.5-.224-.5-.5v-4.045c0-4.267 4.204-7.455 7.963-7.455 3.794 0 8.037 3.188 8.037 7.455V54c0 .276-.224.5-.5.5h-15zm7.36-14c-2.848 0-5.166-2.243-5.166-5s2.318-5 5.167-5 5.17 2.243 5.17 5-2.32 5-5.16 5zm15.64 14c-.276 0-.5-.224-.5-.5v-4.045c0-4.267 4.204-7.455 7.963-7.455 3.794 0 8.037 3.188 8.037 7.455V54c0 .276-.224.5-.5.5h-15zm7.36-14c-2.848 0-5.166-2.243-5.166-5s2.318-5 5.167-5 5.17 2.243 5.17 5-2.32 5-5.16 5zm15.64 14c-.276 0-.5-.224-.5-.5v-4.045c0-4.267 4.204-7.455 7.963-7.455 3.794 0 8.037 3.188 8.037 7.455V54c0 .276-.224.5-.5.5h-15zm7.36-14c-2.848 0-5.166-2.243-5.166-5s2.318-5 5.167-5 5.17 2.243 5.17 5-2.32 5-5.16 5z"/><path d="M26.463 42C22.468 42 18 45.402 18 49.956V54c0 .552.448 1 1 1h15c.552 0 1-.448 1-1v-4.044C35 45.402 30.493 42 26.463 42zm-.103-1c3.126 0 5.668-2.467 5.668-5.5S29.486 30 26.36 30s-5.666 2.467-5.666 5.5S23.236 41 26.36 41zm23.103 1C45.468 42 41 45.402 41 49.956V54c0 .552.448 1 1 1h15c.552 0 1-.448 1-1v-4.044C58 45.402 53.493 42 49.463 42zm-.103-1c3.126 0 5.668-2.467 5.668-5.5S52.486 30 49.36 30s-5.666 2.467-5.666 5.5S46.236 41 49.36 41zm23.103 1C68.468 42 64 45.402 64 49.956V54c0 .552.448 1 1 1h15c.552 0 1-.448 1-1v-4.044C81 45.402 76.493 42 72.463 42zm-.103-1c3.126 0 5.668-2.467 5.668-5.5S75.486 30 72.36 30s-5.666 2.467-5.666 5.5S69.236 41 72.36 41zm23.103 1C91.468 42 87 45.402 87 49.956V54c0 .552.448 1 1 1h15c.552 0 1-.448 1-1v-4.044C104 45.402 99.493 42 95.463 42zM103 54H88v-4.044C88 46.114 91.853 43 95.463 43S103 46.114 103 49.956V54zm-7.64-13c3.126 0 5.668-2.467 5.668-5.5S98.486 30 95.36 30s-5.666 2.467-5.666 5.5S92.236 41 95.36 41zm0-10c2.58 0 4.668 2.015 4.668 4.5S97.938 40 95.36 40s-4.666-2.015-4.666-4.5 2.09-4.5 4.667-4.5zm23.103 11c-3.995 0-8.463 3.402-8.463 7.956V54c0 .552.448 1 1 1h15c.552 0 1-.448 1-1v-4.044c0-4.554-4.507-7.956-8.537-7.956zM126 54h-15v-4.044c0-3.84 3.853-6.956 7.463-6.956S126 46.114 126 49.956V54zm-7.64-13c3.126 0 5.668-2.467 5.668-5.5s-2.542-5.5-5.667-5.5-5.66 2.467-5.66 5.5 2.54 5.5 5.67 5.5zm0-10c2.58 0 4.668 2.015 4.668 4.5s-2.09 4.5-4.667 4.5-4.66-2.015-4.66-4.5 2.09-4.5 4.67-4.5zm23.103 11c-3.995 0-8.463 3.402-8.463 7.956V54c0 .552.448 1 1 1h15c.552 0 1-.448 1-1v-4.044c0-4.554-4.507-7.956-8.537-7.956zM149 54h-15v-4.044c0-3.84 3.853-6.956 7.463-6.956S149 46.114 149 49.956V54zm-7.64-13c3.126 0 5.668-2.467 5.668-5.5s-2.542-5.5-5.667-5.5-5.66 2.467-5.66 5.5 2.54 5.5 5.67 5.5zm0-10c2.58 0 4.668 2.015 4.668 4.5s-2.09 4.5-4.667 4.5-4.66-2.015-4.66-4.5 2.09-4.5 4.67-4.5zm23.103 11c-3.995 0-8.463 3.402-8.463 7.956V54c0 .552.448 1 1 1h15c.552 0 1-.448 1-1v-4.044c0-4.554-4.507-7.956-8.537-7.956zM172 54h-15v-4.044c0-3.84 3.853-6.956 7.463-6.956S172 46.114 172 49.956V54zm-7.64-13c3.126 0 5.668-2.467 5.668-5.5s-2.542-5.5-5.667-5.5-5.66 2.467-5.66 5.5 2.54 5.5 5.67 5.5zm0-10c2.58 0 4.668 2.015 4.668 4.5s-2.09 4.5-4.667 4.5-4.66-2.015-4.66-4.5 2.09-4.5 4.67-4.5zm23.103 11c-3.995 0-8.463 3.402-8.463 7.956V54c0 .552.448 1 1 1h15c.552 0 1-.448 1-1v-4.044c0-4.554-4.507-7.956-8.537-7.956zM195 54h-15v-4.044c0-3.84 3.853-6.956 7.463-6.956S195 46.114 195 49.956V54zm-7.64-13c3.126 0 5.668-2.467 5.668-5.5s-2.542-5.5-5.667-5.5-5.66 2.467-5.66 5.5 2.54 5.5 5.67 5.5zm0-10c2.58 0 4.668 2.015 4.668 4.5s-2.09 4.5-4.667 4.5-4.66-2.015-4.66-4.5 2.09-4.5 4.67-4.5zm23.103 11c-3.995 0-8.463 3.402-8.463 7.956V54c0 .552.448 1 1 1h15c.552 0 1-.448 1-1v-4.044c0-4.554-4.507-7.956-8.537-7.956zM218 54h-15v-4.044c0-3.84 3.853-6.956 7.463-6.956S218 46.114 218 49.956V54zm-7.64-13c3.126 0 5.668-2.467 5.668-5.5s-2.542-5.5-5.667-5.5-5.66 2.467-5.66 5.5 2.54 5.5 5.67 5.5zm0-10c2.58 0 4.668 2.015 4.668 4.5s-2.09 4.5-4.667 4.5-4.66-2.015-4.66-4.5 2.09-4.5 4.67-4.5zm23.103 11c-3.995 0-8.463 3.402-8.463 7.956V54c0 .552.448 1 1 1h15c.552 0 1-.448 1-1v-4.044c0-4.554-4.507-7.956-8.537-7.956zM241 54h-15v-4.044c0-3.84 3.853-6.956 7.463-6.956S241 46.114 241 49.956V54zm-7.64-13c3.126 0 5.668-2.467 5.668-5.5s-2.542-5.5-5.667-5.5-5.66 2.467-5.66 5.5 2.54 5.5 5.67 5.5zm0-10c2.58 0 4.668 2.015 4.668 4.5s-2.09 4.5-4.667 4.5-4.66-2.015-4.66-4.5 2.09-4.5 4.67-4.5zm25.14 57H1.5C.673 88 0 87.327 0 86.5v-85C0 .673.673 0 1.5 0h257c.827 0 1.5.673 1.5 1.5v85c0 .827-.673 1.5-1.5 1.5zM1.5 1c-.276 0-.5.224-.5.5v85c0 .275.224.5.5.5h257c.275 0 .5-.225.5-.5v-85c0-.276-.225-.5-.5-.5H1.5z" fill="#E6E6E6"/><path d="M124.64 20.747c-2.38 0-5.373.544-7.89 1.563-1.767.748-3.398 1.904-4.35 2.992-.545.612-.816 1.156-.816 1.768 0 1.088.95 1.7 1.768 1.7.204 0 .408 0 .612-.068.407-.137.68-.477 1.02-.816 2.38-2.38 5.167-3.467 9.18-3.467 5.847 0 10.538 1.49 10.538 6.86 0 3.53-3.875 6.8-6.867 9.31-3.672 3.13-6.255 6.8-6.255 11.76v2.72c0 1.02.815 1.9 1.972 1.9 1.224 0 2.107-.82 2.107-1.91v-2.44c0-4.83 2.85-7.55 6.39-10.88 3.13-2.86 6.73-6.33 6.73-10.47 0-5.85-3.81-10.54-14.15-10.54zm-1.022 40.795c-1.563 0-2.855 1.292-2.855 2.855s1.292 2.855 2.855 2.855c1.564 0 2.856-1.292 2.856-2.855s-1.29-2.855-2.856-2.855z" fill="#bbb"/></svg>