<svg xmlns="http://www.w3.org/2000/svg" width="255.5" height="37.9" viewBox="0 0 255.5 37.9"><path fill="#00965E" d="M48.2 26.1l8.9-17.4c.3-.6.7-1 1.5-1 .9 0 1.6.6 1.6 1.6v20.9c0 .9-.6 1.6-1.6 1.6s-1.6-.7-1.6-1.6v-14.6l-7.1 13.6c-.6.9-1.3 1-1.7 1.1-.4 0-1.2-.1-1.7-1.1l-7.1-13.6v14.6c0 .9-.6 1.6-1.6 1.6s-1.6-.7-1.6-1.6v-20.9c0-1 .7-1.6 1.6-1.6.8 0 1.2.4 1.5 1l8.9 17.4zm27.6 2.9c-5.1 0-9.2-4.1-9.2-9.2s4.1-9.2 9.2-9.2 9.2 4.1 9.2 9.2-4.1 9.2-9.2 9.2m12.4-9.2c0-6.8-5.5-12.4-12.4-12.4-6.8 0-12.4 5.5-12.4 12.4s5.6 12.3 12.4 12.3c6.8 0 12.4-5.5 12.4-12.3m15.3 9.2c-5.1 0-9.2-4.1-9.2-9.2s4.1-9.2 9.2-9.2 9.2 4.1 9.2 9.2-4.1 9.2-9.2 9.2m12.3-9.2c0-6.8-5.5-12.4-12.4-12.4-6.8 0-12.4 5.5-12.4 12.4s5.5 12.4 12.4 12.4c6.9-.1 12.4-5.6 12.4-12.4m-103.2 14.8c3 0 5.7-1.4 7.6-3.7 1.3-1.7 2-3.7 2-5.8 0-.7-.1-1.3-.2-1.9-.4-2.2-2-5.8-4.9-10.8-2.2-3.8-4-6.5-4-6.5l-.4-.6-.4.6s-1.8 2.8-4 6.5c-2.9 5-4.5 8.6-4.9 10.8-.1.6-.2 1.3-.2 1.9 0 2.1.7 4.1 2 5.8 1.7 2.3 4.5 3.7 7.4 3.7m0 3.3c-3.9 0-7.6-1.8-10-4.9-1.7-2.2-2.6-4.9-2.6-7.7 0-.9.1-1.7.3-2.6.4-2.7 2.5-7.4 6.1-13.7 2.7-4.7 5-8.2 5-8.2.3-.4.6-.8 1.2-.8s.9.4 1.1.8c0 0 2.3 3.5 5 8.2 3.7 6.3 5.7 10.9 6.2 13.7.2.8.3 1.7.3 2.5 0 2.8-.9 5.5-2.6 7.7-2.4 3.2-6 5-10 5"/><path fill="#4B4F54" d="M255.5 29.4c0-1.1-1-1.5-2.4-1.9-1.3-.4-1.7-.7-1.7-1.2 0-.6.7-.9 1.6-.9.6 0 1.1.2 1.6.4.1.1.2.1.3.1.2 0 .3-.1.3-.3s-.2-.3-.4-.4c-.6-.3-1.3-.5-1.9-.5-1.4 0-2.4.5-2.4 1.6 0 .9.6 1.5 2.4 2 .9.3 1.6.5 1.6 1.2 0 .6-.6 1-1.6 1-.7 0-1.4-.2-1.9-.7-.1-.1-.2-.1-.3-.1-.2 0-.3.1-.3.3 0 .1.1.2.2.3.6.5 1.4.8 2.4.8 1.6 0 2.5-.7 2.5-1.7m-5.9-4.3c0-.2-.1-.4-.4-.4-.9 0-1.7.5-1.9 1.4v-1c0-.2-.2-.4-.4-.4s-.4.2-.4.4v5.5c0 .2.2.4.4.4s.4-.2.4-.4v-2.5c0-1.8.9-2.7 1.9-2.7.3.1.4 0 .4-.3m-5.5 2.4h-4.4c.1-1.1 1-2.1 2.2-2.1 1.3 0 2.1.9 2.2 2.1m-2.1-2.8c-1.8 0-3.1 1.5-3.1 3.2 0 1.7 1.2 3.2 3.2 3.2 1.1 0 2-.5 2.5-1.2.1-.1.1-.2.1-.3 0-.2-.1-.4-.3-.4-.2 0-.3.1-.3.2-.5.6-1.1.9-1.9.9-1.5 0-2.3-1.1-2.4-2.2h4.9c.2 0 .3-.2.3-.3-.1-1.7-1.3-3.1-3-3.1m-10.3 3.2c0-1.5 1-2.5 2.4-2.5s2.4 1.1 2.4 2.5-.9 2.5-2.4 2.5c-1.4 0-2.4-1-2.4-2.5m4.8 2.8c0 .2.2.4.4.4s.4-.2.4-.4v-8.7c0-.2-.2-.4-.4-.4s-.4.2-.4.4v4c-.5-.8-1.4-1.3-2.5-1.3-1.7 0-3.1 1.3-3.1 3.2 0 1.9 1.4 3.2 3.1 3.2 1.1 0 2-.5 2.5-1.3v.9zm-7.1-3.2c0-1.6-1-2.8-2.6-2.8-1 0-1.8.4-2.3 1.2v-.7c0-.2-.2-.4-.4-.4s-.4.2-.4.4v5.5c0 .2.2.4.4.4s.4-.2.4-.4v-2.9c0-1.4.9-2.2 2.1-2.2 1.3 0 2 .8 2 2.1v3.1c0 .2.2.4.4.4s.4-.2.4-.4v-3.3zm-8.1.4c0 1.4-1 2.5-2.4 2.5-1.3 0-2.4-1-2.4-2.5 0-1.4 1-2.5 2.4-2.5s2.4 1.1 2.4 2.5m.9 0c0-1.8-1.3-3.2-3.2-3.2-1.9 0-3.2 1.4-3.2 3.2 0 1.8 1.3 3.2 3.2 3.2 1.8 0 3.2-1.4 3.2-3.2m-11.2-2.9c-.1-.2-.2-.3-.4-.3s-.3.1-.3.3l-1.6 4.7-1.5-4.7c-.1-.2-.1-.3-.4-.3-.2 0-.4.1-.4.4v.2l1.8 5.5c.1.2.2.3.4.3s.3-.1.4-.3l1.6-4.6 1.6 4.6c.1.2.2.3.4.3s.3-.1.4-.3l1.8-5.5v-.2c0-.2-.2-.4-.4-.4s-.3.1-.4.3l-1.5 4.7-1.5-4.7zm-8.6 4.4c0-1.1-1-1.5-2.4-1.9-1.3-.4-1.7-.7-1.7-1.2 0-.6.7-.9 1.6-.9.6 0 1.1.2 1.6.4.1.1.2.1.3.1.2 0 .3-.1.3-.3s-.2-.3-.4-.4c-.6-.3-1.3-.5-1.9-.5-1.4 0-2.4.5-2.4 1.6 0 .9.6 1.5 2.4 2 .9.3 1.6.5 1.6 1.2 0 .6-.6 1-1.6 1-.7 0-1.4-.2-1.9-.7-.1-.1-.2-.1-.3-.1-.2 0-.3.1-.3.3 0 .1.1.2.2.3.6.5 1.4.8 2.4.8 1.7 0 2.5-.7 2.5-1.7m-10.3-.8l.9-.8 2.5 3.1c.1.1.2.2.3.2.2 0 .4-.2.4-.4 0-.1 0-.2-.1-.3l-2.5-3.1 2.3-1.8c.1-.1.2-.2.2-.3 0-.2-.2-.4-.4-.4-.1 0-.2 0-.3.1l-3.4 2.7v-5.7c0-.2-.2-.4-.4-.4s-.4.2-.4.4v8.7c0 .2.2.4.4.4s.4-.2.4-.4v-2zm-2-3.5c0-.2-.1-.4-.4-.4-.9 0-1.7.5-1.9 1.4v-1c0-.2-.2-.4-.4-.4s-.4.2-.4.4v5.5c0 .2.2.4.4.4s.4-.2.4-.4v-2.5c0-1.8.9-2.7 1.9-2.7.3.1.4 0 .4-.3m-5.5 2.8c0 1.4-1 2.5-2.4 2.5-1.3 0-2.4-1-2.4-2.5 0-1.4 1-2.5 2.4-2.5 1.3 0 2.4 1.1 2.4 2.5m.8 0c0-1.8-1.3-3.2-3.2-3.2s-3.2 1.4-3.2 3.2c0 1.8 1.3 3.2 3.2 3.2s3.2-1.4 3.2-3.2m-11.2-2.9c-.1-.2-.2-.3-.3-.3-.2 0-.3.1-.4.3l-1.6 4.7-1.5-4.7c-.1-.2-.1-.3-.4-.3-.2 0-.4.1-.4.4v.2l1.8 5.5c.1.2.2.3.4.3s.3-.1.4-.3l1.6-4.6 1.6 4.6c.1.2.2.3.4.3s.3-.1.4-.3l1.8-5.5v-.2c0-.2-.2-.4-.4-.4s-.3.1-.4.3l-1.5 4.7-1.5-4.7zm-8.8 2.5c0-1.6-1-2.8-2.6-2.8-1 0-1.8.4-2.3 1.2v-.7c0-.2-.2-.4-.4-.4s-.4.2-.4.4v5.5c0 .2.2.4.4.4s.4-.2.4-.4v-2.9c0-1.4.9-2.2 2.1-2.2 1.3 0 2 .8 2 2.1v3.1c0 .2.2.4.4.4s.4-.2.4-.4v-3.3zm-13.1.3c0-1.5 1-2.4 2.4-2.4 1.3 0 2.4 1.1 2.4 2.4s-1 2.4-2.4 2.4c-1.4.1-2.4-.9-2.4-2.4m4.7 1.8v.9c0 1.4-.6 2.5-2.4 2.5-.8 0-1.5-.2-2.1-.5-.1-.1-.2-.1-.4-.1s-.3.1-.3.3c0 .2.1.3.3.4.5.3 1.4.6 2.5.6 2.2 0 3.2-1.3 3.2-3.2v-5.3c0-.2-.2-.4-.4-.4s-.4.2-.4.4v.8c-.4-.6-1.2-1.3-2.5-1.3-1.7 0-3.1 1.2-3.1 3.1s1.4 3.1 3.1 3.1c1.1 0 2.1-.5 2.5-1.3zm-8-6.6c0 .3.2.5.5.5s.5-.2.5-.5-.2-.5-.5-.5-.5.2-.5.5m.9 7.7v-5.5c0-.2-.2-.4-.4-.4s-.4.2-.4.4v5.5c0 .2.2.4.4.4s.4-.2.4-.4m-2.4-1.3c0-1.1-1-1.5-2.4-1.9-1.3-.4-1.7-.7-1.7-1.2 0-.6.7-.9 1.6-.9.6 0 1.1.2 1.6.4.1.1.2.1.3.1.2 0 .3-.1.3-.3s-.2-.3-.4-.4c-.6-.3-1.3-.5-1.9-.5-1.4 0-2.4.5-2.4 1.6 0 .9.6 1.5 2.4 2 .9.3 1.6.5 1.6 1.2 0 .6-.6 1-1.6 1-.7 0-1.4-.2-1.9-.7-.1-.1-.2-.1-.3-.1-.2 0-.3.1-.3.3 0 .1.1.2.2.3.6.5 1.4.8 2.4.8 1.7 0 2.5-.7 2.5-1.7m-6.9-1.9h-4.4c.1-1.1 1-2.1 2.2-2.1 1.2 0 2.1.9 2.2 2.1m-2.2-2.8c-1.8 0-3.1 1.5-3.1 3.2 0 1.7 1.2 3.2 3.2 3.2 1.1 0 2-.5 2.5-1.2.1-.1.1-.2.1-.3 0-.2-.1-.4-.4-.4-.2 0-.3.1-.3.2-.5.6-1.1.9-1.9.9-1.5 0-2.3-1.1-2.4-2.2h4.9c.2 0 .3-.2.3-.3.1-1.7-1.2-3.1-2.9-3.1m-5.1 1.6c0 2.2-1.4 3.9-3.9 3.9h-2.2v-7.8h2.2c2.4 0 3.9 1.7 3.9 3.9m.8 0c0-2.6-1.8-4.7-4.6-4.7h-2.7c-.2 0-.4.2-.4.4v8.5c0 .2.2.4.4.4h2.7c2.8.1 4.6-2 4.6-4.6"/></svg>