<svg xmlns="http://www.w3.org/2000/svg" width="50.8" height="50.8" viewBox="0 0 50.8 50.8"><path fill="#48a9c5" d="M47.8 28.9l2.6-2.2-2.4-2.4 2.1-2.6-2.8-1.9 1.5-3-3.1-1.3.9-3.3-3.3-.6.2-3.4h-3.4l-.5-3.3-3.3.7-1.1-3.2-3.1 1.4L30.4.9l-2.7 2L25.4.4l-2.3 2.5-2.7-2-1.7 2.9-3.1-1.4-1.1 3.2-3.3-.7-.5 3.3H7.3l.2 3.4-3.3.6.8 3.2-3.1 1.3 1.5 3-2.8 1.9 2.1 2.6-2.4 2.4L3 28.9l-1.8 2.8 3 1.6L3 36.5l3.2 1-.6 3.3 3.4.3.1 3.4 3.4-.4.8 3.3 3.2-1.1 1.4 3 2.9-1.7 2 2.7 2.5-2.2 2.5 2.2 2-2.7 2.9 1.7 1.4-3 3.2 1.1.8-3.3 3.4.4.1-3.4 3.4-.3-.6-3.3 3.2-1-1.2-3.2 3-1.6-1.6-2.8z"/><path fill="#fff" d="M17.3 29.2c0 .3-.2.6-.6.6-.2 0-.4-.1-.5-.2l-5-6.4v6c0 .3-.2.6-.6.6-.4 0-.6-.3-.6-.6v-7.7c0-.4.2-.6.6-.6.2 0 .4.1.5.2l5 6.3v-6c0-.4.2-.6.6-.6s.6.2.6.6v7.8zm7.6.5h-5c-.4 0-.6-.3-.6-.6v-7.4c0-.4.3-.6.6-.6h4.8c.3 0 .6.2.6.6 0 .3-.3.6-.6.6h-4.2v2.5h2.4c.3 0 .6.2.6.6 0 .3-.3.6-.6.6h-2.4v2.7h4.4c.3 0 .6.2.6.6 0 .2-.2.4-.6.4zm12.9-8l-2.7 7.7c-.1.2-.2.4-.6.4-.3 0-.5-.1-.5-.4l-2.1-6.3-2.1 6.3c-.1.2-.3.4-.5.4-.4 0-.5-.2-.6-.4L26 21.7v-.2c0-.3.2-.6.6-.6.3 0 .5.1.6.4l2.1 6.3 2.1-6.3c.1-.2.3-.4.6-.4s.5.2.6.4l2.1 6.3 2.1-6.3c.1-.3.3-.4.6-.4s.6.2.6.6c-.1 0-.1.1-.2.2zm1.5-.2c0-.3.2-.6.6-.6.4 0 .6.3.6.6v3.4l-.3 2.3c0 .2-.1.3-.3.3-.2 0-.3-.1-.3-.3l-.3-2.3v-3.4zm.6 8.3c-.4 0-.8-.4-.8-.8s.4-.8.8-.8.8.4.8.8c0 .5-.4.8-.8.8z"/></svg>